<?xml version="1.0" standalone="no"?>
<!DOCTYPE svg PUBLIC "-//W3C//DTD SVG 1.1//EN" "http://www.w3.org/Graphics/SVG/1.1/DTD/svg11.dtd" >
<svg xmlns="http://www.w3.org/2000/svg" xmlns:xlink="http://www.w3.org/1999/xlink" version="1.1">
<metadata>
Created by FontForge 20170924 at Mon Jan  9 22:57:04 2012
 By www-data
Copyright (c) 2011 Durotype, www.durotype.com. All rights reserved.
</metadata>
<defs>
<font id="SecondaSoft-Regular" horiz-adv-x="2024" >
  <font-face 
    font-family="SecondaSoft-Regular"
    font-weight="400"
    font-stretch="normal"
    units-per-em="3333"
    panose-1="0 0 0 0 0 0 0 0 0 0"
    ascent="2533"
    descent="-800"
    x-height="1638"
    cap-height="2364"
    bbox="-510 -888.333 3806 3208"
    underline-thickness="167"
    underline-position="-236"
    unicode-range="U+0020-FB04"
  />
<missing-glyph horiz-adv-x="2152" 
d="M244 0v2401h1663v-2401h-1663zM410 2075v-1749l566 874zM1076 1046l-566 -875h1131zM510 2230l566 -875l565 875h-1131zM1175 1200l566 -874v1749z" />
    <glyph glyph-name="f_f" unicode="ff" horiz-adv-x="2176" 
d="M548 0h-79.9951c-40.667 -0 -68.334 7.33301 -83.001 22s-22 42.334 -22 83.001v1337h-190c-36 0 -60.5 6.5 -73.5 19.5s-19.5 37.5 -19.5 73.5v10c0 36 6.5 60.5 19.5 73.5s37.5 19.5 73.5 19.5h190v266c0 182 44.333 322.5 133 421.5s218 148.5 388 148.5
c67.333 0 131.333 -15 192 -45c20.667 -10 35.167 -20 43.5 -30s12.5 -22.333 12.5 -37c0 -10.667 -2.66699 -25.667 -8 -45l-3 -10c-6 -20 -12.833 -34.167 -20.5 -42.5s-17.834 -12.5 -30.501 -12.5c-10 0 -23.667 2.66699 -41 8c-41.333 12.667 -80.333 19 -117 19
c-49.333 0 -91.333 -7.66699 -126 -23s-61.5 -37.333 -80.5 -66s-32.5 -60.5 -40.5 -95.5s-12 -74.833 -12 -119.5v-337h796v266c0 182 44.5 322.5 133.5 421.5s218.5 148.5 388.5 148.5c67.333 0 131.333 -15 192 -45c20.667 -10 35.167 -20 43.5 -30
s12.5 -22.333 12.5 -37c0 -10.667 -2.66699 -25.667 -8 -45l-3 -10c-5.33301 -20 -12 -34.167 -20 -42.5s-18.333 -12.5 -31 -12.5c-10 0 -23.667 2.66699 -41 8c-41.333 12.667 -80.333 19 -117 19c-49.333 0 -91.333 -7.66699 -126 -23s-61.5 -37.333 -80.5 -66
s-32.5 -60.5 -40.5 -95.5s-12 -74.833 -12 -119.5v-337h270c36 0 60.5 -6.5 73.5 -19.5s19.5 -37.5 19.5 -73.5v-10c0 -36 -6.5 -60.5 -19.5 -73.5s-37.5 -19.5 -73.5 -19.5h-270v-1337c0 -40.667 -7.33301 -68.334 -22 -83.001s-42.334 -22 -83.001 -22h-81
c-40.667 -0 -68.334 7.33301 -83.001 22s-22 42.334 -22 83.001v1337h-796v-1337c0 -40.667 -7.33301 -68.334 -22 -83.001s-42.334 -22 -83.001 -22z" />
    <glyph glyph-name="fi" unicode="fi" horiz-adv-x="1892" 
d="M651 1975l0.00195312 -336.999h879c40.667 0 68.334 -7.33301 83.001 -22s22 -42.334 22 -83.001v-1428c0 -40.667 -7.33301 -68.334 -22 -83.001s-42.334 -22 -83.001 -22h-80c-40.667 0 -68.334 7.33301 -83.001 22s-22 42.334 -22 83.001v1337h-694v-1337
c0 -40.667 -7.33301 -68.334 -22 -83.001s-42.334 -22 -83.001 -22h-80c-40.667 0 -68.334 7.33301 -83.001 22s-22 42.334 -22 83.001v1337h-190c-36 0 -60.5 6.5 -73.5 19.5s-19.5 37.5 -19.5 73.5v10c0 36 6.5 60.5 19.5 73.5s37.5 19.5 73.5 19.5h190v266
c0 182 44.333 322.5 133 421.5s218 148.5 388 148.5c68 0 132.333 -15 193 -45c20.667 -10 35.167 -20 43.5 -30s12.5 -22.333 12.5 -37c0 -10.667 -2.66699 -25.667 -8 -45l-3 -10c-5.33301 -20 -12 -34.167 -20 -42.5s-18.333 -12.5 -31 -12.5
c-10 0 -23.667 2.66699 -41 8c-41.333 12.667 -80.666 19 -117.999 19c-49.333 0 -91.333 -7.66699 -126 -23s-61.5 -37.333 -80.5 -66s-32.5 -60.5 -40.5 -95.5s-12 -74.833 -12 -119.5zM1677 2103c0 -52.667 -18 -97.166 -54 -133.499s-80.333 -54.5 -133 -54.5
s-97.667 18.333 -135 55s-56 81 -56 133s18.667 96 56 132s82.333 54 135 54s97 -17.833 133 -53.5s54 -79.834 54 -132.501z" />
    <glyph glyph-name="fl" unicode="fl" horiz-adv-x="1985" 
d="M1014 1545v-10.0039c0 -36 -6.5 -60.5 -19.5 -73.5s-37.5 -19.5 -73.5 -19.5h-270v-1337c0 -40.667 -7.33301 -68.334 -22 -83.001s-42.334 -22 -83.001 -22h-80c-40.667 0 -68.334 7.33301 -83.001 22s-22 42.334 -22 83.001v1337h-190c-36 0 -60.5 6.5 -73.5 19.5
s-19.5 37.5 -19.5 73.5v10c0 36 6.5 60.5 19.5 73.5s37.5 19.5 73.5 19.5h190v267c0 181.333 44.333 321.5 133 420.5s218 148.5 388 148.5c73.333 0 153.333 -9.33301 240 -28s161.334 -40.667 224.001 -66c0 22.667 4 38 12 46s23.333 12 46 12h127
c40.667 0 68.334 -7.33301 83.001 -22s22 -42.334 22 -83.001v-1770c0 -35.333 0.333008 -64.666 1 -87.999s2.5 -49.5 5.5 -78.5s7.16699 -53.167 12.5 -72.5s13 -39.5 23 -60.5s22 -38.333 36 -52s31.333 -26 52 -37s44.334 -19.5 71.001 -25.5
c33.333 -7.33301 55.5 -16.666 66.5 -27.999s16.5 -32.666 16.5 -63.999v-10c0 -32.667 -5.83301 -55 -17.5 -67s-33.5 -17 -65.5 -15c-178.667 10.667 -305.167 63.334 -379.5 158.001s-111.5 248.334 -111.5 461.001v1613c-156.667 54.667 -288.667 82 -396 82
c-58.667 0 -108.334 -7.66699 -149.001 -23s-71.5 -37.5 -92.5 -66.5s-35.833 -60.5 -44.5 -94.5s-13 -73.667 -13 -119v-338h270c36 0 60.5 -6.5 73.5 -19.5s19.5 -37.5 19.5 -73.5z" />
    <glyph glyph-name="f_f_i" unicode="ffi" horiz-adv-x="2979" 
d="M79 1535l0.00488281 10.001c0 36 6.5 60.5 19.5 73.5s37.5 19.5 73.5 19.5h190v266c0 182 44.333 322.5 133 421.5s218 148.5 388 148.5c67.333 0 131.333 -15 192 -45c20.667 -10 35.167 -20 43.5 -30s12.5 -22.333 12.5 -37c0 -10.667 -2.66699 -25.667 -8 -45l-3 -10
c-5.33301 -20 -12 -34.167 -20 -42.5s-18.333 -12.5 -31 -12.5c-10 0 -23.667 2.66699 -41 8c-41.333 12.667 -80.333 19 -117 19c-49.333 0 -91.333 -7.66699 -126 -23s-61.5 -37.333 -80.5 -66s-32.5 -60.5 -40.5 -95.5s-12 -74.833 -12 -119.5v-337h796v266
c0 182 44.333 322.5 133 421.5s218 148.5 388 148.5c67.333 0 131.666 -15 192.999 -45c20.667 -10 35.167 -20 43.5 -30s12.5 -22.333 12.5 -37c0 -10.667 -2.66699 -25.667 -8 -45l-3 -10c-5.33301 -20 -12 -34.167 -20 -42.5s-18.333 -12.5 -31 -12.5
c-10 0 -23.667 2.66699 -41 8c-41.333 12.667 -80.666 19 -117.999 19c-49.333 0 -91.333 -7.66699 -126 -23s-61.5 -37.333 -80.5 -66s-32.5 -60.5 -40.5 -95.5s-12 -74.833 -12 -119.5v-337h879c40.667 0 68.334 -7.33301 83.001 -22s22 -42.334 22 -83.001v-1428
c0 -40.667 -7.33301 -68.334 -22 -83.001s-42.334 -22 -83.001 -22h-80c-40.667 0 -68.334 7.33301 -83.001 22s-22 42.334 -22 83.001v1337h-694v-1337c0 -40.667 -7.33301 -68.334 -22 -83.001s-42.334 -22 -83.001 -22h-80c-40.667 0 -68.334 7.33301 -83.001 22
s-22 42.334 -22 83.001v1337h-796v-1337c0 -40.667 -7.33301 -68.334 -22 -83.001s-42.334 -22 -83.001 -22h-80c-40.667 0 -68.334 7.33301 -83.001 22s-22 42.334 -22 83.001v1337h-190c-36 0 -60.5 6.5 -73.5 19.5s-19.5 37.5 -19.5 73.5zM2764 2103
c0 -52.667 -18 -97.166 -54 -133.499s-80.333 -54.5 -133 -54.5s-97.667 18.333 -135 55s-56 81 -56 133s18.667 96 56 132s82.333 54 135 54s97 -17.833 133 -53.5s54 -79.834 54 -132.501z" />
    <glyph glyph-name="f_f_l" unicode="ffl" horiz-adv-x="3073" 
d="M1449 1638l0.00195312 266.996c0 181.333 44.333 321.5 133 420.5s218 148.5 388 148.5c73.333 0 153.333 -9.33301 240 -28s161.334 -40.667 224.001 -66c0 22.667 4 38 12 46s23.333 12 46 12h127c40.667 0 68.334 -7.33301 83.001 -22s22 -42.334 22 -83.001v-1770
c0 -35.333 0.333008 -64.666 1 -87.999s2.5 -49.5 5.5 -78.5s7.16699 -53.167 12.5 -72.5s13 -39.5 23 -60.5s22 -38.333 36 -52s31.333 -26 52 -37s44.334 -19.5 71.001 -25.5c33.333 -7.33301 55.5 -16.666 66.5 -27.999s16.5 -32.666 16.5 -63.999v-10
c0 -32.667 -5.83301 -55 -17.5 -67s-33.5 -17 -65.5 -15c-178.667 10.667 -305.167 63.334 -379.5 158.001s-111.5 248.334 -111.5 461.001v1613c-156.667 54.667 -288.667 82 -396 82c-58.667 0 -108.334 -7.66699 -149.001 -23s-71.5 -37.5 -92.5 -66.5
s-35.833 -60.5 -44.5 -94.5s-13 -73.667 -13 -119v-338h270c36 0 60.5 -6.5 73.5 -19.5s19.5 -37.5 19.5 -73.5v-10c0 -36 -6.5 -60.5 -19.5 -73.5s-37.5 -19.5 -73.5 -19.5h-270v-1337c0 -40.667 -7.33301 -68.334 -22 -83.001s-42.334 -22 -83.001 -22h-80
c-40.667 0 -68.334 7.33301 -83.001 22s-22 42.334 -22 83.001v1337h-796v-1337c0 -40.667 -7.33301 -68.334 -22 -83.001s-42.334 -22 -83.001 -22h-80c-40.667 0 -68.334 7.33301 -83.001 22s-22 42.334 -22 83.001v1337h-190c-36 0 -60.5 6.5 -73.5 19.5
s-19.5 37.5 -19.5 73.5v10c0 36 6.5 60.5 19.5 73.5s37.5 19.5 73.5 19.5h190v266c0 182 44.333 322.5 133 421.5s218 148.5 388 148.5c67.333 0 131.333 -15 192 -45c20.667 -10 35.167 -20 43.5 -30s12.5 -22.333 12.5 -37c0 -10.667 -2.66699 -25.667 -8 -45l-3 -10
c-5.33301 -20 -12 -34.167 -20 -42.5s-18.333 -12.5 -31 -12.5c-10 0 -23.667 2.66699 -41 8c-41.333 12.667 -80.333 19 -117 19c-49.333 0 -91.333 -7.66699 -126 -23s-61.5 -37.333 -80.5 -66s-32.5 -60.5 -40.5 -95.5s-12 -74.833 -12 -119.5v-337h796z" />
    <glyph glyph-name="f_b" unicode="fb" horiz-adv-x="3091" 
d="M1016 1545l0.00683594 -10c0 -36 -6.5 -60.5 -19.5 -73.5s-37.5 -19.5 -73.5 -19.5h-270v-1337c0 -40.667 -7.33301 -68.334 -22 -83.001s-42.334 -22 -83.001 -22h-80c-40.667 0 -68.334 7.33301 -83.001 22s-22 42.334 -22 83.001v1337h-190
c-36 0 -60.5 6.5 -73.5 19.5s-19.5 37.5 -19.5 73.5v10c0 36 6.5 60.5 19.5 73.5s37.5 19.5 73.5 19.5h190v267c0 181.333 44.333 321.5 133 420.5s218 148.5 388 148.5c73.333 0 153.166 -9.16699 239.499 -27.5s160.5 -40.166 222.5 -65.499c0 22 4 37 12 45s23 12 45 12
h127c40.667 0 68.334 -7.33301 83.001 -22s22 -42.334 22 -83.001v-937c146.667 186 330.667 279 552 279c116.667 0 223.167 -23 319.5 -69s175.5 -108.167 237.5 -186.5s109.833 -168 143.5 -269s50.5 -207.833 50.5 -320.5c0 -90 -10.333 -177.167 -31 -261.5
s-52 -163.166 -94 -236.499s-92.5 -137.333 -151.5 -192s-129.333 -97.834 -211 -129.501s-169.834 -47.5 -264.501 -47.5c-116 0 -221.333 26 -316 78s-172.334 126.667 -233.001 224l-2 -1v-159c0 -40.667 -7.33301 -68.334 -22 -83.001s-42.334 -22 -83.001 -22h-79
c-40.667 0 -68.334 7.33301 -83.001 22s-22 42.334 -22 83.001v2092c-158.667 54.667 -290 82 -394 82c-58.667 0 -108.334 -7.66699 -149.001 -23s-71.5 -37.5 -92.5 -66.5s-35.833 -60.5 -44.5 -94.5s-13 -73.667 -13 -119v-338h270c36 0 60.5 -6.5 73.5 -19.5
s19.5 -37.5 19.5 -73.5zM1635.01 1016l-0.000976562 -384.999c0 -70.667 14.667 -135.5 44 -194.5s67.333 -107 114 -144s97.667 -65.667 153 -86s110.333 -30.5 165 -30.5c68 0 130.5 11.667 187.5 35s105.333 55 145 95s73.5 87.167 101.5 141.5
s48.5 112.166 61.5 173.499s19.5 125 19.5 191c0 70 -5.83301 136.5 -17.5 199.5s-30.667 122.5 -57 178.5s-58.666 104.167 -96.999 144.5s-85.833 72.333 -142.5 96s-120 35.5 -190 35.5c-87.333 0 -168.5 -20.333 -243.5 -61s-134.333 -95.667 -178 -165
s-65.5 -144 -65.5 -224z" />
    <glyph glyph-name="f_f_j" unicode="ffj" horiz-adv-x="2981" 
d="M78 1535l0.000976562 10.0049c0 36 6.5 60.5 19.5 73.5s37.5 19.5 73.5 19.5h190v266c0 182 44.333 322.5 133 421.5s218 148.5 388 148.5c66.667 0 130.667 -15 192 -45c20.667 -10 35.167 -20 43.5 -30s12.5 -22.333 12.5 -37c0 -10.667 -2.66699 -25.667 -8 -45
l-3 -10c-5.33301 -20 -12 -34.167 -20 -42.5s-18.333 -12.5 -31 -12.5c-10 0 -23.667 2.66699 -41 8c-41.333 12.667 -80.333 19 -117 19c-49.333 0 -91.333 -7.66699 -126 -23s-61.5 -37.333 -80.5 -66s-32.5 -60.5 -40.5 -95.5s-12 -74.833 -12 -119.5v-337h796v266
c0 182 44.333 322.5 133 421.5s218 148.5 388 148.5c66.667 0 130.667 -15 192 -45c20.667 -10 35.167 -20 43.5 -30s12.5 -22.333 12.5 -37c0 -10.667 -2.66699 -25.667 -8 -45l-3 -10c-5.33301 -20 -12 -34.167 -20 -42.5s-18.333 -12.5 -31 -12.5
c-10 0 -23.667 2.66699 -41 8c-41.333 12.667 -80.333 19 -117 19c-49.333 0 -91.333 -7.66699 -126 -23s-61.5 -37.333 -80.5 -66s-32.5 -60.5 -40.5 -95.5s-12 -74.833 -12 -119.5v-337h882c40.667 0 68.334 -7.33301 83.001 -22s22 -42.334 22 -83.001v-1693
c0 -212.667 -37.667 -366.334 -113 -461.001s-202.666 -147.334 -381.999 -158.001c-32 -2 -53.833 3 -65.5 15s-17.5 34 -17.5 66v10c0 32 5.66699 54 17 66s33.333 21 66 27c26.667 5.33301 50.334 13.166 71.001 23.499s38 21.833 52 34.5s26 29 36 49
s17.667 39.333 23 58s9.5 42.167 12.5 70.5s4.83301 54.166 5.5 77.499s1 52.333 1 87v1637h-693v-1337c0 -40.667 -7.33301 -68.334 -22 -83.001s-42.334 -22 -83.001 -22h-80c-40.667 0 -68.334 7.33301 -83.001 22s-22 42.334 -22 83.001v1337h-796v-1337
c0 -40.667 -7.33301 -68.334 -22 -83.001s-42.334 -22 -83.001 -22h-80c-40.667 0 -68.334 7.33301 -83.001 22s-22 42.334 -22 83.001v1337h-190c-36 0 -60.5 6.5 -73.5 19.5s-19.5 37.5 -19.5 73.5zM2764 2103c0 -52.667 -18 -97.166 -54 -133.499
s-80.333 -54.5 -133 -54.5s-97.667 18.333 -135 55s-56 81 -56 133s18.667 96 56 132s82.333 54 135 54s97 -17.833 133 -53.5s54 -79.834 54 -132.501z" />
    <glyph glyph-name="f_h" unicode="fh" horiz-adv-x="2975" 
d="M652 1442l0.00488281 -1337c0 -40.667 -7.33301 -68.334 -22 -83.001s-42.334 -22 -83.001 -22h-80c-40.667 0 -68.334 7.33301 -83.001 22s-22 42.334 -22 83.001v1337h-190c-36 0 -60.5 6.5 -73.5 19.5s-19.5 37.5 -19.5 73.5v10c0 36 6.5 60.5 19.5 73.5
s37.5 19.5 73.5 19.5h190v267c0 181.333 44.333 321.5 133 420.5s218 148.5 388 148.5c73.333 0 153.166 -9.16699 239.499 -27.5s160.5 -40.166 222.5 -65.499c0 21.333 4 36 12 44s22.667 12 44 12h129c40.667 0 68.334 -7.33301 83.001 -22s22 -42.334 22 -83.001v-961
l2 -1c60 94 138.5 168.333 235.5 223s203.167 82 318.5 82c65.333 0 124.333 -6.83301 177 -20.5s97.834 -32.167 135.501 -55.5s70.5 -53.166 98.5 -89.499s50.5 -74.5 67.5 -114.5s30.667 -86.333 41 -139s17.333 -104.5 21 -155.5s5.5 -107.833 5.5 -170.5v-825
c0 -40.667 -7.33301 -68.334 -22 -83.001s-42.334 -22 -83.001 -22h-80c-40.667 -0 -68.334 7.33301 -83.001 22s-22 42.334 -22 83.001v911c0 71.333 -5.66699 132.166 -17 182.499s-30.166 94.166 -56.499 131.499s-62.333 65.166 -108 83.499s-102.167 27.5 -169.5 27.5
c-78.667 0 -153.5 -20.667 -224.5 -62s-128.167 -97.166 -171.5 -167.499s-65 -145.166 -65 -224.499v-882c0 -40.667 -7.33301 -68.334 -22 -83.001s-42.334 -22 -83.001 -22h-80c-40.667 0 -68.334 7.33301 -83.001 22s-22 42.334 -22 83.001v2092
c-158.667 54.667 -290 82 -394 82c-58.667 0 -108.334 -7.66699 -149.001 -23s-71.5 -37.5 -92.5 -66.5s-35.833 -60.5 -44.5 -94.5s-13 -73.667 -13 -119v-338h270c36 0 60.5 -6.5 73.5 -19.5s19.5 -37.5 19.5 -73.5v-10c0 -36 -6.5 -60.5 -19.5 -73.5
s-37.5 -19.5 -73.5 -19.5h-270z" />
    <glyph glyph-name="f_j" unicode="fj" horiz-adv-x="1897" 
d="M653 1975l-0.000976562 -336.995h882c40.667 0 68.334 -7.33301 83.001 -22s22 -42.334 22 -83.001v-1693c0 -212.667 -37.667 -366.334 -113 -461.001s-202.666 -147.334 -381.999 -158.001c-32 -2 -53.833 3 -65.5 15s-17.5 34 -17.5 66v10c0 32 5.66699 54 17 66
s33.333 21 66 27c26.667 5.33301 50.334 13.166 71.001 23.499s38 21.833 52 34.5s26 29 36 49s17.667 39.333 23 58s9.5 42.167 12.5 70.5s4.83301 54.166 5.5 77.499s1 52.333 1 87v1637h-693v-1337c0 -40.667 -7.33301 -68.334 -22 -83.001s-42.334 -22 -83.001 -22h-80
c-40.667 0 -68.334 7.33301 -83.001 22s-22 42.334 -22 83.001v1337h-190c-36 0 -60.5 6.5 -73.5 19.5s-19.5 37.5 -19.5 73.5v10c0 36 6.5 60.5 19.5 73.5s37.5 19.5 73.5 19.5h190v266c0 182 44.333 322.5 133 421.5s218 148.5 388 148.5c67.333 0 131.333 -15 192 -45
c20.667 -10 35.167 -20 43.5 -30s12.5 -22.333 12.5 -37c0 -10.667 -2.66699 -25.667 -8 -45l-3 -10c-5.33301 -20 -12 -34.167 -20 -42.5s-18.333 -12.5 -31 -12.5c-10 0 -23.667 2.66699 -41 8c-41.333 12.667 -80.333 19 -117 19c-49.333 0 -91.333 -7.66699 -126 -23
s-61.5 -37.333 -80.5 -66s-32.5 -60.5 -40.5 -95.5s-12 -74.833 -12 -119.5zM1680 2103c0 -52.667 -18 -97.166 -54 -133.499s-80.333 -54.5 -133 -54.5s-97.667 18.333 -135 55s-56 81 -56 133s18.667 96 56 132s82.333 54 135 54s97 -17.833 133 -53.5
s54 -79.834 54 -132.501z" />
    <glyph glyph-name="f_k" unicode="fk" horiz-adv-x="2808" 
d="M1402 2437h129.006c40.667 0 68.334 -7.33301 83.001 -22s22 -42.334 22 -83.001v-1395l669 629c34.667 32 62 52 82 60s53.333 12 100 12h128c40 0 60 -8 60 -24c0 -11.333 -10.667 -27 -32 -47l-689 -638l781 -852c18.667 -20.667 28 -37.334 28 -50.001
c0 -18 -20.667 -27 -62 -27h-184c-46.667 0 -79.834 4.33301 -99.501 13s-45.167 30.334 -76.5 65.001l-705 775v-748c0 -40.667 -7.33301 -68.334 -22 -83.001s-42.334 -22 -83.001 -22h-80c-40.667 0 -68.334 7.33301 -83.001 22s-22 42.334 -22 83.001v2092
c-158.667 54.667 -290 82 -394 82c-58.667 0 -108.334 -7.66699 -149.001 -23s-71.5 -37.5 -92.5 -66.5s-35.833 -60.5 -44.5 -94.5s-13 -73.667 -13 -119v-338h270c36 0 60.5 -6.5 73.5 -19.5s19.5 -37.5 19.5 -73.5v-10c0 -36 -6.5 -60.5 -19.5 -73.5
s-37.5 -19.5 -73.5 -19.5h-270v-1337c0 -40.667 -7.33301 -68.334 -22 -83.001s-42.334 -22 -83.001 -22h-80c-40.667 0 -68.334 7.33301 -83.001 22s-22 42.334 -22 83.001v1337h-190c-36 0 -60.5 6.5 -73.5 19.5s-19.5 37.5 -19.5 73.5v10c0 36 6.5 60.5 19.5 73.5
s37.5 19.5 73.5 19.5h190v267c0 181.333 44.333 321.5 133 420.5s218 148.5 388 148.5c73.333 0 153.166 -9.16699 239.499 -27.5s160.5 -40.166 222.5 -65.499c0 21.333 4 36 12 44s22.667 12 44 12z" />
    <glyph glyph-name=".notdef" horiz-adv-x="2152" 
d="M244 0v2401h1663v-2401h-1663zM410 2075v-1749l566 874zM1076 1046l-566 -875h1131zM510 2230l566 -875l565 875h-1131zM1175 1200l566 -874v1749z" />
    <glyph glyph-name="space" unicode=" " horiz-adv-x="835" 
 />
    <glyph glyph-name="exclam" unicode="!" horiz-adv-x="878" 
d="M398 2364h82.0059c45.333 0 76.166 -8.16699 92.499 -24.5s24.166 -47.166 23.499 -92.499l-2 -174c-3.33301 -271.333 -10.166 -506.333 -20.499 -705s-25.166 -418 -44.499 -658c-2.66699 -30.667 -9.83398 -51.334 -21.501 -62.001s-32.834 -16 -63.501 -16h-10
c-30.667 0 -51.834 5.33301 -63.501 16s-18.834 31.334 -21.501 62.001c-38 456 -59.667 910.333 -65 1363l-2 174c-0.666992 45.333 7.16602 76.166 23.499 92.499s47.166 24.5 92.499 24.5zM441.006 355c52.667 0 97 -17.667 133 -53s54 -79.333 54 -132
s-18 -97.167 -54 -133.5s-80.333 -54.5 -133 -54.5s-97.667 18.333 -135 55s-56 81 -56 133s18.667 95.833 56 131.5s82.333 53.5 135 53.5z" />
    <glyph glyph-name="quotedbl" unicode="&#x22;" horiz-adv-x="1111" 
d="M671 2268c-0.666992 6 -1.66699 13.167 -3 21.5s-2.5 15.5 -3.5 21.5s-1.5 10.333 -1.5 13c0 48.667 14.5 85.834 43.5 111.501s63.833 38.5 104.5 38.5c40 0 74.5 -12.833 103.5 -38.5s43.5 -62.834 43.5 -111.501c0 -1.33301 -2.33301 -20 -7 -56l-75 -561
c-3.33301 -21.333 -9 -35.5 -17 -42.5s-22.333 -10.5 -43 -10.5h-10c-21.333 0 -36 3.5 -44 10.5s-13.667 21.167 -17 42.5zM441 2268l-75 -561c-3.33301 -21.333 -9 -35.5 -17 -42.5s-22.333 -10.5 -43 -10.5h-10c-21.333 0 -36 3.5 -44 10.5s-13.667 21.167 -17 42.5
l-75 561c-4.66699 36 -7 54.667 -7 56c0 48.667 14.5 85.834 43.5 111.501s63.833 38.5 104.5 38.5c40 0 74.5 -12.833 103.5 -38.5s43.5 -62.834 43.5 -111.501c0 -1.33301 -2.33301 -20 -7 -56z" />
    <glyph glyph-name="numbersign" unicode="#" horiz-adv-x="1931" 
d="M206 929h296l71 509h-279c-26 0 -43.667 4.66699 -53 14s-14 27 -14 53v97c0 26 4.66699 43.667 14 53s27 14 53 14h309l90 629c4 26.667 11 44.334 21 53.001s28.333 13 55 13h100c25.333 0 42.166 -4.66699 50.499 -14s10.833 -26.666 7.5 -51.999l-90 -629h421l89 629
c3.33301 26.667 10.166 44.334 20.499 53.001s28.833 13 55.5 13h100c25.333 0 42.166 -4.66699 50.499 -14s10.833 -26.666 7.5 -51.999l-89 -629h235c26 0 43.667 -4.66699 53 -14s14 -27 14 -53v-97c0 -26 -4.66699 -43.667 -14 -53s-27 -14 -53 -14h-266l-71 -509h242
c26 0 43.667 -4.66699 53 -14s14 -27 14 -53v-97c0 -26 -4.66699 -43.667 -14 -53s-27 -14 -53 -14h-276l-89 -632c-3.33301 -26.667 -10.166 -44.334 -20.499 -53.001s-28.833 -13 -55.5 -13h-100c-25.333 0 -42.166 4.66699 -50.499 14s-10.833 26.666 -7.5 51.999l89 632
h-420l-90 -632c-4 -26.667 -11 -44.334 -21 -53.001s-28.333 -13 -55 -13h-100c-25.333 0 -42.166 4.66699 -50.499 14s-10.833 26.666 -7.5 51.999l90 632h-262c-26 0 -43.667 4.66699 -53 14s-14 27 -14 53v97c0 26 4.66699 43.667 14 53s27 14 53 14zM1227 1438h-420
l-71 -509h420z" />
    <glyph glyph-name="dollar" unicode="$" horiz-adv-x="1872" 
d="M944 -360l-10 0.00195312c-40 0 -67.167 7.16699 -81.5 21.5s-21.5 41.5 -21.5 81.5v216c-69.333 4.66699 -134.833 16.334 -196.5 35.001s-116.5 42 -164.5 70s-92.333 61 -133 99s-75.834 78 -105.501 120s-55.834 87 -78.501 135c-11.333 24.667 -17 45 -17 61
c0 28 21 51 63 69l9 4c22.667 12 41.667 18 57 18c13.333 0 25.166 -4.66699 35.499 -14s21.833 -24.666 34.5 -45.999c58.667 -98.667 135 -176.834 229 -234.501s205.333 -86.5 334 -86.5c68.667 0 133.167 7.33301 193.5 22s115.833 36.834 166.5 66.501
s90.834 70.667 120.501 123s44.5 113.166 44.5 182.499c0 51.333 -7.33301 96.5 -22 135.5s-37 74.5 -67 106.5s-72.333 62 -127 90s-117 54.167 -187 78.5s-157.333 50.5 -262 78.5c-63.333 17.333 -121.333 37 -174 59s-104 50.5 -154 85.5s-92.167 74.333 -126.5 118
s-62 96.334 -83 158.001s-31.5 129.167 -31.5 202.5c0 76 11.5 146.167 34.5 210.5s54.833 120 95.5 167s89 87.833 145 122.5s116.5 62 181.5 82s134.167 33.667 207.5 41v221c0 39.333 7.16699 66 21.5 80s41.166 21 80.499 21h10c39.333 0 66 -7 80 -21
s21 -40.667 21 -80v-221c128 -14.667 243.333 -57.834 346 -129.501s181.334 -163.167 236.001 -274.5c10.667 -21.333 16 -39.333 16 -54c0 -14 -4.66699 -26.333 -14 -37s-25 -23 -47 -37l-8 -5c-22.667 -12.667 -41.334 -19 -56.001 -19c-22 0 -44.333 18.333 -67 55
c-52.667 86 -120.667 154.667 -204 206s-177 77 -281 77c-65.333 0 -126.166 -6.83301 -182.499 -20.5s-107.5 -34.5 -153.5 -62.5s-82.167 -66.333 -108.5 -115s-39.5 -105.334 -39.5 -170.001c0 -44.667 7.33301 -85.667 22 -123s33.5 -69 56.5 -95s52.333 -50 88 -72
s70.834 -40.167 105.501 -54.5s74.334 -28.166 119.001 -41.499c24 -7.33301 60 -18 108 -32c165.333 -47.333 285.333 -88.333 360 -123c159.333 -73.333 267.666 -171.333 324.999 -294c36.667 -78 55 -168.667 55 -272c0 -98 -17.667 -186.833 -53 -266.5
s-84.666 -146.334 -147.999 -200.001s-136.5 -96.834 -219.5 -129.501s-174.5 -54.334 -274.5 -65.001v-221c0 -40 -7.16699 -67.167 -21.5 -81.5s-41.5 -21.5 -81.5 -21.5z" />
    <glyph glyph-name="percent" unicode="%" horiz-adv-x="2736" 
d="M699 -87h-103c-30.667 0 -46 8 -46 24c0 8.66699 4 20 12 34l1365 2421c14 24.667 27 40.5 39 47.5s32.333 10.5 61 10.5h103c30.667 0 46 -8 46 -24c0 -8.66699 -4 -20 -12 -34l-1365 -2421c-14 -24.667 -27 -40.5 -39 -47.5s-32.333 -10.5 -61 -10.5zM639 2382
c72.667 0 138.333 -13.1729 197 -39.5059s107 -61.5 145 -105.5s69.833 -96.167 95.5 -156.5s44 -122.666 55 -186.999s16.5 -131.5 16.5 -201.5c0 -73.333 -4.66699 -142.166 -14 -206.499s-26.166 -127.666 -50.499 -189.999s-55.333 -115.666 -93 -159.999
s-86.834 -80.166 -147.501 -107.499s-129.667 -41 -207 -41c-78.667 0 -148.5 13.833 -209.5 41.5s-110.333 63.834 -148 108.501s-68.5 98.167 -92.5 160.5s-40.667 125 -50 188s-14 129.833 -14 200.5c0 69.333 4.83301 135.5 14.5 198.5s27 125.333 52 187
s56.5 115 94.5 160s87.5 81.333 148.5 109s130.167 41.5 207.5 41.5zM636.999 2221.99c-189.333 0 -284 -178 -284 -534c0 -360.667 95 -541 285 -541c36.667 0 69.667 7 99 21s53.5 31.667 72.5 53s35.5 48.333 49.5 81s24.667 64.167 32 94.5s13 65.333 17 105
s6.5 73 7.5 100s1.5 57.5 1.5 91.5c0 352.667 -93.333 529 -280 529zM2105 1376.99c72.667 0 138.334 -13.1729 197.001 -39.5059s107 -61.5 145 -105.5s69.833 -96.167 95.5 -156.5s44 -122.666 55 -186.999s16.5 -131.5 16.5 -201.5
c0 -73.333 -4.83301 -142.166 -14.5 -206.499s-26.667 -127.666 -51 -189.999s-55.333 -115.666 -93 -159.999s-86.834 -80.166 -147.501 -107.499s-129.667 -41 -207 -41c-78.667 0 -148.5 13.833 -209.5 41.5s-110.333 63.834 -148 108.501s-68.5 98.167 -92.5 160.5
s-40.667 125 -50 188s-14 129.833 -14 200.5c0 69.333 5 135.5 15 198.5s27.333 125.333 52 187s56.167 115 94.5 160s88 81.333 149 109s130.167 41.5 207.5 41.5zM2103 1216.99c-190 0 -285 -178 -285 -534c0 -360.667 95 -541 285 -541c36.667 0 69.667 7 99 21
s53.5 31.667 72.5 53s35.5 48.5 49.5 81.5s24.667 64.5 32 94.5s13 64.833 17 104.5s6.5 73 7.5 100s1.5 57.5 1.5 91.5c0 352.667 -93 529 -279 529z" />
    <glyph glyph-name="ampersand" unicode="&#x26;" horiz-adv-x="2315" 
d="M1946 1098c27.333 0 47 -3.83594 59 -11.5029s18 -20.5 18 -38.5c0 -12 -2.33301 -26 -7 -42c-53.333 -192 -122 -360.667 -206 -506c126 -138 263.667 -278 413 -420c24 -22.667 36 -40.667 36 -54c0 -17.333 -22.333 -26 -67 -26h-168
c-52.667 0 -90.167 4.5 -112.5 13.5s-52.166 31.5 -89.499 67.5c-68 67.333 -129.667 131.333 -185 192c-90.667 -99.333 -196 -175.833 -316 -229.5s-248 -80.5 -384 -80.5c-81.333 0 -160.833 9.16699 -238.5 27.5s-150.834 46.5 -219.501 84.5s-128.667 83.667 -180 137
s-92 117.5 -122 192.5s-45 156.167 -45 243.5c0 70.667 10.5 137.334 31.5 200.001s48.5 117.5 82.5 164.5s76 91.333 126 133s101 77.167 153 106.5s109.333 57.333 172 84c-154 187.333 -231 362.666 -231 525.999c0 82.667 16.5 158.334 49.5 227.001
s77.5 125.334 133.5 170.001s120.833 79.334 194.5 104.001s151.5 37 233.5 37c58.667 0 115 -6.33301 169 -19s104.667 -32.334 152 -59.001s88.5 -59 123.5 -97s62.667 -84.167 83 -138.5s30.5 -113.5 30.5 -177.5c0 -45.333 -5.83301 -88.5 -17.5 -129.5
s-26.667 -78 -45 -111s-42 -65.167 -71 -96.5s-58.167 -58.833 -87.5 -82.5s-63.666 -47.5 -102.999 -71.5s-75.166 -44.5 -107.499 -61.5s-69.5 -35.167 -111.5 -54.5c153.333 -190 344.333 -405 573 -645c67.333 126.667 118 243.334 152 350.001
c11.333 37.333 24.666 61.833 39.999 73.5s41.666 17.5 78.999 17.5h10zM960 173.997c57.333 0 112.831 7.49805 166.498 22.498s102.834 36.333 147.501 64s82.834 54.167 114.501 79.5s64.5 54.666 98.5 87.999c-78 80 -144.667 149.5 -200 208.5
s-125.5 137.667 -210.5 236s-167.833 199.5 -248.5 303.5c-42.667 -20 -81.667 -40.833 -117 -62.5s-70.833 -47.667 -106.5 -78s-65.667 -62.166 -90 -95.499s-44 -72.166 -59 -116.499s-22.5 -91.166 -22.5 -140.499c0 -94.667 23.5 -181.167 70.5 -259.5
s110.833 -139.5 191.5 -183.5s169 -66 265 -66zM760.998 1910c0 -61.333 17.999 -134.167 53.999 -218.5s84 -162.166 144 -233.499c31.333 14 58 26.5 80 37.5s48 25.333 78 43s55.5 34.667 76.5 51s42.833 36.333 65.5 60s40.834 48 54.501 73s25 53.667 34 86
s13.5 66.166 13.5 101.499c0 86 -26.833 156.667 -80.5 212s-123.5 83 -209.5 83c-83.333 0 -155.833 -26.5 -217.5 -79.5s-92.5 -124.833 -92.5 -215.5z" />
    <glyph glyph-name="quotesingle" unicode="'" horiz-adv-x="603" 
d="M235 1707l-74 561c-0.666992 6 -1.66699 13.167 -3 21.5s-2.5 15.5 -3.5 21.5s-1.5 10.333 -1.5 13c0 48.667 14.5 85.834 43.5 111.501s63.833 38.5 104.5 38.5c40 0 74.5 -12.833 103.5 -38.5s43.5 -62.834 43.5 -111.501c0 -1.33301 -2.33301 -20 -7 -56l-75 -561
c-3.33301 -21.333 -9 -35.5 -17 -42.5s-22.333 -10.5 -43 -10.5h-10c-21.333 0 -36 3.5 -44 10.5s-13.667 21.167 -17 42.5z" />
    <glyph glyph-name="parenleft" unicode="(" horiz-adv-x="984" 
d="M780 2431c34 -15.333 50.999 -32.998 50.999 -52.998c0 -12 -5.66699 -28.667 -17 -50c-108.667 -196.667 -193.167 -413.334 -253.5 -650.001s-90.5 -481 -90.5 -733c0 -229.333 29.833 -471.333 89.5 -726s144.167 -477.334 253.5 -668.001c12 -20 18 -36.667 18 -50
c0 -19.333 -17 -35.666 -51 -48.999l-10 -4c-24 -9.33301 -42.667 -14 -56 -14c-23.333 0 -47.333 16.333 -72 49c-143.333 188 -258.666 417 -345.999 687s-131 528.333 -131 775c0 253.333 42.5 511.666 127.5 774.999s201.5 490.333 349.5 681
c25.333 33.333 49.666 50 72.999 50c12.667 0 31.334 -5.33301 56.001 -16z" />
    <glyph glyph-name="parenright" unicode=")" horiz-adv-x="983" 
d="M204 -548c-34 14.667 -51 31.332 -51 49.999c0 10.667 6 27 18 49c108.667 190.667 192.834 413.334 252.501 668.001s89.5 496.667 89.5 726c0 252 -30.167 496.5 -90.5 733.5s-144.833 453.833 -253.5 650.5c-11.333 20.667 -17 37 -17 49c0 19.333 17.333 37 52 53
l9 4c23.333 10 42 15 56 15c22 0 45.667 -16 71 -48c148.667 -190.667 265.667 -417.667 351 -681s128 -522 128 -776c0 -247.333 -43.667 -506 -131 -776s-203.333 -499 -348 -687c-24.667 -32.667 -48.334 -49 -71.001 -49c-14 0 -32.667 5 -56 15z" />
    <glyph glyph-name="asterisk" unicode="*" horiz-adv-x="1551" 
d="M1059 2361l70.999 -39.999c22 -12.667 33 -25.667 33 -39c0 -10 -4.33301 -22.333 -13 -37l-207 -359h415c21.333 0 35.833 -3.83301 43.5 -11.5s11.5 -22.167 11.5 -43.5v-81c0 -21.333 -3.83301 -35.833 -11.5 -43.5s-22.167 -11.5 -43.5 -11.5h-415l207 -359
c8.66699 -14.667 13 -27 13 -37c0 -13.333 -11 -26.333 -33 -39l-71 -40c-16 -8.66699 -28 -13 -36 -13c-14 0 -27.333 11 -40 33l-207 360l-207 -360c-12.667 -22 -26 -33 -40 -33c-8 0 -20 4.33301 -36 13l-70 40c-22 13.333 -33 26.666 -33 39.999
c0 9.33301 4.33301 21.333 13 36l209 359h-417c-21.333 0 -35.833 3.83301 -43.5 11.5s-11.5 22.167 -11.5 43.5v81c0 21.333 3.83301 35.833 11.5 43.5s22.167 11.5 43.5 11.5h417l-209 359c-8.66699 14.667 -13 26.667 -13 36c0 12.667 11 25.667 33 39l70 40
c16 8.66699 28 13 36 13c14 0 27.333 -11 40 -33l207 -359l207 359c12.667 22 26.334 33 41.001 33c9.33301 0 21 -4 35 -12z" />
    <glyph glyph-name="plus" unicode="+" horiz-adv-x="1933" 
d="M1031 153h-131c-30.667 0 -51.334 5.33301 -62.001 16s-16 31.334 -16 62.001v623h-616c-30.667 0 -51.334 5.33301 -62.001 16s-16 31.334 -16 62.001v124c0 30.667 5.33301 51.334 16 62.001s31.334 16 62.001 16h616v619c0 30.667 5.33301 51.334 16 62.001
s31.334 16 62.001 16h131c30.667 0 51.334 -5.33301 62.001 -16s16 -31.334 16 -62.001v-619h619c30.667 0 51.334 -5.33301 62.001 -16s16 -31.334 16 -62.001v-124c0 -30.667 -5.33301 -51.334 -16 -62.001s-31.334 -16 -62.001 -16h-619v-623
c0 -30.667 -5.33301 -51.334 -16 -62.001s-31.334 -16 -62.001 -16z" />
    <glyph glyph-name="comma" unicode="," horiz-adv-x="762" 
d="M302 -1c-33.333 15.333 -60.168 38.333 -80.501 69s-30.5 64.667 -30.5 102c0 52 18.667 95.833 56 131.5s82.333 53.5 135 53.5c54 0 98.667 -19.5 134 -58.5s53 -92.167 53 -159.5c0 -52 -16.667 -118.333 -50 -199s-97.666 -206.667 -192.999 -378
c-12.667 -22.667 -24.667 -38 -36 -46s-26.666 -12 -45.999 -12c-4.66699 0 -14.334 0.666992 -29.001 2l-10 1c-36 4.66699 -54 16.667 -54 36c0 10.667 4 24 12 40c68.667 150.667 115 290 139 418z" />
    <glyph glyph-name="hyphen" unicode="-" horiz-adv-x="1298" 
d="M1002 769h-706c-26 0 -43.667 4.66699 -53 14s-14 27 -14 53v125c0 26 4.66699 43.667 14 53s27 14 53 14h706c26 0 43.667 -4.66699 53 -14s14 -27 14 -53v-125c0 -26 -4.66699 -43.667 -14 -53s-27 -14 -53 -14z" />
    <glyph glyph-name="period" unicode="." horiz-adv-x="760" 
d="M191 170c0 52 18.667 96.001 56 132.001s82.333 54 135 54s97 -17.833 133 -53.5s54 -79.834 54 -132.501s-18 -97.167 -54 -133.5s-80.333 -54.5 -133 -54.5s-97.667 18.333 -135 55s-56 81 -56 133z" />
    <glyph glyph-name="slash" unicode="/" horiz-adv-x="1445" 
d="M291 -272h-121c-40 0 -60 12 -60 36c0 8.66699 2.66699 21 8 37l907 2572c10.667 30 22.667 49.667 36 59s36 14 68 14h120c40 0 60 -12 60 -36c0 -8.66699 -2.66699 -21 -8 -37l-906 -2572c-10.667 -30 -22.667 -49.667 -36 -59s-36 -14 -68 -14z" />
    <glyph glyph-name="zero" unicode="0" horiz-adv-x="2087" 
d="M191 1143c0 82.667 4.16602 162.836 12.499 240.503s22.166 156.334 41.499 236.001s43.833 153.5 73.5 221.5s67.334 132.167 113.001 192.5s97.5 111.666 155.5 153.999s126.5 75.666 205.5 99.999s164.833 36.5 257.5 36.5c101.333 0 194.333 -15.5 279 -46.5
s157.334 -74.333 218.001 -130s113.667 -120.167 159 -193.5s81.666 -154.5 108.999 -243.5s47.5 -179.667 60.5 -272s19.5 -187.833 19.5 -286.5c0 -87.333 -4 -171 -12 -251s-21.5 -160.5 -40.5 -241.5s-43.167 -155.667 -72.5 -224s-66.5 -132.5 -111.5 -192.5
s-96.333 -110.667 -154 -152s-125.667 -74 -204 -98s-163.833 -36 -256.5 -36c-94 0 -180.667 12.167 -260 36.5s-147.666 57.5 -204.999 99.5s-108.666 93.167 -153.999 153.5s-82.5 124.666 -111.5 192.999s-52.833 142.666 -71.5 222.999s-31.834 159.5 -39.501 237.5
s-11.5 159 -11.5 243zM1577 1155c0 56.667 -1.3291 110.501 -3.99609 161.501s-8.33398 109.833 -17.001 176.5s-20.334 127.334 -35.001 182.001s-35.5 109.834 -62.5 165.501s-58.667 102.5 -95 140.5s-81.5 69 -135.5 93s-114.333 36 -181 36
c-68.667 0 -130.834 -12.333 -186.501 -37s-101.834 -56.334 -138.501 -95.001s-68.667 -86.5 -96 -143.5s-48.5 -113 -63.5 -168s-26.833 -116.5 -35.5 -184.5s-14.167 -127 -16.5 -177s-3.5 -103.333 -3.5 -160c0 -650 180 -975 540 -975c54.667 0 105 7.66699 151 23
s85.833 35.5 119.5 60.5s64 56.833 91 95.5s49.5 77.667 67.5 117s33.5 84.666 46.5 135.999s22.833 98.833 29.5 142.5s12 92.667 16 147s6.5 100.166 7.5 137.499s1.5 79.333 1.5 126z" />
    <glyph glyph-name="one" unicode="1" horiz-adv-x="1225" 
d="M588 117l-0.00195312 1790l-379 -229c-24 -14.667 -43.333 -22 -58 -22c-22 0 -43.333 17 -64 51l-5 8c-15.333 24.667 -23 44.667 -23 60c0 20.667 16.333 42.334 49 65.001l567 397c28.667 20 50.167 32.333 64.5 37s38.833 7 73.5 7h10
c29.333 0 49.333 -5.33301 60 -16s16 -30.667 16 -60v-2088c0 -45.333 -8.16699 -76.166 -24.5 -92.499s-47.166 -24.5 -92.499 -24.5h-77c-45.333 0 -76.166 8.16699 -92.499 24.5s-24.5 47.166 -24.5 92.499z" />
    <glyph glyph-name="two" unicode="2" horiz-adv-x="1880" 
d="M268 1676c-26.667 3.33301 -45.834 9.50098 -57.501 18.501s-17.5 22.5 -17.5 40.5c0 12.667 1.66699 25.334 5 38.001c30.667 124 81.834 227.833 153.501 311.5s156.167 144.5 253.5 182.5s207 57 329 57c99.333 0 192.666 -14.333 279.999 -43s164 -69.667 230 -123
s118 -120.833 156 -202.5s57 -172.167 57 -271.5c0 -50.667 -4.16699 -98.5 -12.5 -143.5s-21.833 -87.333 -40.5 -127s-37.667 -75.334 -57 -107.001s-45 -65.334 -77 -101.001s-60 -65.667 -84 -90s-55.833 -55.833 -95.5 -94.5s-71.5 -70.334 -95.5 -95.001l-662 -685
h1083c44.667 0 75 -8 91 -24s24 -46.333 24 -91v-10c0 -44.667 -8 -75.167 -24 -91.5s-46.333 -24.5 -91 -24.5h-1363c-39.333 0 -66.166 7.16699 -80.499 21.5s-21.5 41.166 -21.5 80.499v10c0 44.667 3.83301 76.667 11.5 96s27.167 45.333 58.5 78l826 867
c6 6.66699 15.333 16.334 28 29.001c80 83.333 135 147 165 191c62.667 90.667 94 189.334 94 296.001c0 126 -41 230.333 -123 313s-186.333 124 -313 124c-110.667 0 -211 -34 -301 -102s-157.667 -154 -203 -258c-14 -32.667 -28.333 -53.5 -43 -62.5
s-39 -11.833 -73 -8.5z" />
    <glyph glyph-name="three" unicode="3" horiz-adv-x="1935" 
d="M748 1211c0 38.667 7.17188 64.8271 21.5049 78.4941s41.833 20.5 82.5 20.5c56 0 108.667 5 158 15s95.166 25.667 137.499 47s78.666 47.5 108.999 78.5s54.166 69 71.499 114s26 94.833 26 149.5c0 114.667 -40 208.667 -120 282s-178 110 -294 110
c-120 0 -224 -28.167 -312 -84.5s-158 -133.5 -210 -231.5c-12.667 -23.333 -24.5 -39.666 -35.5 -48.999s-25.167 -14 -42.5 -14c-12 0 -27 2 -45 6l-9 2c-25.333 6.66699 -43.5 14.834 -54.5 24.501s-16.5 22.5 -16.5 38.5c0 12 3 26.667 9 44
c52 150 140.667 267.833 266 353.5s281 128.5 467 128.5c74 0 145.333 -7.66699 214 -23s133.167 -39.166 193.5 -71.499s112.833 -71.333 157.5 -117s80 -100.667 106 -165s39 -134.166 39 -209.499c0 -132 -42 -244.167 -126 -336.5s-191 -155.833 -321 -190.5l1 -2
c156.667 -16 284.834 -82.167 384.501 -198.5s149.5 -254.833 149.5 -415.5c0 -90 -15.5 -171.5 -46.5 -244.5s-72.5 -133.667 -124.5 -182s-113.5 -88.666 -184.5 -120.999s-145 -55.5 -222 -69.5s-157.833 -21 -242.5 -21c-185.333 0 -346.833 45 -484.5 135
s-233.834 211.667 -288.501 365c-6.66699 18 -10 33.667 -10 47c0 16 5.5 28.667 16.5 38s29.5 18 55.5 26l10 3c16.667 4.66699 32 7 46 7c17.333 0 31.666 -5 42.999 -15s23.666 -27 36.999 -51c56.667 -103.333 133.5 -184.666 230.5 -243.999s206.167 -89 327.5 -89
c56 0 109.167 5.16699 159.5 15.5s97.333 26.833 141 49.5s81.5 50.5 113.5 83.5s57.167 73.333 75.5 121s27.5 100.167 27.5 157.5c0 152 -54.167 272.5 -162.5 361.5s-250.5 133.5 -426.5 133.5c-38 0 -63.833 7 -77.5 21s-20.5 40.333 -20.5 79v10z" />
    <glyph glyph-name="four" unicode="4" horiz-adv-x="1900" 
d="M1782 683l-0.000976562 -10.002c0 -43.333 -7.66699 -72.666 -23 -87.999s-44.666 -23 -87.999 -23h-223v-445c0 -45.333 -8.16699 -76.166 -24.5 -92.499s-47.166 -24.5 -92.499 -24.5h-68c-45.333 0 -76.166 8.16699 -92.499 24.5s-24.5 47.166 -24.5 92.499v445h-990
c-34.667 0 -58.167 6.16699 -70.5 18.5s-18.5 35.833 -18.5 70.5v10c0 40 2.66699 68.5 8 85.5s19.333 42.167 42 75.5l938 1363c28.667 41.333 53.667 67.666 75 78.999s57.333 17 108 17h93c45.333 0 76.166 -8.16699 92.499 -24.5s24.5 -47.166 24.5 -92.499v-1370h223
c43.333 0 72.666 -7.66699 87.999 -23s23 -44.666 23 -87.999zM1147 793.998l3 1145l-775 -1145h772z" />
    <glyph glyph-name="five" unicode="5" horiz-adv-x="1862" 
d="M385 1109l-9.99805 -0.00195312c-44.667 0 -74.667 8.33301 -90 25s-21.333 47.334 -18 92.001l74 939c3.33301 45.333 13.666 76 30.999 92s49 24 95 24h1012c44 0 73.167 -7.83301 87.5 -23.5s21.5 -45.834 21.5 -90.501v-10c-2 -45.333 -11.333 -75.833 -28 -91.5
s-47.334 -23.5 -92.001 -23.5h-868l-50 -664c98.667 53.333 219.334 80 362.001 80c111.333 0 215.333 -18.167 312 -54.5s180.5 -87.166 251.5 -152.499s127 -146.5 168 -243.5s61.5 -203.167 61.5 -318.5c0 -118.667 -22.167 -225.167 -66.5 -319.5
s-105 -171.166 -182 -230.499s-165.5 -104.5 -265.5 -135.5s-207.333 -46.5 -322 -46.5c-168 0 -313.167 41.333 -435.5 124s-212.166 199.334 -269.499 350.001c-7.33301 20 -11 36 -11 48c0 15.333 5.5 27.833 16.5 37.5s28.833 18.5 53.5 26.5l9 3
c21.333 6.66699 37.333 10 48 10c16 0 29.667 -5.16699 41 -15.5s23.666 -27.166 36.999 -50.499c53.333 -92.667 125 -168.5 215 -227.5s189.667 -88.5 299 -88.5c153.333 0 277.333 47.667 372 143s142 217.666 142 366.999c0 165.333 -51.333 299.833 -154 403.5
s-242.334 155.5 -419.001 155.5c-84 0 -158 -20 -222 -60c-6 -4 -16.667 -10.833 -32 -20.5s-25 -15.667 -29 -18s-11.667 -6.5 -23 -12.5s-19.833 -9.66699 -25.5 -11s-14 -3.33301 -25 -6s-22 -4.33398 -33 -5.00098s-23.833 -1 -38.5 -1z" />
    <glyph glyph-name="six" unicode="6" horiz-adv-x="2037" 
d="M1874 705c0 -149.333 -36.8301 -281.328 -110.497 -395.995s-172.667 -202 -297 -262s-263.5 -90 -417.5 -90c-62 0 -120 3.66699 -174 11s-110.667 21.166 -170 41.499s-113 47.166 -161 80.499s-94.167 77.666 -138.5 132.999s-81.5 119.5 -111.5 192.5
s-54 161.5 -72 265.5s-27 219.667 -27 347c0 864 303 1296 909 1296c155.333 0 293.5 -38.333 414.5 -115s208.833 -184.667 263.5 -324c7.33301 -20 11 -35.667 11 -47c0 -15.333 -5.5 -27.5 -16.5 -36.5s-28.5 -17.167 -52.5 -24.5l-10 -3c-18 -5.33301 -32.667 -8 -44 -8
c-16 0 -29.667 5 -41 15s-24 26.667 -38 50c-48 82.667 -113.5 149.167 -196.5 199.5s-174.5 75.5 -274.5 75.5c-69.333 0 -132.833 -10.167 -190.5 -30.5s-107.334 -47.666 -149.001 -81.999s-78.667 -76 -111 -125s-58.5 -100.333 -78.5 -154s-36.5 -111.667 -49.5 -174
s-22 -122.5 -27 -180.5s-7.5 -117.333 -7.5 -178c28.667 32.667 58 61.667 88 87s68.667 52.166 116 80.499s103.166 50.5 167.499 66.5s134.166 24 209.499 24c108 0 210 -17.667 306 -53s179.333 -84.333 250 -147s126.667 -140.334 168 -233.001s62 -193.334 62 -302.001
zM1553 695.005c0 72 -11.8359 140 -35.5029 204s-56.667 119.833 -99 167.5s-95.166 85.334 -158.499 113.001s-132.666 41.5 -207.999 41.5c-147.333 0 -269.5 -49 -366.5 -147s-145.5 -222.667 -145.5 -374c0 -95.333 21.167 -182.833 63.5 -262.5
s102.833 -143.334 181.5 -191.001s167.667 -71.5 267 -71.5c102.667 0 192.334 23 269.001 69s134.5 108 173.5 186s58.5 166.333 58.5 265z" />
    <glyph glyph-name="seven" unicode="7" horiz-adv-x="1682" 
d="M1645 2207l0.00195312 -10.001c0 -34.667 -1.66699 -59 -5 -73s-13 -36.667 -29 -68c-360 -718 -658 -1367.33 -894 -1948c-18.667 -44.667 -38 -73.834 -58 -87.501s-54.333 -20.5 -103 -20.5h-102c-57.333 0 -86 16.667 -86 50c0 14.667 5 33.667 15 57
c219.333 510.667 530.666 1156.33 933.999 1937h-1132c-43.333 0 -72.333 7.83301 -87 23.5s-22 45.834 -22 90.501v10c0 43.333 8.66699 73 26 89s48.666 24 93.999 24h1375c28.667 0 48.167 -5.16699 58.5 -15.5s15.5 -29.833 15.5 -58.5z" />
    <glyph glyph-name="eight" unicode="8" horiz-adv-x="1993" 
d="M276 1725c0 82 14.166 157.003 42.499 225.003s66 124.667 113 170s102.167 83.666 165.5 114.999s129 54 197 68s138 21 210 21c73.333 0 144.333 -7.5 213 -22.5s133.667 -38.5 195 -70.5s115 -70.833 161 -116.5s82.333 -101.667 109 -168s40 -138.833 40 -217.5
c0 -119.333 -36.333 -224.333 -109 -315s-167.334 -153.667 -284.001 -189v-2c103.333 -24 192.333 -66.833 267 -128.5s129.834 -132.667 165.501 -213s53.5 -165.833 53.5 -256.5c0 -88.667 -14.667 -169.834 -44 -243.501s-69.5 -136.334 -120.5 -188.001
s-111 -95.5 -180 -131.5s-143.167 -62.5 -222.5 -79.5s-162.333 -25.5 -249 -25.5c-85.333 0 -167.5 8.16699 -246.5 24.5s-153.667 42.333 -224 78s-131.333 79.167 -183 130.5s-92.667 114 -123 188s-45.5 155.667 -45.5 245c0 68 10.5 133.333 31.5 196
s51.333 120.5 91 173.5s90.667 99.667 153 140s132.5 70.5 210.5 90.5v2c-113.333 36 -206.166 97.333 -278.499 184s-108.5 192 -108.5 316zM1494 639.003c0 144.667 -46.5 260 -139.5 346s-213.167 129 -360.5 129c-146 0 -265.667 -44.333 -359 -133
s-140 -204.667 -140 -348s46.667 -256.333 140 -339s214.333 -124 363 -124c150 0 270.167 41.333 360.5 124s135.5 197.667 135.5 345zM1417 1725c0 118.667 -38.666 212.834 -115.999 282.501s-177 104.5 -299 104.5c-124.667 0 -226.334 -35.833 -305.001 -107.5
s-118 -166.834 -118 -285.501c0 -117.333 39 -212.166 117 -284.499s179.333 -108.5 304 -108.5c124 0 224.5 36.167 301.5 108.5s115.5 169.166 115.5 290.499z" />
    <glyph glyph-name="nine" unicode="9" horiz-adv-x="2037" 
d="M163 1575c0 112.667 21.499 216.329 64.499 310.996s101.5 173.667 175.5 237s161.333 112.666 262 147.999s208.334 53 323.001 53c62 0 120 -3.66699 174 -11s110.667 -21.333 170 -42s113 -47.667 161 -81s94.167 -77.666 138.5 -132.999s81.5 -119.5 111.5 -192.5
s54 -161.667 72 -266s27 -220.166 27 -347.499c0 -862.667 -303 -1294 -909 -1294c-155.333 0 -293.5 38.333 -414.5 115s-208.833 184.334 -263.5 323.001c-7.33301 20 -11 35.667 -11 47c0 15.333 5.5 27.5 16.5 36.5s28.5 17.167 52.5 24.5l10 3
c18 5.33301 32.667 8 44 8c16 0 29.667 -5 41 -15s24 -26.667 38 -50c48 -82.667 113.5 -149.167 196.5 -199.5s174.5 -75.5 274.5 -75.5c69.333 0 132.833 10.167 190.5 30.5s107.334 47.666 149.001 81.999s78.667 75.833 111 124.5s58.5 99.834 78.5 153.501
s36.5 111.667 49.5 174s22 122.5 27 180.5s7.5 117.333 7.5 178c-22.667 -25.333 -44.834 -48.166 -66.501 -68.499s-50.667 -42.833 -87 -67.5s-74 -45.334 -113 -62.001s-85.833 -30.667 -140.5 -42s-112.667 -17 -174 -17c-108 0 -210 17.667 -306 53
s-179.333 84.333 -250 147s-126.667 140.334 -168 233.001s-62 193.334 -62 302.001zM984.999 2105c-154 0 -276 -48.834 -366 -146.501s-135 -221.834 -135 -372.501c0 -97.333 20 -185.666 60 -264.999s98.5 -142.833 175.5 -190.5s165.5 -71.5 265.5 -71.5
c147.333 0 269.5 49 366.5 147s145.5 222.667 145.5 374c0 95.333 -21.167 182.833 -63.5 262.5s-102.833 143.334 -181.5 191.001s-167.667 71.5 -267 71.5z" />
    <glyph glyph-name="colon" unicode=":" horiz-adv-x="837" 
d="M230 170c0 52 18.667 95.833 56 131.5s82.333 53.5 135 53.5s97 -17.667 133 -53s54 -79.333 54 -132s-18 -97.167 -54 -133.5s-80.333 -54.5 -133 -54.5s-97.667 18.333 -135 55s-56 81 -56 133zM230 1398c0 52 18.667 96.001 56 132.001s82.333 54 135 54
s97 -17.833 133 -53.5s54 -79.834 54 -132.501s-18 -97.167 -54 -133.5s-80.333 -54.5 -133 -54.5s-97.667 18.333 -135 55s-56 81 -56 133z" />
    <glyph glyph-name="semicolon" unicode=";" horiz-adv-x="895" 
d="M380 -1c-33.333 15.333 -60.168 38.333 -80.501 69s-30.5 64.667 -30.5 102c0 52 18.667 95.833 56 131.5s82.333 53.5 135 53.5c54 0 98.667 -19.5 134 -58.5s53 -92.167 53 -159.5c0 -52 -16.667 -118.333 -50 -199s-97.666 -206.667 -192.999 -378
c-12.667 -22.667 -24.667 -38 -36 -46s-26.666 -12 -45.999 -12c-4.66699 0 -14.334 0.666992 -29.001 2l-10 1c-36 4.66699 -54 16.667 -54 36c0 10.667 4 24 12 40c68.667 150.667 115 290 139 418zM646.998 1398c0 -52.667 -18 -97.167 -54 -133.5
s-80.333 -54.5 -133 -54.5s-97.667 18.333 -135 55s-56 81 -56 133s18.667 95.833 56 131.5s82.333 53.5 135 53.5s97 -17.667 133 -53s54 -79.333 54 -132z" />
    <glyph glyph-name="less" unicode="&#x3c;" horiz-adv-x="2039" 
d="M1722 137l-1531 684.997c-29.333 13.333 -48.5 26.833 -57.5 40.5s-13.5 36.834 -13.5 69.501v121c0 32.667 4.5 56 13.5 70s28.167 27.333 57.5 40l1531 684c16.667 7.33301 29.667 11 39 11c21.333 0 32 -19 32 -57v-145c0 -32.667 -4.5 -55.667 -13.5 -69
s-28.167 -26.666 -57.5 -39.999l-1268 -555l1268 -554c29.333 -13.333 48.5 -26.666 57.5 -39.999s13.5 -36.333 13.5 -69v-146c0 -38 -10.667 -57 -32 -57c-9.33301 0 -22.333 3.66699 -39 11z" />
    <glyph glyph-name="equal" unicode="=" horiz-adv-x="2164" 
d="M1843 495h-1522c-30.667 0 -51.334 5.33301 -62.001 16s-16 31.334 -16 62.001v125c0 30.667 5.33301 51.334 16 62.001s31.334 16 62.001 16h1522c30.667 0 51.334 -5.33301 62.001 -16s16 -31.334 16 -62.001v-125c0 -30.667 -5.33301 -51.334 -16 -62.001
s-31.334 -16 -62.001 -16zM243 1288v124c0 30.667 5.33301 51.334 16 62.001s31.334 16 62.001 16h1522c30.667 0 51.334 -5.33301 62.001 -16s16 -31.334 16 -62.001v-124c0 -30.667 -5.33301 -51.334 -16 -62.001s-31.334 -16 -62.001 -16h-1522
c-30.667 0 -51.334 5.33301 -62.001 16s-16 31.334 -16 62.001z" />
    <glyph glyph-name="greater" unicode="&#x3e;" horiz-adv-x="2040" 
d="M1586 992l-1268 555.002c-29.333 13.333 -48.5 26.666 -57.5 39.999s-13.5 36.333 -13.5 69v145c0 38 10.667 57 32 57c9.33301 0 22.333 -3.66699 39 -11l1531 -684c29.333 -12.667 48.5 -26 57.5 -40s13.5 -37.333 13.5 -70v-121c0 -32.667 -4.5 -56 -13.5 -70
s-28.167 -27.333 -57.5 -40l-1531 -685c-16.667 -7.33301 -29.667 -11 -39 -11c-21.333 0 -32 19 -32 57v146c0 32.667 4.5 55.667 13.5 69s28.167 26.666 57.5 39.999z" />
    <glyph glyph-name="question" unicode="?" horiz-adv-x="1621" 
d="M658 903c0 42 2.66992 80.667 8.00293 116s14.666 68.833 27.999 100.5s26.5 59 39.5 82s32.5 49.167 58.5 78.5s48.5 53.5 67.5 72.5s46.833 45.5 83.5 79.5c30.667 28.667 53.834 50.667 69.501 66s35.167 37 58.5 65s40.833 53.333 52.5 76s22 50.167 31 82.5
s13.5 65.833 13.5 100.5c0 106 -35.5 191.833 -106.5 257.5s-161.167 98.5 -270.5 98.5c-201.333 0 -350 -103.667 -446 -311c-12.667 -27.333 -25 -47 -37 -59s-27.333 -18 -46 -18c-14 0 -30.667 3.33301 -50 10l-9 3c-28.667 8 -49.334 17.333 -62.001 28
s-19 25.334 -19 44.001c0 14 3 30.333 9 49c46.667 152 128.5 270.5 245.5 355.5s264.167 127.5 441.5 127.5c70.667 0 138.667 -7.33301 204 -22s126.5 -37.667 183.5 -69s106.5 -69.166 148.5 -113.499s75.167 -98 99.5 -161s36.5 -131.833 36.5 -206.5
c0 -39.333 -3.33301 -76.666 -10 -111.999s-14.834 -67.166 -24.501 -95.499s-24.167 -57.333 -43.5 -87s-37 -54.834 -53 -75.501s-38.333 -44.834 -67 -72.501s-52.834 -50.167 -72.501 -67.5s-46.834 -40.666 -81.501 -69.999c-38 -32 -66.833 -57 -86.5 -75
s-40.667 -39.833 -63 -65.5s-38.666 -48.834 -48.999 -69.501s-21.5 -47.834 -33.5 -81.501s-21.5 -69.834 -28.5 -108.501s-14.5 -86.667 -22.5 -144c-4.66699 -31.333 -12.834 -52.333 -24.501 -63s-33.167 -16 -64.5 -16h-10c-31.333 0 -53.166 5.5 -65.499 16.5
s-19.833 31.833 -22.5 62.5c-6.66699 77.333 -10 141.333 -10 192zM947.003 170c0 -52.667 -18 -97.167 -54 -133.5s-80.333 -54.5 -133 -54.5s-97.667 18.333 -135 55s-56 81 -56 133s18.667 95.833 56 131.5s82.333 53.5 135 53.5s97 -17.667 133 -53s54 -79.333 54 -132z
" />
    <glyph glyph-name="at" unicode="@" horiz-adv-x="2741" 
d="M1751 1593l14 48.0029c6.66699 21.333 16.334 35.5 29.001 42.5s36.334 10.5 71.001 10.5h30c20.667 0 34.167 -4 40.5 -12s7.83301 -22.667 4.5 -44c-66.667 -388 -100 -620.333 -100 -697c0 -35.333 0.5 -64.833 1.5 -88.5s3.16699 -50.334 6.5 -80.001
s8.16602 -54.334 14.499 -74.001s15.166 -39.667 26.499 -60s25.166 -36.333 41.499 -48s36.666 -21.334 60.999 -29.001s52.166 -11.5 83.499 -11.5c46.667 0 89 15.5 127 46.5s68.5 70 91.5 117s42.333 100 58 159s26.5 114.667 32.5 167s9 101.166 9 146.499
c0 148 -22.667 283.833 -68 407.5s-110.166 230.167 -194.499 319.5s-189.5 158.833 -315.5 208.5s-266.333 74.5 -421 74.5c-123.333 0 -239.166 -20.667 -347.499 -62s-202.5 -98.166 -282.5 -170.499s-149 -156.666 -207 -252.999s-101.5 -200.5 -130.5 -312.5
s-43.5 -227.333 -43.5 -346c0 -120 14.5 -235.167 43.5 -345.5s72.333 -211.333 130 -303s126.667 -171.5 207 -239.5s174.5 -121 282.5 -159s224 -57 348 -57c128 0 236 8.33301 324 25c20.667 4 35.5 3 44.5 -3s15.167 -19.333 18.5 -40l13 -73
c4 -21.333 3 -36.666 -3 -45.999s-19.667 -16.333 -41 -21c-98 -20 -218.667 -30 -362 -30c-149.333 0 -289.166 21.833 -419.499 65.5s-244.333 105 -342 184s-181.667 172.333 -252 280s-123.333 227 -159 358s-53.5 268.5 -53.5 412.5
c0 119.333 12.833 235.666 38.5 348.999s62.334 219.833 110.001 319.5s107.5 191.167 179.5 274.5s152.5 154.833 241.5 214.5s189.667 106.167 302 139.5s230.5 50 354.5 50c180 0 346.5 -28.667 499.5 -86s283.167 -137.333 390.5 -240s191.166 -227.167 251.499 -373.5
s90.5 -305.833 90.5 -478.5c0 -80.667 -7.83301 -161 -23.5 -241s-40.667 -157.667 -75 -233s-75.833 -141.833 -124.5 -199.5s-108.334 -103.834 -179.001 -138.501s-148 -52 -232 -52c-111.333 0 -198 32.167 -260 96.5s-93 153.5 -93 267.5l-2 1
c-56.667 -124.667 -121.667 -216.667 -195 -276s-157.666 -89 -252.999 -89c-52.667 0 -100.167 10.833 -142.5 32.5s-77.166 50 -104.499 85s-50.333 76 -69 123s-31.834 94.833 -39.501 143.5s-11.5 98.334 -11.5 149.001c0 79.333 8.83301 158.166 26.5 236.499
s45 153.5 82 225.5s81.167 135.667 132.5 191s113.333 99.5 186 132.5s151 49.5 235 49.5c66.667 0 121.667 -10.667 165 -32s79.333 -57.333 108 -108zM1259 562.003c46.667 0 91.335 14.834 134.002 44.501s79.5 69.167 110.5 118.5s59.333 105.166 85 167.499
s46.334 127.333 62.001 195s27.667 133.167 36 196.5s12.5 121.666 12.5 174.999c-42.667 52.667 -112 79 -208 79c-59.333 0 -114.5 -13 -165.5 -39s-93.833 -60.5 -128.5 -103.5s-64.5 -91.833 -89.5 -146.5s-43.333 -110.667 -55 -168s-17.5 -113.666 -17.5 -168.999
c0 -44 3.66699 -85.5 11 -124.5s19.166 -76 35.499 -111s39.666 -62.833 69.999 -83.5s66.166 -31 107.499 -31z" />
    <glyph glyph-name="A" unicode="A" horiz-adv-x="2280" 
d="M169 0h-61c-56.667 0 -85 16 -85 48c0 15.333 5.33301 34.666 16 57.999l989 2186c13.333 30 27.166 49.5 41.499 58.5s38.166 13.5 71.499 13.5h10c32.667 0 56 -4.5 70 -13.5s27.667 -28.833 41 -59.5l969 -2184c10.667 -25.333 16 -44.666 16 -57.999
c0 -32.667 -28.667 -49 -86 -49h-112c-48.667 0 -83.167 6.66699 -103.5 20s-40.166 42.333 -59.499 87l-234 545h-1087l-233 -545c-19.333 -44.667 -39.166 -73.667 -59.499 -87s-54.833 -20 -103.5 -20zM660 869h898l-441 1073z" />
    <glyph glyph-name="B" unicode="B" horiz-adv-x="2103" 
d="M432 2364l672.998 0.00585938c66.667 0 133.167 -7 199.5 -21s130.5 -36 192.5 -66s116.667 -66.333 164 -109s85.333 -95.167 114 -157.5s43 -130.5 43 -204.5c0 -60.667 -14.5 -122.5 -43.5 -185.5s-66.167 -119.333 -111.5 -169s-96.666 -92.334 -153.999 -128.001
s-113.666 -58.167 -168.999 -67.5v-2c60.667 0 120.667 -8.5 180 -25.5s115 -42.167 167 -75.5s97.833 -72.833 137.5 -118.5s71 -99.334 94 -161.001s34.5 -127.167 34.5 -196.5c0 -108.667 -22.667 -206.834 -68 -294.501s-106.166 -158.834 -182.499 -213.501
s-162.833 -96.5 -259.5 -125.5s-198.334 -43.5 -305.001 -43.5h-706c-45.333 0 -76.166 8.16699 -92.499 24.5s-24.5 47.166 -24.5 92.499v2130c0 45.333 8.16699 76.166 24.5 92.499s47.166 24.5 92.499 24.5zM1495 1771.01c0 252 -173.999 377.999 -521.999 377.999h-348
v-822l310 9c46 1.33301 90.167 5.33301 132.5 12s85.166 16.5 128.499 29.5s82.5 30.833 117.5 53.5s66.333 49.334 94 80.001s49.167 68.167 64.5 112.5s23 93.5 23 147.5zM935.999 1137l-311 5v-927h433c56.667 0 111.5 5.16699 164.5 15.5s104.167 27.333 153.5 51
s92.333 52.667 129 87s66 77.333 88 129s33 109.167 33 172.5c0 55.333 -7.5 105.666 -22.5 150.999s-34.833 83.833 -59.5 115.5s-55.5 59.5 -92.5 83.5s-74.833 43 -113.5 57s-82.167 25.5 -130.5 34.5s-93.5 15.333 -135.5 19s-87.333 5.83398 -136 6.50098z" />
    <glyph glyph-name="C" unicode="C" horiz-adv-x="2349" 
d="M2189 438c-87.333 -153.333 -203.837 -271.835 -349.504 -355.502s-317.167 -125.5 -514.5 -125.5c-141.333 0 -273.666 20.333 -396.999 61s-231.166 98 -323.499 172s-171.666 161.333 -237.999 262s-116.333 212.5 -150 335.5s-50.5 252.5 -50.5 388.5s17 266 51 390
s84.333 237 151 339s146.5 190.5 239.5 265.5s201.833 133.167 326.5 174.5s259 62 403 62c185.333 0 348.333 -40 489 -120s250 -191.667 328 -335c12.667 -22.667 19 -42.334 19 -59.001c0 -26 -20.667 -48.333 -62 -67l-9 -4c-28.667 -12 -49.334 -18 -62.001 -18
c-22.667 0 -47.667 17.667 -75 53c-75.333 98.667 -165.833 176.5 -271.5 233.5s-220.5 85.5 -344.5 85.5c-112 0 -215 -18 -309 -54s-174 -85.167 -240 -147.5s-122.167 -135.666 -168.5 -219.999s-80.333 -174.666 -102 -270.999s-32.5 -196.833 -32.5 -301.5
c0 -104 11.333 -204.5 34 -301.5s57.334 -187.667 104.001 -272s103.334 -157.666 170.001 -219.999s146.667 -111.5 240 -147.5s195 -54 305 -54c134.667 0 258.5 30.167 371.5 90.5s209.833 144.5 290.5 252.5c26 34.667 50 52 72 52c14 0 33 -6.33301 57 -19l9 -5
c38.667 -22 58 -44 58 -66c0 -12.667 -6.33301 -30.667 -19 -54z" />
    <glyph glyph-name="D" unicode="D" horiz-adv-x="2525" 
d="M1130 0h-698c-45.333 0 -76.166 8.16699 -92.499 24.5s-24.5 47.166 -24.5 92.499v2130c0 45.333 8.16699 76.166 24.5 92.499s47.166 24.5 92.499 24.5h720c153.333 0 294.833 -19.5 424.5 -58.5s242 -94 337 -165s176 -155.333 243 -253s117 -205.667 150 -324
s49.5 -244.166 49.5 -377.499c0 -170 -28 -327.667 -84 -473s-135.667 -270.666 -239 -375.999s-232.333 -187.833 -387 -247.5s-326.667 -89.5 -516 -89.5zM1062 2148h-435v-1934h470c191.333 0 357.333 39.833 498 119.5s247.5 191.334 320.5 335.001
s109.5 311.167 109.5 502.5c0 71.333 -4.83301 140.166 -14.5 206.499s-25.667 132.5 -48 198.5s-50.5 127 -84.5 183s-76.833 108.167 -128.5 156.5s-110 89.5 -175 123.5s-141 60.667 -228 80s-181.833 29 -284.5 29z" />
    <glyph glyph-name="E" unicode="E" horiz-adv-x="1965" 
d="M1688 0l-1256 0.00195312c-45.333 0 -76.166 8.16699 -92.499 24.5s-24.5 47.166 -24.5 92.499v2130c0 45.333 8.16699 76.166 24.5 92.499s47.166 24.5 92.499 24.5h1237c40.667 0 68.167 -7.16699 82.5 -21.5s21.5 -41.833 21.5 -82.5v-10
c0 -40.667 -7.16699 -68.334 -21.5 -83.001s-41.833 -22 -82.5 -22h-1044v-807h936c39.333 0 66.166 -7.16699 80.499 -21.5s21.5 -41.166 21.5 -80.499v-10c0 -40 -7.16699 -67.167 -21.5 -81.5s-41.166 -21.5 -80.499 -21.5h-936v-906h1063
c40 0 67.167 -7.16699 81.5 -21.5s21.5 -41.5 21.5 -81.5v-10c0 -40.667 -7.16699 -68.167 -21.5 -82.5s-41.5 -21.5 -81.5 -21.5z" />
    <glyph glyph-name="F" unicode="F" horiz-adv-x="1874" 
d="M1650 1212l-0.000976562 -9.99609c0 -40.667 -7.16699 -68.334 -21.5 -83.001s-41.833 -22 -82.5 -22h-916v-980c0 -45.333 -8.16699 -76.166 -24.5 -92.499s-47.166 -24.5 -92.499 -24.5h-81c-45.333 0 -76.166 8.16699 -92.499 24.5s-24.5 47.166 -24.5 92.499v2130
c0 45.333 8.16699 76.166 24.5 92.499s47.166 24.5 92.499 24.5h1230c40.667 0 68.334 -7.33301 83.001 -22s22 -42.334 22 -83.001v-10c0 -40.667 -7.33301 -68.334 -22 -83.001s-42.334 -22 -83.001 -22h-1032v-828h916c40.667 0 68.167 -7.16699 82.5 -21.5
s21.5 -41.833 21.5 -82.5z" />
    <glyph glyph-name="G" unicode="G" horiz-adv-x="2476" 
d="M1484 1050l0.000976562 10.002c0 42.667 7.5 71.5 22.5 86.5s43.833 22.5 86.5 22.5h564c45.333 0 76.166 -8.16699 92.499 -24.5s24.5 -47.166 24.5 -92.499v-751c0 -50 -6.5 -85.5 -19.5 -106.5s-41.833 -41.5 -86.5 -61.5c-264.667 -117.333 -532.667 -176 -804 -176
c-176.667 0 -339.834 29.167 -489.501 87.5s-276.667 140 -381 245s-185.833 232.5 -244.5 382.5s-88 314 -88 492c0 108 12 213.5 36 316.5s58.833 200.667 104.5 293s103.334 177.166 173.001 254.499s148.167 144.166 235.5 200.499s186.833 100.166 298.5 131.499
s230.167 47 355.5 47c176 0 336.833 -36.167 482.5 -108.5s258.834 -174.5 339.501 -306.5c14 -22.667 21 -41.667 21 -57c0 -22 -18.333 -44.333 -55 -67l-8 -5c-24.667 -15.333 -44.334 -23 -59.001 -23c-20 0 -43.667 15.667 -71 47
c-78 90.667 -170.333 161.5 -277 212.5s-221.334 76.5 -344.001 76.5c-136 0 -260.167 -24.833 -372.5 -74.5s-206.833 -118.334 -283.5 -206.001s-136 -192.834 -178 -315.501s-63 -256 -63 -400c0 -105.333 11.833 -206.833 35.5 -304.5s60 -189.167 109 -274.5
s108.333 -159.666 178 -222.999s153.834 -113.166 252.501 -149.499s206 -54.5 322 -54.5c189.333 0 381.333 42.667 576 128v639h-376c-42.667 0 -71.5 7.5 -86.5 22.5s-22.5 43.833 -22.5 86.5z" />
    <glyph glyph-name="H" unicode="H" horiz-adv-x="2501" 
d="M626 1121v-1004c0 -45.333 -8.16699 -76.166 -24.5 -92.499s-47.166 -24.5 -92.499 -24.5h-77c-45.333 0 -76.166 8.16699 -92.499 24.5s-24.5 47.166 -24.5 92.499v2130c0 45.333 8.16699 76.166 24.5 92.499s47.166 24.5 92.499 24.5h77
c45.333 0 76.166 -8.16699 92.499 -24.5s24.5 -47.166 24.5 -92.499v-907h1248v907c0 45.333 8.16699 76.166 24.5 92.499s47.166 24.5 92.499 24.5h78c45.333 0 76.166 -8.16699 92.499 -24.5s24.5 -47.166 24.5 -92.499v-2130c0 -45.333 -8.16699 -76.166 -24.5 -92.499
s-47.166 -24.5 -92.499 -24.5h-78c-45.333 0 -76.166 8.16699 -92.499 24.5s-24.5 47.166 -24.5 92.499v1004h-1248z" />
    <glyph glyph-name="I" unicode="I" horiz-adv-x="940" 
d="M508 0h-76c-45.333 0 -76.166 8.16699 -92.499 24.5s-24.5 47.166 -24.5 92.499v2130c0 45.333 8.16699 76.166 24.5 92.499s47.166 24.5 92.499 24.5h76c45.333 0 76.166 -8.16699 92.499 -24.5s24.5 -47.166 24.5 -92.499v-2130
c0 -45.333 -8.16699 -76.166 -24.5 -92.499s-47.166 -24.5 -92.499 -24.5z" />
    <glyph glyph-name="J" unicode="J" horiz-adv-x="1558" 
d="M1077 2364l74.002 0.000976562c45.333 0 76.166 -8.16699 92.499 -24.5s24.5 -47.166 24.5 -92.499v-1532c0 -114.667 -15 -217.334 -45 -308.001s-68.167 -163.5 -114.5 -218.5s-100.833 -100.5 -163.5 -136.5s-123.5 -60.833 -182.5 -74.5s-119.167 -20.5 -180.5 -20.5
c-122.667 0 -228 31 -316 93s-154.667 147 -200 255c-8.66699 22 -13 38.333 -13 49c0 13.333 4.33301 25 13 35s23.334 21.333 44.001 34l8 5c19.333 11.333 35 17 47 17c18.667 0 38.667 -16.667 60 -50c34 -53.333 81.667 -97.333 143 -132s135 -52 221 -52
c58 0 109.667 12.833 155 38.5s81.166 57.667 107.499 96s48 82.666 65 132.999s28.5 97.333 34.5 141s9 86.834 9 129.501v1498c0 45.333 8.16699 76.166 24.5 92.499s47.166 24.5 92.499 24.5z" />
    <glyph glyph-name="K" unicode="K" horiz-adv-x="2134" 
d="M1683 85l-1058 1112v-1080c0 -45.333 -8.16699 -76.166 -24.5 -92.499s-47.166 -24.5 -92.499 -24.5h-76c-45.333 0 -76.166 8.16699 -92.499 24.5s-24.5 47.166 -24.5 92.499v2130c0 45.333 8.16699 76.166 24.5 92.499s47.166 24.5 92.499 24.5h76
c45.333 0 76.166 -8.16699 92.499 -24.5s24.5 -47.166 24.5 -92.499v-943l998 978c36.667 36.667 66.167 59.5 88.5 68.5s59.5 13.5 111.5 13.5h127c44.667 0 67 -9.33301 67 -28c0 -13.333 -11.333 -31 -34 -53l-1017 -989l1139 -1209c21.333 -22 32 -40.333 32 -55
c0 -20 -23 -30 -69 -30h-188c-52 -0 -89 4.83301 -111 14.5s-50.667 33.167 -86 70.5z" />
    <glyph glyph-name="L" unicode="L" horiz-adv-x="1798" 
d="M628 219l1012 0.00195312c40.667 0 68.167 -7.16699 82.5 -21.5s21.5 -41.833 21.5 -82.5v-10c0 -40.667 -7.16699 -68.334 -21.5 -83.001s-41.833 -22 -82.5 -22h-1208c-45.333 0 -76.166 8.16699 -92.499 24.5s-24.5 47.166 -24.5 92.499v2130
c0 45.333 8.16699 76.166 24.5 92.499s47.166 24.5 92.499 24.5h79c45.333 0 76.166 -8.16699 92.499 -24.5s24.5 -47.166 24.5 -92.499v-2028z" />
    <glyph glyph-name="M" unicode="M" horiz-adv-x="3022" 
d="M622 1877l-116.999 -1752c-3.33301 -49.333 -14.166 -82.5 -32.499 -99.5s-51.833 -25.5 -100.5 -25.5h-10c-48 0 -80 8.83301 -96 26.5s-22.333 50.5 -19 98.5l165 2123c3.33301 45.333 13.666 76 30.999 92s49 24 95 24h63c48.667 0 83.167 -6.66699 103.5 -20
s40.166 -42.333 59.499 -87l755 -1784l751 1783c18.667 45.333 38.167 74.666 58.5 87.999s54.833 20 103.5 20h55c46 0 77.833 -8 95.5 -24s28.167 -46.667 31.5 -92l174 -2132c3.33301 -44.667 -2.66699 -75.167 -18 -91.5s-45.333 -24.5 -90 -24.5h-78
c-46 0 -77.667 8 -95 24s-27.333 46.667 -30 92l-118 1760l-748 -1801c-13.333 -31.333 -27 -51.666 -41 -60.999s-37.667 -14 -71 -14h-10c-33.333 0 -57 4.66699 -71 14s-27.667 29.666 -41 60.999z" />
    <glyph glyph-name="N" unicode="N" horiz-adv-x="2604" 
d="M2023 530l-0.000976562 1706c0 49.333 9 83 27 101s51.667 27 101 27h10c49.333 0 83 -9 101 -27s27 -51.667 27 -101v-2130c0 -41.333 -7.5 -69.333 -22.5 -84s-42.833 -22 -83.5 -22h-10c-46 0 -78.833 4.83301 -98.5 14.5s-43.5 32.834 -71.5 69.501l-1422 1861v-1817
c0 -49.333 -9 -83 -27 -101s-51.667 -27 -101 -27h-10c-49.333 0 -83 9 -101 27s-27 51.667 -27 101v2119c0 45.333 8.16699 76.166 24.5 92.499s47.166 24.5 92.499 24.5h85c50.667 0 86.834 -5.33301 108.501 -16s47.834 -36.334 78.501 -77.001z" />
    <glyph glyph-name="O" unicode="O" horiz-adv-x="2683" 
d="M165 1179c0 180 28.668 346.166 86.001 498.499s137.166 282 239.499 389s227 190.5 374 250.5s307.5 90 481.5 90c170.667 0 329 -30.5 475 -91.5s269.833 -145 371.5 -252s181.334 -236 239.001 -387s86.5 -314.167 86.5 -489.5
c0 -177.333 -27.833 -341.666 -83.5 -492.999s-133.667 -281.333 -234 -390s-223.833 -193.667 -370.5 -255s-308 -92 -484 -92s-337.833 30.5 -485.5 91.5s-272.334 145.167 -374.001 252.5s-180.667 236.5 -237 387.5s-84.5 314.5 -84.5 490.5zM2187 1188
c0 108.667 -11.8291 212.663 -35.4961 311.996s-59.334 190.666 -107.001 273.999s-104.834 155.833 -171.501 217.5s-145.334 109.834 -236.001 144.501s-188.667 52 -294 52c-128 0 -245.5 -26.167 -352.5 -78.5s-196.333 -123.666 -268 -213.999
s-127.334 -196.666 -167.001 -318.999s-59.5 -253.166 -59.5 -392.499c0 -137.333 18.833 -266.666 56.5 -387.999s91.5 -228.333 161.5 -321s159.333 -166 268 -220s229.667 -81 363 -81c108 0 208 18 300 54s170.833 85.5 236.5 148.5s121.667 137.167 168 222.5
s80.833 177.833 103.5 277.5s34 203.5 34 311.5z" />
    <glyph glyph-name="P" unicode="P" horiz-adv-x="1963" 
d="M509 0l-77.0029 0.000976562c-45.333 0 -76.166 8.16699 -92.499 24.5s-24.5 47.166 -24.5 92.499v2130c0 45.333 8.16699 76.166 24.5 92.499s47.166 24.5 92.499 24.5h668c112 0 214.667 -13.833 308 -41.5s174.833 -68.167 244.5 -121.5s124 -121.666 163 -204.999
s58.5 -177.666 58.5 -282.999c0 -92 -15.667 -177.833 -47 -257.5s-73.666 -147.834 -126.999 -204.501s-115.166 -105.334 -185.499 -146.001s-145 -70.667 -224 -90s-159.167 -28.333 -240.5 -27l-424 5v-876c0 -45.333 -8.16699 -76.166 -24.5 -92.499
s-47.166 -24.5 -92.499 -24.5zM625.997 1178l199.001 -0.00292969c73.333 0 143.666 5.5 210.999 16.5s132.333 29.5 195 55.5s117 58.333 163 97s82.833 87.834 110.5 147.501s41.5 126.834 41.5 201.501c0 132.667 -47 241.334 -141 326.001s-217.333 127 -370 127h-409
v-971z" />
    <glyph glyph-name="Q" unicode="Q" horiz-adv-x="2687" 
d="M2437 -563l-57.002 0.00292969c-135.333 0 -253.166 7.83301 -353.499 23.5s-196.5 43.167 -288.5 82.5s-176.5 92.833 -253.5 160.5s-152.833 153.167 -227.5 256.5c-217.333 14 -408.666 74.667 -573.999 182s-292.333 250.666 -381 429.999s-133 381.666 -133 606.999
c0 180 28.667 346.167 86 498.5s137.166 282 239.499 389s227 190.5 374 250.5s307.5 90 481.5 90c170.667 0 329 -30.5 475 -91.5s269.833 -145 371.5 -252s181.334 -236 239.001 -387s86.5 -314.167 86.5 -489.5c0 -305.333 -78.333 -565.833 -235 -781.5
s-370 -354.5 -640 -416.5c102 -138.667 210 -235.834 324 -291.501s269.333 -87.5 466 -95.5c29.333 -1.33301 49.333 -7.33301 60 -18s16 -31 16 -61v-10c0 -29.333 -5.33301 -49.333 -16 -60s-30.667 -16 -60 -16zM499.998 1184
c0 -137.333 18.8369 -266.67 56.5039 -388.003s91.5 -228.333 161.5 -321s159.333 -166 268 -220s229.667 -81 363 -81c108 0 208 18 300 54s170.833 85.5 236.5 148.5s121.667 137.167 168 222.5s80.833 177.833 103.5 277.5s34 203.5 34 311.5
c0 108.667 -11.833 212.667 -35.5 312s-59.334 190.666 -107.001 273.999s-104.834 155.833 -171.501 217.5s-145.334 109.834 -236.001 144.501s-188.667 52 -294 52c-128 0 -245.5 -26.167 -352.5 -78.5s-196.333 -123.666 -268 -213.999
s-127.334 -196.666 -167.001 -318.999s-59.5 -253.166 -59.5 -392.499z" />
    <glyph glyph-name="R" unicode="R" horiz-adv-x="2066" 
d="M1839 0h-99.001c-48 -0 -81.833 6.83301 -101.5 20.5s-38.167 43.167 -55.5 88.5c-72.667 193.333 -151.834 366.166 -237.501 518.499s-190.5 299.833 -314.5 442.5c-60 -4.66699 -125 -7 -195 -7h-40l-171 3v-949c0 -45.333 -8.16699 -76.166 -24.5 -92.499
s-47.166 -24.5 -92.499 -24.5h-76c-45.333 0 -76.166 8.16699 -92.499 24.5s-24.5 47.166 -24.5 92.499v2130c0 45.333 8.16699 76.166 24.5 92.499s47.166 24.5 92.499 24.5h642c86 0 166.5 -6.66699 241.5 -20s145.833 -35.5 212.5 -66.5s123.834 -69.833 171.501 -116.5
s85.334 -105.167 113.001 -175.5s41.5 -149.5 41.5 -237.5c0 -104 -24.167 -200.5 -72.5 -289.5s-113 -162.167 -194 -219.5s-171.5 -96.666 -271.5 -117.999c64 -61.333 122.5 -125.166 175.5 -191.499s97.667 -128 134 -185s73.166 -125 110.499 -204s67.5 -147 90.5 -204
s52.5 -132.833 88.5 -227.5c8.66699 -21.333 13 -40 13 -56c0 -18.667 -7.16699 -32.167 -21.5 -40.5s-36.833 -12.5 -67.5 -12.5zM1015 2149l-390.001 0.000976562v-898c62.667 0 120.334 1.16699 173.001 3.5s111 7.66602 175 15.999s121.167 19.5 171.5 33.5
s100.333 33.333 150 58s91 53.667 124 87s59.667 74.5 80 123.5s30.5 103.833 30.5 164.5c0 84 -24.5 158 -73.5 222s-112 111.667 -189 143s-160.833 47 -251.5 47z" />
    <glyph glyph-name="S" unicode="S" horiz-adv-x="1914" 
d="M521 1774c0 -44.667 7.33105 -85.834 21.998 -123.501s33.5 -69.5 56.5 -95.5s52.333 -50 88 -72s70.834 -40.167 105.501 -54.5s74.334 -28.166 119.001 -41.499c24 -7.33301 60 -18 108 -32c165.333 -47.333 285.333 -88.333 360 -123
c159.333 -73.333 267.666 -171.333 324.999 -294c36.667 -78 55 -168.667 55 -272c0 -88 -14.333 -170.167 -43 -246.5s-68.834 -142.5 -120.501 -198.5s-112.5 -104 -182.5 -144s-147 -70 -231 -90s-172 -30 -264 -30c-96 0 -185.167 12.167 -267.5 36.5
s-153.666 58.333 -213.999 102s-112.333 92.167 -156 145.5s-80.834 112.333 -111.501 177c-11.333 24.667 -17 44.334 -17 59.001c0 27.333 21.667 50.666 65 69.999l9 4c23.333 10.667 42.666 16 57.999 16c13.333 0 25 -4.33301 35 -13s21 -23.334 33 -44.001
c58.667 -98.667 135 -176.834 229 -234.501s205.333 -86.5 334 -86.5c67.333 0 131.833 9.33301 193.5 28s117.5 45.667 167.5 81s89.833 81.166 119.5 137.499s44.5 119.5 44.5 189.5c0 51.333 -7.33301 96.333 -22 135s-37 74 -67 106s-72.333 62 -127 90
s-117 54.167 -187 78.5s-157.333 50.5 -262 78.5c-63.333 17.333 -121.333 37 -174 59s-104 50.5 -154 85.5s-92.167 74.333 -126.5 118s-62 96.334 -83 158.001s-31.5 129.167 -31.5 202.5c0 84 14 162.333 42 235s66.5 135.334 115.5 188.001s106.5 97.834 172.5 135.501
s137.333 65.834 214 84.501s156.334 28 239.001 28c148 0 282.333 -37 403 -111s211.667 -174 273 -300c10.667 -21.333 16 -39.333 16 -54c0 -14 -4.66699 -26.333 -14 -37s-25 -23 -47 -37l-8 -5c-20.667 -13.333 -39 -20 -55 -20c-21.333 0 -43.666 18.667 -66.999 56
c-52.667 86 -120.667 154.667 -204 206s-177.333 77 -282 77c-64 0 -124.667 -8.83301 -182 -26.5s-108.666 -43.167 -153.999 -76.5s-81.333 -76.333 -108 -129s-40 -111.334 -40 -176.001z" />
    <glyph glyph-name="T" unicode="T" horiz-adv-x="1944" 
d="M817 117l-0.00195312 2025h-659c-41.333 0 -69.333 7.33301 -84 22s-22 42.667 -22 84v10c0 41.333 7.33301 69.333 22 84s42.667 22 84 22h1630c41.333 0 69.333 -7.33301 84 -22s22 -42.667 22 -84v-10c0 -41.333 -7.33301 -69.333 -22 -84s-42.667 -22 -84 -22h-657
v-2025c0 -45.333 -8.16699 -76.166 -24.5 -92.499s-47.166 -24.5 -92.499 -24.5h-80c-45.333 0 -76.166 8.16699 -92.499 24.5s-24.5 47.166 -24.5 92.499z" />
    <glyph glyph-name="U" unicode="U" horiz-adv-x="2431" 
d="M287 804l0.00390625 1443c0 45.333 8.16699 76.166 24.5 92.499s47.166 24.5 92.499 24.5h76c45.333 0 76.166 -8.16699 92.499 -24.5s24.5 -47.166 24.5 -92.499v-1366c0 -224 51.167 -397.5 153.5 -520.5s260.833 -184.5 475.5 -184.5c211.333 0 371 60.833 479 182.5
s162 291.5 162 509.5v1363c0 51.333 9.33301 86.333 28 105s53.667 28 105 28h10c51.333 0 86.333 -9.33301 105 -28s28 -53.667 28 -105v-1411c0 -144 -21.5 -271 -64.5 -381s-104.833 -200.167 -185.5 -270.5s-177.334 -123.166 -290.001 -158.499
s-240.334 -53 -383.001 -53c-190 0 -354.333 31.5 -493 94.5s-246.667 158.5 -324 286.5s-116 283.333 -116 466z" />
    <glyph glyph-name="V" unicode="V" horiz-adv-x="2181" 
d="M386 2256l734.004 -1801l738 1801c18.667 44.667 38 73.834 58 87.501s54.333 20.5 103 20.5h57c57.333 0 86 -16.667 86 -50c0 -14.667 -5 -33.667 -15 -57l-931 -2175c-14.667 -34 -29.834 -56.167 -45.501 -66.5s-41.834 -15.5 -78.501 -15.5h-10
c-36.667 0 -62.834 5.16699 -78.501 15.5s-30.834 32.5 -45.501 66.5l-918 2174c-10 22.667 -15 41.667 -15 57c0 34 29 51 87 51h113c48.667 0 83 -6.83301 103 -20.5s39.333 -42.834 58 -87.501z" />
    <glyph glyph-name="W" unicode="W" horiz-adv-x="3183" 
d="M1591 1858l-587.001 -1768c-12.667 -37.333 -27 -61.666 -43 -72.999s-43.333 -17 -82 -17h-10c-39.333 0 -66.833 5.83301 -82.5 17.5s-29.167 36.167 -40.5 73.5l-665 2161c-6.66699 23.333 -10 41 -10 53c0 20.667 7.5 35.667 22.5 45s38.5 14 70.5 14h105
c47.333 0 80.666 -7.33301 99.999 -22s35.333 -44.667 48 -90l491 -1757l587 1784c11.333 34.667 24.5 57.5 39.5 68.5s41.167 16.5 78.5 16.5h10c37.333 0 63.5 -5.5 78.5 -16.5s28.167 -34.167 39.5 -69.5l575 -1787l514 1746c15.333 52 33.833 86.167 55.5 102.5
s59.5 24.5 113.5 24.5h10c36 0 62.333 -5.16699 79 -15.5s25 -27.166 25 -50.499c0 -14.667 -3.66699 -34.667 -11 -60l-670 -2146c-11.333 -37.333 -25.166 -62 -41.499 -74s-44.166 -18 -83.499 -18h-10c-40 -0 -68 5.83301 -84 17.5s-30.333 36.5 -43 74.5z" />
    <glyph glyph-name="X" unicode="X" horiz-adv-x="2135" 
d="M224 0h-84.998c-50 -0 -75 12.333 -75 37c0 14 8.66699 33.333 26 58l793 1115l-745 1059c-17.333 24.667 -26 44 -26 58c0 24.667 25.333 37 76 37h146c50.667 0 86.667 -5.66699 108 -17s46.333 -37.666 75 -78.999l570 -823l570 823
c28.667 41.333 53.667 67.666 75 78.999s57.333 17 108 17h89c50 0 75 -12.333 75 -37c0 -14 -8.66699 -33.333 -26 -58l-728 -1019l806 -1154c17.333 -25.333 26 -45 26 -59c0 -24.667 -25.333 -37 -76 -37h-151c-50.667 0 -86.667 5.66699 -108 17
s-46.333 37.666 -75 78.999l-626 917l-638 -917c-28.667 -41.333 -53.834 -67.666 -75.501 -78.999s-57.834 -17 -108.501 -17z" />
    <glyph glyph-name="Y" unicode="Y" horiz-adv-x="2031" 
d="M1038 1212l671.997 1054c26.667 42 50.834 68.833 72.501 80.5s57.5 17.5 107.5 17.5h66c52 0 78 -13 78 -39c0 -15.333 -8 -35 -24 -59l-842 -1305v-844c0 -45.333 -8.16699 -76.166 -24.5 -92.499s-47.166 -24.5 -92.499 -24.5h-79
c-45.333 0 -76.166 8.16699 -92.499 24.5s-24.5 47.166 -24.5 92.499v843l-814 1305c-15.333 24.667 -23 44.334 -23 59.001c0 26.667 26 40 78 40h126c50 0 85.667 -6 107 -18s45 -39.333 71 -82z" />
    <glyph glyph-name="Z" unicode="Z" horiz-adv-x="2079" 
d="M294 2364l1569 -0.000976562c27.333 0 45.833 -5 55.5 -15s14.5 -28.333 14.5 -55v-10c0 -32 -2.16699 -54.833 -6.5 -68.5s-15.833 -33.5 -34.5 -59.5l-1380 -1934h1336c41.333 0 69.333 -7.33301 84 -22s22 -42.667 22 -84v-10c0 -41.333 -7.33301 -69.333 -22 -84
s-42.667 -22 -84 -22h-1683c-28.667 0 -48 5 -58 15s-15 29.333 -15 58v10c0 32.667 2.16699 55.834 6.5 69.501s16.166 34.167 35.499 61.5l1383 1928h-1223c-41.333 0 -69.333 7.33301 -84 22s-22 42.667 -22 84v10c0 41.333 7.33301 69.333 22 84s42.667 22 84 22z" />
    <glyph glyph-name="bracketleft" unicode="[" horiz-adv-x="972" 
d="M781 -558h-381c-45.333 0 -76.166 8.16699 -92.499 24.5s-24.5 47.166 -24.5 92.499v2767c0 45.333 8.16699 76.166 24.5 92.499s47.166 24.5 92.499 24.5h381c33.333 0 56.166 -6.16699 68.499 -18.5s18.5 -35.166 18.5 -68.499v-10c0 -34 -6.16699 -57.167 -18.5 -69.5
s-35.166 -18.5 -68.499 -18.5h-231v-2631h231c33.333 0 56.166 -6.16699 68.499 -18.5s18.5 -35.5 18.5 -69.5v-10c0 -33.333 -6.16699 -56.166 -18.5 -68.499s-35.166 -18.5 -68.499 -18.5z" />
    <glyph glyph-name="backslash" unicode="\" horiz-adv-x="1445" 
d="M1275 -272h-121c-32 0 -54.667 4.66699 -68 14s-25.333 29 -36 59l-906 2572c-5.33301 16 -8 28.333 -8 37c0 24 20 36 60 36h120c32 0 54.667 -4.66699 68 -14s25.333 -29 36 -59l907 -2572c5.33301 -16 8 -28.333 8 -37c0 -24 -20 -36 -60 -36z" />
    <glyph glyph-name="bracketright" unicode="]" horiz-adv-x="971" 
d="M103 -471v10c0 34 6.16699 57.167 18.5 69.5s35.5 18.5 69.5 18.5h231v2631h-231c-34 0 -57.167 6.16699 -69.5 18.5s-18.5 35.5 -18.5 69.5v10c0 33.333 6.16699 56.166 18.5 68.499s35.5 18.5 69.5 18.5h380c45.333 0 76.166 -8.16699 92.499 -24.5
s24.5 -47.166 24.5 -92.499v-2767c0 -45.333 -8.16699 -76.166 -24.5 -92.499s-47.166 -24.5 -92.499 -24.5h-380c-34 0 -57.167 6.16699 -69.5 18.5s-18.5 35.166 -18.5 68.499z" />
    <glyph glyph-name="asciicircum" unicode="^" horiz-adv-x="1643" 
d="M130 1125l523 1178c11.333 25.333 22.833 41.833 34.5 49.5s31.5 11.5 59.5 11.5h149c28 0 47.833 -3.83301 59.5 -11.5s23.167 -24.167 34.5 -49.5l523 -1178c6 -12.667 9 -23.667 9 -33c0 -18.667 -16.333 -28 -49 -28h-154c-28 0 -48 3.83301 -60 11.5
s-23.333 24.167 -34 49.5l-403 920l-404 -920c-10.667 -25.333 -22 -41.833 -34 -49.5s-32 -11.5 -60 -11.5h-154c-32.667 0 -49 9.33301 -49 28c0 9.33301 3 20.333 9 33z" />
    <glyph glyph-name="underscore" unicode="_" horiz-adv-x="1772" 
d="M41 -474v167h1690v-167h-1690z" />
    <glyph glyph-name="grave" unicode="`" horiz-adv-x="809" 
d="M655 1914l-99.999 -0.000976562c-29.333 0 -50.333 2.83301 -63 8.5s-28.334 19.834 -47.001 42.501l-358 420c-11.333 14.667 -17 25.667 -17 33c0 12 13.667 18 41 18h225c28.667 0 49.167 -3.33301 61.5 -10s25.833 -22.334 40.5 -47.001l249 -408
c8.66699 -15.333 13 -26.666 13 -33.999c0 -15.333 -15 -23 -45 -23z" />
    <glyph glyph-name="a" unicode="a" horiz-adv-x="1756" 
d="M1229 105l0.00195312 151.001h-2c-130.667 -195.333 -301 -293 -511 -293c-80 0 -155.167 11 -225.5 33s-132.333 53.5 -186 94.5s-96 93.333 -127 157s-46.5 134.5 -46.5 212.5c0 84 16.333 158.833 49 224.5s75.167 118.667 127.5 159s114.833 73.666 187.5 99.999
s145.667 44.666 219 54.999s150.666 15.5 231.999 15.5c89.333 0 183.666 -6.66699 282.999 -20v64c0 118.667 -33 214.167 -99 286.5s-164.333 108.5 -295 108.5c-77.333 0 -153.5 -17.667 -228.5 -53s-141.167 -83.333 -198.5 -144c-25.333 -26 -46.666 -39 -63.999 -39
c-14.667 0 -32 5.66699 -52 17l-9 5c-32.667 18 -49 37 -49 57c0 12.667 6 29 18 49c62.667 102 148.667 182.5 258 241.5s229 88.5 359 88.5c120.667 0 223.334 -15.167 308.001 -45.5s151.667 -75.666 201 -135.999s85 -131.333 107 -213s33 -178.5 33 -290.5v-885
c0 -40.667 -7.33301 -68.334 -22 -83.001s-42.334 -22 -83.001 -22h-79c-40.667 0 -68.334 7.33301 -83.001 22s-22 42.334 -22 83.001zM1229 798.001c-110 15.333 -210.667 23.001 -302 23.001c-47.333 0 -92.666 -3.16699 -135.999 -9.5s-87 -17.5 -131 -33.5
s-82 -36.333 -114 -61s-58 -57.334 -78 -98.001s-30 -86.667 -30 -138c0 -100 33.5 -177.333 100.5 -232s151.5 -82 253.5 -82c36 0 73.667 6.16699 113 18.5s78.166 31.5 116.499 57.5s73 56.5 104 91.5s56 77.5 75 127.5s28.5 103.333 28.5 160v176z" />
    <glyph glyph-name="b" unicode="b" horiz-adv-x="2003" 
d="M545 2333l0.000976562 -937c148 186 332.333 279 553 279c116.667 0 223.167 -23 319.5 -69s175.5 -108.167 237.5 -186.5s109.833 -168 143.5 -269s50.5 -207.833 50.5 -320.5c0 -90 -10.333 -177.167 -31 -261.5s-52 -163.166 -94 -236.499s-92.5 -137.333 -151.5 -192
s-129.333 -97.834 -211 -129.501s-169.834 -47.5 -264.501 -47.5c-115.333 0 -220.5 26 -315.5 78s-173.167 126.667 -234.5 224l-2 -1v-159c0 -40.667 -7.33301 -68.334 -22 -83.001s-42.334 -22 -83.001 -22h-78c-40.667 0 -68.334 7.33301 -83.001 22
s-22 42.334 -22 83.001v2228c0 40.667 7.33301 68.334 22 83.001s42.334 22 83.001 22h78c40.667 0 68.334 -7.33301 83.001 -22s22 -42.334 22 -83.001zM1033 1465c-87.333 0 -168.501 -20.332 -243.501 -60.999s-134.5 -95.5 -178.5 -164.5s-66 -143.5 -66 -223.5v-385
c0 -70.667 14.667 -135.5 44 -194.5s67.5 -107 114.5 -144s98 -65.667 153 -86s109.833 -30.5 164.5 -30.5c68 0 130.667 11.667 188 35s105.833 55 145.5 95s73.334 87.167 101.001 141.5s48 112.166 61 173.499s19.5 125 19.5 191c0 70 -5.83301 136.5 -17.5 199.5
s-30.5 122.333 -56.5 178s-58.167 103.667 -96.5 144s-85.833 72.333 -142.5 96s-120 35.5 -190 35.5z" />
    <glyph glyph-name="c" unicode="c" horiz-adv-x="1751" 
d="M1585 325c-58 -116 -140.498 -205.329 -247.498 -267.996s-234.167 -94 -381.5 -94c-122.667 0 -234.5 20.833 -335.5 62.5s-185.5 99.667 -253.5 174s-120.667 163.166 -158 266.499s-56 216.333 -56 339c0 123.333 19 238.166 57 344.499s91.667 198.333 161 276
s155.666 138.667 258.999 183s217.666 66.5 342.999 66.5c141.333 0 263.5 -30.333 366.5 -91s184.5 -147.334 244.5 -260.001c12 -22 18 -40 18 -54c0 -22.667 -19.333 -44.334 -58 -65.001l-9 -5c-20.667 -12 -38 -18 -52 -18c-20.667 0 -42.667 17.667 -66 53
c-98.667 152 -237.667 228 -417 228c-160.667 0 -290.5 -57.167 -389.5 -171.5s-148.5 -270.5 -148.5 -468.5c0 -86 11.5 -167 34.5 -243s56.167 -143.833 99.5 -203.5s99.5 -107 168.5 -142s146.5 -52.5 232.5 -52.5c92 0 175.667 20.167 251 60.5s139 97.5 191 171.5
c20 28 38.667 42 56 42c12.667 0 28.667 -6 48 -18l8 -5c32.667 -20.667 49 -40.667 49 -60c0 -12.667 -5 -28.667 -15 -48z" />
    <glyph glyph-name="d" unicode="d" horiz-adv-x="2002" 
d="M1745 2333l0.00195312 -2228c0 -40.667 -7.33301 -68.334 -22 -83.001s-42.334 -22 -83.001 -22h-79c-40.667 0 -68.334 7.33301 -83.001 22s-22 42.334 -22 83.001v159l-2 1c-60.667 -97.333 -138.334 -172 -233.001 -224s-200 -78 -316 -78
c-94.667 0 -182.834 15.833 -264.501 47.5s-152 74.834 -211 129.501s-109.5 118.667 -151.5 192s-73.333 152.166 -94 236.499s-31 171.5 -31 261.5c0 112.667 16.833 219.5 50.5 320.5s81.5 190.667 143.5 269s141.167 140.5 237.5 186.5s202.833 69 319.5 69
c221.333 0 405.333 -93 552 -279v937c0 40.667 7.33301 68.334 22 83.001s42.334 22 83.001 22h79c40.667 0 68.334 -7.33301 83.001 -22s22 -42.334 22 -83.001zM1456 1016c0 122 -47.832 227.332 -143.499 315.999s-210.167 133 -343.5 133
c-70 0 -133.333 -11.833 -190 -35.5s-104.334 -55.667 -143.001 -96s-71 -88.333 -97 -144s-44.833 -115 -56.5 -178s-17.5 -129.5 -17.5 -199.5c0 -66 6.5 -129.667 19.5 -191s33.5 -119.166 61.5 -173.499s61.833 -101.5 101.5 -141.5s88 -71.667 145 -95
s119.5 -35 187.5 -35c54.667 0 109.667 10.167 165 30.5s106.333 49 153 86s84.667 85 114 144s44 123.833 44 194.5v385z" />
    <glyph glyph-name="e" unicode="e" horiz-adv-x="1869" 
d="M1658 347c-144.667 -256 -372.666 -384 -683.999 -384c-125.333 0 -239.666 21.5 -342.999 64.5s-189.833 102.333 -259.5 178s-123.5 165.667 -161.5 270s-57 217.5 -57 339.5c0 166.667 34 315.167 102 445.5s164.333 232 289 305s267.667 109.5 429 109.5
c35.333 0 70.666 -1.83301 105.999 -5.5s77.666 -12.167 126.999 -25.5s95.666 -31 138.999 -53s87.833 -53 133.5 -93s85.334 -86.667 119.001 -140s62.667 -120.166 87 -200.499s39.5 -169.5 45.5 -267.5c2.66699 -40 -3.5 -67.333 -18.5 -82s-42.833 -22 -83.5 -22h-1167
c0 -33.333 3 -67.833 9 -103.5s15.667 -73.334 29 -113.001s30 -77.667 50 -114s45 -71 75 -104s63.5 -61.833 100.5 -86.5s80.5 -44.167 130.5 -58.5s103.667 -21.5 161 -21.5c198 0 361.667 82 491 246c23.333 29.333 44 44 62 44c12.667 0 29 -6 49 -18l8 -5
c32.667 -18 49 -36.667 49 -56c0 -12 -5.66699 -28.333 -17 -49zM463.001 977l972.001 -0.000976562c0 40 -4.66699 80.833 -14 122.5s-25.5 84.667 -48.5 129s-51.667 83.666 -86 117.999s-79.333 62.666 -135 84.999s-117.834 33.5 -186.501 33.5
c-56 0 -108 -7.5 -156 -22.5s-88.667 -34.5 -122 -58.5s-63.5 -51.667 -90.5 -83s-48.5 -62.666 -64.5 -93.999s-29.5 -62.666 -40.5 -93.999s-18.5 -58.166 -22.5 -80.499s-6 -40.833 -6 -55.5z" />
    <glyph glyph-name="f" unicode="f" horiz-adv-x="1087" 
d="M546 0h-79.998c-40.667 -0 -68.334 7.33301 -83.001 22s-22 42.334 -22 83.001v1337h-190c-36 0 -60.5 6.5 -73.5 19.5s-19.5 37.5 -19.5 73.5v10c0 36 6.5 60.5 19.5 73.5s37.5 19.5 73.5 19.5h190v266c0 182 44.333 322.5 133 421.5s218 148.5 388 148.5
c66.667 0 130.667 -15 192 -45c20.667 -10 35.167 -20 43.5 -30s12.5 -22.333 12.5 -37c0 -10.667 -2.66699 -25.667 -8 -45l-3 -10c-5.33301 -20 -12 -34.167 -20 -42.5s-18.333 -12.5 -31 -12.5c-10 0 -23.667 2.66699 -41 8c-41.333 12.667 -80.333 19 -117 19
c-49.333 0 -91.333 -7.66699 -126 -23s-61.5 -37.333 -80.5 -66s-32.5 -60.5 -40.5 -95.5s-12 -74.833 -12 -119.5v-337h270c36 0 60.5 -6.5 73.5 -19.5s19.5 -37.5 19.5 -73.5v-10c0 -36 -6.5 -60.5 -19.5 -73.5s-37.5 -19.5 -73.5 -19.5h-270v-1337
c0 -40.667 -7.33301 -68.334 -22 -83.001s-42.334 -22 -83.001 -22z" />
    <glyph glyph-name="g" unicode="g" horiz-adv-x="1971" 
d="M1714 1533l0.00585938 -1425c0 -142 -14.667 -266.5 -44 -373.5s-75.166 -199.5 -137.499 -277.5s-145.5 -137.167 -249.5 -177.5s-228 -60.5 -372 -60.5c-49.333 0 -97 3 -143 9s-95.333 17.167 -148 33.5s-101.334 37.666 -146.001 63.999s-88.334 61.333 -131.001 105
s-79 94.167 -109 151.5c-12 22 -18 40.667 -18 56c0 24 18.667 47.333 56 70l8 5c22 14 40.333 21 55 21c19.333 0 41 -16.333 65 -49c56.667 -79.333 129.167 -141.5 217.5 -186.5s182.833 -67.5 283.5 -67.5c84 0 157.5 12.167 220.5 36.5s113.667 56.666 152 96.999
s69.166 90.5 92.499 150.5s39.166 121.333 47.499 184s12.5 133 12.5 211v184c-23.333 -30 -46.666 -57 -69.999 -81s-51.833 -48.833 -85.5 -74.5s-68.334 -47.167 -104.001 -64.5s-77.334 -31.5 -125.001 -42.5s-97.834 -16.5 -150.501 -16.5c-117.333 0 -223 21 -317 63
s-171 99.833 -231 173.5s-105.833 159 -137.5 256s-47.5 201.833 -47.5 314.5c0 90 9.66699 176.667 29 260s49.166 161 89.499 233s89.166 134.667 146.499 188s126.166 95.333 206.499 126s167.833 46 262.5 46c228 0 405.333 -100.667 532 -302l2 1v159
c0 40.667 7.33301 68.334 22 83.001s42.334 22 83.001 22h78c40.667 0 68.334 -7.33301 83.001 -22s22 -42.334 22 -83.001zM1426.01 1008c0 70 -13.8301 134.503 -41.4971 193.503s-63.834 107.167 -108.501 144.5s-93.834 66.166 -147.501 86.499
s-107.834 30.5 -162.501 30.5c-84.667 0 -159.5 -16.167 -224.5 -48.5s-117 -77 -156 -134s-68.333 -121.333 -88 -193s-29.5 -149.167 -29.5 -232.5c0 -70.667 5.33301 -136.334 16 -197.001s28.167 -117.667 52.5 -171s55 -98.833 92 -136.5s83.167 -67.334 138.5 -89.001
s118 -32.5 188 -32.5c132 0 243.5 44 334.5 132s136.5 194 136.5 318v329z" />
    <glyph glyph-name="h" unicode="h" horiz-adv-x="1887" 
d="M257 105v2228c0 40.667 7.33301 68.334 22 83.001s42.334 22 83.001 22h80c40.667 0 68.334 -7.33301 83.001 -22s22 -42.334 22 -83.001v-961l2 -1c60 93.333 138.5 167.333 235.5 222s203.167 82 318.5 82c65.333 0 124.333 -6.83301 177 -20.5
s97.834 -32.167 135.501 -55.5s70.5 -53.166 98.5 -89.499s50.5 -74.5 67.5 -114.5s30.667 -86.333 41 -139s17.333 -104.5 21 -155.5s5.5 -107.833 5.5 -170.5v-825c0 -40.667 -7.33301 -68.334 -22 -83.001s-42.334 -22 -83.001 -22h-80
c-40.667 0 -68.334 7.33301 -83.001 22s-22 42.334 -22 83.001v911c0 71.333 -5.66699 132.166 -17 182.499s-30.166 94.333 -56.499 132s-62.5 65.667 -108.5 84s-102.333 27.5 -169 27.5c-78.667 0 -153.5 -20.667 -224.5 -62s-128.167 -97.166 -171.5 -167.499
s-65 -145.5 -65 -225.5v-882c0 -40.667 -7.33301 -68.334 -22 -83.001s-42.334 -22 -83.001 -22h-80c-40.667 0 -68.334 7.33301 -83.001 22s-22 42.334 -22 83.001z" />
    <glyph glyph-name="i" unicode="i" horiz-adv-x="805" 
d="M443 0h-81c-40.667 -0 -68.334 7.33301 -83.001 22s-22 42.334 -22 83.001v1428c0 40.667 7.33301 68.334 22 83.001s42.334 22 83.001 22h81c40.667 0 68.334 -7.33301 83.001 -22s22 -42.334 22 -83.001v-1428c0 -40.667 -7.33301 -68.334 -22 -83.001
s-42.334 -22 -83.001 -22zM403 2289c52.667 0 97 -17.667 133 -53s54 -79.333 54 -132s-18 -97.334 -54 -134.001s-80.333 -55 -133 -55s-97.667 18.333 -135 55s-56 81.334 -56 134.001c0 52 18.667 95.833 56 131.5s82.333 53.5 135 53.5z" />
    <glyph glyph-name="j" unicode="j" horiz-adv-x="808" 
d="M362 1638l83.9951 0.00292969c40.667 0 68.334 -7.33301 83.001 -22s22 -42.334 22 -83.001v-1693c0 -212.667 -37.667 -366.334 -113 -461.001s-202.666 -147.334 -381.999 -158.001c-32 -2 -53.833 3 -65.5 15s-17.5 34 -17.5 66v10c0 32 5.5 53.667 16.5 65
s32.833 20.333 65.5 27c26.667 5.33301 50.334 13.166 71.001 23.499s38.167 22 52.5 35s26.333 29.5 36 49.5s17.334 39.333 23.001 58s10 42.167 13 70.5s4.83301 54 5.5 77s1 52.167 1 87.5v1728c0 40.667 7.33301 68.334 22 83.001s42.334 22 83.001 22zM403.995 2289
c52.667 0 97 -17.667 133 -53s54 -79.333 54 -132s-18 -97.334 -54 -134.001s-80.333 -55 -133 -55s-97.667 18.333 -135 55s-56 81.334 -56 134.001c0 52 18.667 95.833 56 131.5s82.333 53.5 135 53.5z" />
    <glyph glyph-name="k" unicode="k" horiz-adv-x="1719" 
d="M1252 78l-705 774.999v-748c0 -40.667 -7.33301 -68.334 -22 -83.001s-42.334 -22 -83.001 -22h-80c-40.667 0 -68.334 7.33301 -83.001 22s-22 42.334 -22 83.001v2228c0 40.667 7.33301 68.334 22 83.001s42.334 22 83.001 22h80c40.667 0 68.334 -7.33301 83.001 -22
s22 -42.334 22 -83.001v-1396l668 629c34.667 32.667 61.834 52.834 81.501 60.501s53.167 11.5 100.5 11.5h128c40 0 60 -8 60 -24c0 -11.333 -10.667 -27 -32 -47l-688 -638l781 -852c18.667 -20.667 28 -37.334 28 -50.001c0 -18 -20.667 -27 -62 -27h-184
c-46.667 0 -79.834 4.33301 -99.501 13s-45.167 30.334 -76.5 65.001z" />
    <glyph glyph-name="l" unicode="l" horiz-adv-x="898" 
d="M364 2438l79.9971 -0.00488281c40.667 0 68.334 -7.33301 83.001 -22s22 -42.334 22 -83.001v-1770c0 -35.333 0.333008 -64.666 1 -87.999s2.5 -49.5 5.5 -78.5s7.16699 -53.167 12.5 -72.5s13 -39.5 23 -60.5s22 -38.333 36 -52s31.333 -26 52 -37
s44.334 -19.5 71.001 -25.5c33.333 -7.33301 55.5 -16.666 66.5 -27.999s16.5 -32.666 16.5 -63.999v-10c0 -32.667 -5.83301 -55 -17.5 -67s-33.5 -17 -65.5 -15c-178.667 10.667 -305.167 63.334 -379.5 158.001s-111.5 248.334 -111.5 461.001v1749
c0 40.667 7.33301 68.334 22 83.001s42.334 22 83.001 22z" />
    <glyph glyph-name="m" unicode="m" horiz-adv-x="2873" 
d="M1301 105l0.00488281 911c0 57.333 -2.83301 107.166 -8.5 149.499s-15.834 81.5 -30.501 117.5s-34 65.333 -58 88s-54.833 40.167 -92.5 52.5s-81.834 18.5 -132.501 18.5c-74 0 -144.333 -20.667 -211 -62s-120.167 -97.333 -160.5 -168s-60.5 -145.667 -60.5 -225
v-882c0 -40.667 -7.33301 -68.334 -22 -83.001s-42.334 -22 -83.001 -22h-80c-40.667 0 -68.334 7.33301 -83.001 22s-22 42.334 -22 83.001v1428c0 40.667 7.33301 68.334 22 83.001s42.334 22 83.001 22h80c40.667 0 68.334 -7.33301 83.001 -22s22 -42.334 22 -83.001
v-162l2 -1c60 94.667 135.5 169.167 226.5 223.5s190.5 81.5 298.5 81.5c135.333 0 240.333 -28.833 315 -86.5s127.334 -139.834 158.001 -246.501c54.667 100 131.5 180.5 230.5 241.5s212.5 91.5 340.5 91.5c63.333 0 120.333 -6.83301 171 -20.5
s93.834 -32.167 129.501 -55.5s66.5 -53.166 92.5 -89.499s46.833 -74.5 62.5 -114.5s28.167 -86.5 37.5 -139.5s15.666 -104.667 18.999 -155s5 -107.166 5 -170.499v-825c0 -40.667 -7.33301 -68.334 -22 -83.001s-42.334 -22 -83.001 -22h-81
c-40.667 0 -68.334 7.33301 -83.001 22s-22 42.334 -22 83.001v911c0 57.333 -2.83301 107.166 -8.5 149.499s-15.834 81.5 -30.501 117.5s-34 65.333 -58 88s-54.667 40.167 -92 52.5s-81.333 18.5 -132 18.5c-76.667 0 -147.667 -18 -213 -54
s-118.166 -87.667 -158.499 -155s-60.5 -142.666 -60.5 -225.999v-902c0 -40.667 -7.33301 -68.334 -22 -83.001s-42.334 -22 -83.001 -22h-80c-40.667 0 -68.334 7.33301 -83.001 22s-22 42.334 -22 83.001z" />
    <glyph glyph-name="n" unicode="n" horiz-adv-x="1887" 
d="M257 105v1428c0 40.667 7.33301 68.334 22 83.001s42.334 22 83.001 22h80c40.667 0 68.334 -7.33301 83.001 -22s22 -42.334 22 -83.001v-162l2 -1c60 94 138.5 168.333 235.5 223s203.167 82 318.5 82c65.333 0 124.333 -6.83301 177 -20.5
s97.834 -32.167 135.501 -55.5s70.5 -53.166 98.5 -89.499s50.5 -74.5 67.5 -114.5s30.667 -86.333 41 -139s17.333 -104.5 21 -155.5s5.5 -107.833 5.5 -170.5v-825c0 -40.667 -7.33301 -68.334 -22 -83.001s-42.334 -22 -83.001 -22h-80
c-40.667 -0 -68.334 7.33301 -83.001 22s-22 42.334 -22 83.001v911c0 71.333 -5.66699 132.166 -17 182.499s-30.166 94.333 -56.499 132s-62.5 65.667 -108.5 84s-102.333 27.5 -169 27.5c-78.667 0 -153.5 -20.667 -224.5 -62s-128.167 -97.333 -171.5 -168
s-65 -145.667 -65 -225v-882c0 -40.667 -7.33301 -68.334 -22 -83.001s-42.334 -22 -83.001 -22h-80c-40.667 0 -68.334 7.33301 -83.001 22s-22 42.334 -22 83.001z" />
    <glyph glyph-name="o" unicode="o" horiz-adv-x="1953" 
d="M155 805c0 126.667 18.5 243.003 55.5 349.003s90 197.667 159 275s156.333 137.666 262 180.999s224.167 65 355.5 65c124.667 0 238.334 -21.5 341.001 -64.5s188.167 -102.167 256.5 -177.5s121.166 -164.333 158.499 -267s56 -213.667 56 -333
c0 -127.333 -18.5 -244.166 -55.5 -350.499s-90 -198 -159 -275s-156 -137 -261 -180s-222.833 -64.5 -353.5 -64.5c-126.667 0 -241.5 20.667 -344.5 62s-188.667 99.166 -257 173.499s-121 163.166 -158 266.499s-55.5 216.666 -55.5 339.999zM1489 820.003
c0 70 -6.16797 136.667 -18.501 200s-32 122.833 -59 178.5s-60.167 104 -99.5 145s-87.5 73.333 -144.5 97s-120.167 35.5 -189.5 35.5c-87.333 0 -164.666 -18 -231.999 -54s-121 -84.833 -161 -146.5s-70 -130.667 -90 -207s-30 -157.833 -30 -244.5
c0 -71.333 6 -139 18 -203s31.167 -124.333 57.5 -181s59 -105.667 98 -147s87.333 -73.833 145 -97.5s122.167 -35.5 193.5 -35.5c74 0 141.833 13.5 203.5 40.5s115.667 67 162 120s82.333 122 108 207s38.5 182.5 38.5 292.5z" />
    <glyph glyph-name="p" unicode="p" horiz-adv-x="2003" 
d="M545 1533l-0.000976562 -159l2 -1c61.333 97.333 139.5 172 234.5 224s200.167 78 315.5 78c94.667 0 182.834 -15.833 264.501 -47.5s152 -74.834 211 -129.501s109.5 -118.667 151.5 -192s73.333 -152.166 94 -236.499s31 -171.5 31 -261.5
c0 -112.667 -16.833 -219.5 -50.5 -320.5s-81.5 -190.667 -143.5 -269s-141.167 -140.5 -237.5 -186.5s-202.833 -69 -319.5 -69c-220.667 0 -405 93 -553 279v-881c0 -40.667 -7.33301 -68.334 -22 -83.001s-42.334 -22 -83.001 -22h-78
c-40.667 0 -68.334 7.33301 -83.001 22s-22 42.334 -22 83.001v2172c0 40.667 7.33301 68.334 22 83.001s42.334 22 83.001 22h78c40.667 0 68.334 -7.33301 83.001 -22s22 -42.334 22 -83.001zM1021 1462c-54.667 0 -109.499 -10.168 -164.499 -30.501s-106 -49 -153 -86
s-85.167 -85 -114.5 -144s-44 -123.5 -44 -193.5v-385c0 -80 22 -154.667 66 -224s103.5 -124.333 178.5 -165s156.167 -61 243.5 -61c70 0 133.333 11.833 190 35.5s104.167 55.667 142.5 96s70.5 88.5 96.5 144.5s44.833 115.333 56.5 178s17.5 129.334 17.5 200.001
c0 66 -6.5 129.667 -19.5 191s-33.333 119 -61 173s-61.334 101 -101.001 141s-88.167 71.667 -145.5 95s-120 35 -188 35z" />
    <glyph glyph-name="q" unicode="q" horiz-adv-x="2002" 
d="M1640 -744h-79.002c-40.667 0 -68.334 7.33301 -83.001 22s-22 42.334 -22 83.001v881c-146.667 -186 -330.667 -279 -552 -279c-116.667 0 -223.167 23 -319.5 69s-175.5 108.167 -237.5 186.5s-109.833 168 -143.5 269s-50.5 207.833 -50.5 320.5
c0 90 10.333 177.167 31 261.5s52 163.166 94 236.499s92.5 137.333 151.5 192s129.333 97.834 211 129.501s169.834 47.5 264.501 47.5c116 0 221.333 -26 316 -78s172.334 -126.667 233.001 -224l2 1v159c0 40.667 7.33301 68.334 22 83.001s42.334 22 83.001 22h79
c40.667 0 68.334 -7.33301 83.001 -22s22 -42.334 22 -83.001v-2172c0 -40.667 -7.33301 -68.334 -22 -83.001s-42.334 -22 -83.001 -22zM1456 1008c0 70 -14.668 134.5 -44.001 193.5s-67.333 107 -114 144s-97.667 65.667 -153 86s-110.333 30.5 -165 30.5
c-68 0 -130.5 -11.667 -187.5 -35s-105.5 -55 -145.5 -95s-73.833 -87 -101.5 -141s-48 -111.667 -61 -173s-19.5 -125 -19.5 -191c0 -70 5.83301 -136.5 17.5 -199.5s30.5 -122.5 56.5 -178.5s58.333 -104.167 97 -144.5s86.334 -72.333 143.001 -96s120 -35.5 190 -35.5
c87.333 0 168.5 20.333 243.5 61s134.333 95.5 178 164.5s65.5 143.833 65.5 224.5v385z" />
    <glyph glyph-name="r" unicode="r" horiz-adv-x="1225" 
d="M1154 1546l-0.00195312 -69.999c0 -28.667 -4 -48.834 -12 -60.501s-21.333 -17.5 -40 -17.5c-14 0 -30 2.33301 -48 7c-42.667 10.667 -81.667 16 -117 16c-105.333 0 -196.166 -39.167 -272.499 -117.5s-114.5 -177.5 -114.5 -297.5v-901
c0 -40.667 -7.33301 -68.334 -22 -83.001s-42.334 -22 -83.001 -22h-83c-40.667 0 -68.334 7.33301 -83.001 22s-22 42.334 -22 83.001v1428c0 40.667 7.33301 68.334 22 83.001s42.334 22 83.001 22h83c40.667 0 68.334 -7.33301 83.001 -22s22 -42.334 22 -83.001v-142h2
c44.667 84.667 107.834 153.167 189.501 205.5s171.167 78.5 268.5 78.5c11.333 0 25 -0.666992 41 -2c42 -3.33301 69.667 -14 83 -32s20 -49.667 20 -95z" />
    <glyph glyph-name="s" unicode="s" horiz-adv-x="1566" 
d="M480 1222c0 -64.667 32.3291 -115.994 96.9961 -153.994c44.667 -26.667 132.334 -58.334 263.001 -95.001c8.66699 -2.66699 22 -6.33398 40 -11.001l1 -1h1h1h1l1 -1h1h1l1 -1h1h1h1l1 -1h1h1l1 -1h1h1h1l1 -1h1h1l1 -1h2c70.667 -20 131.5 -39.833 182.5 -59.5
s98.833 -43.167 143.5 -70.5s80.5 -57.166 107.5 -89.499s48.167 -70.5 63.5 -114.5s23 -93.333 23 -148c0 -70 -12.5 -133.833 -37.5 -191.5s-58.5 -105.834 -100.5 -144.501s-91.167 -71.334 -147.5 -98.001s-115.166 -46 -176.499 -58s-124.666 -18 -189.999 -18
c-76.667 0 -148.167 9.33301 -214.5 28s-124.5 44.5 -174.5 77.5s-93.667 70 -131 111s-69.666 86.5 -96.999 136.5c-11.333 21.333 -17 38.666 -17 51.999c0 22.667 18.667 42.334 56 59.001l9 4c24.667 10.667 43 16 55 16c21.333 0 43.666 -16 66.999 -48
c52.667 -71.333 114 -126 184 -164s157 -57 261 -57c44.667 0 87.667 4.83301 129 14.5s79.666 24.167 114.999 43.5s63.5 46.166 84.5 80.499s31.5 73.833 31.5 118.5c0 19.333 -2.33301 37.666 -7 54.999s-10 32.666 -16 45.999s-16 26.5 -30 39.5s-26.333 24 -37 33
s-27.167 18.667 -49.5 29s-40.833 18.5 -55.5 24.5s-37 13.833 -67 23.5s-53.667 17 -71 22s-44 12.833 -80 23.5c-58 16.667 -107.333 32 -148 46s-82.5 30.833 -125.5 50.5s-78.167 40.5 -105.5 62.5s-52.5 47.667 -75.5 77s-39.833 62.833 -50.5 100.5
s-16 79.5 -16 125.5c0 62.667 11.333 120.667 34 174s53.334 98.5 92.001 135.5s83.667 68.667 135 95s105.833 45.833 163.5 58.5s116.5 19 176.5 19c126 0 235.667 -28 329 -84s167.333 -136 222 -240c10.667 -20 16 -36 16 -48c0 -22 -19 -41.333 -57 -58l-9 -4
c-19.333 -8.66699 -35.666 -13 -48.999 -13c-21.333 0 -44 17 -68 51c-88.667 124.667 -211 187 -367 187c-40 0 -79.167 -5 -117.5 -15s-74 -24.5 -107 -43.5s-59.5 -44.5 -79.5 -76.5s-30 -68.333 -30 -109z" />
    <glyph glyph-name="t" unicode="t" horiz-adv-x="1183" 
d="M1094 151l2.99805 -10.001c4.66699 -16.667 7 -31.667 7 -45c0 -14.667 -4.16699 -27 -12.5 -37s-22.5 -20 -42.5 -30c-88 -44 -180.667 -66 -278 -66c-134.667 0 -239.167 37.333 -313.5 112s-111.5 184.334 -111.5 329.001v1039h-183c-36 0 -60.5 6.5 -73.5 19.5
s-19.5 37.5 -19.5 73.5v10c0 35.333 6.5 59.5 19.5 72.5s37.5 19.5 73.5 19.5h183v323c0 40.667 7.33301 68.334 22 83.001s42.334 22 83.001 22h80c40.667 0 68.334 -7.33301 83.001 -22s22 -42.334 22 -83.001v-323h314c35.333 0 59.5 -6.5 72.5 -19.5
s19.5 -37.167 19.5 -72.5v-10c0 -36 -6.5 -60.5 -19.5 -73.5s-37.167 -19.5 -72.5 -19.5h-314v-1012c0 -87.333 17.5 -155 52.5 -203s94.833 -72 179.5 -72c40.667 0 86.667 11.333 138 34c18 8 32.333 12 43 12s19.5 -4 26.5 -12s13.167 -21 18.5 -39z" />
    <glyph glyph-name="u" unicode="u" horiz-adv-x="1887" 
d="M343 1638h79.998c40.667 0 68.334 -7.33301 83.001 -22s22 -42.334 22 -83.001v-911c0 -71.333 5.5 -132.166 16.5 -182.499s29.667 -94.166 56 -131.499s62.5 -65.166 108.5 -83.499s102.333 -27.5 169 -27.5c79.333 0 154.5 20.667 225.5 62s128 97.166 171 167.499
s64.5 145.166 64.5 224.499v882c0 40.667 7.33301 68.334 22 83.001s42.334 22 83.001 22h81c40.667 0 68.334 -7.33301 83.001 -22s22 -42.334 22 -83.001v-1428c0 -40.667 -7.33301 -68.334 -22 -83.001s-42.334 -22 -83.001 -22h-81
c-40.667 0 -68.334 7.33301 -83.001 22s-22 42.334 -22 83.001v162l-2 1c-60 -94 -138.5 -168.333 -235.5 -223s-203.167 -82 -318.5 -82c-65.333 0 -124.333 6.83301 -177 20.5s-97.667 32.167 -135 55.5s-70 53.166 -98 89.499s-50.5 74.5 -67.5 114.5
s-30.667 86.333 -41 139s-17.333 104.5 -21 155.5s-5.5 107.833 -5.5 170.5v825c0 40.667 7.33301 68.334 22 83.001s42.334 22 83.001 22z" />
    <glyph glyph-name="v" unicode="v" horiz-adv-x="1628" 
d="M398 1540l448.005 -1136l451 1136c16 40.667 33.167 67.167 51.5 79.5s49.166 18.5 92.499 18.5h49c52 0 78 -15.333 78 -46c0 -14 -4.33301 -31 -13 -51l-609 -1457c-14.667 -34.667 -29.834 -57.334 -45.501 -68.001s-42.5 -16 -80.5 -16h-10
c-38.667 0 -65.834 5.16699 -81.501 15.5s-30.834 33.166 -45.501 68.499l-609 1457c-8.66699 20 -13 37.333 -13 52c0 30 25.667 45 77 45h116c43.333 0 74.166 -6.16699 92.499 -18.5s35.5 -38.833 51.5 -79.5z" />
    <glyph glyph-name="w" unicode="w" horiz-adv-x="2505" 
d="M1239 1178l-408.003 -1099c-12 -32.667 -25.167 -54 -39.5 -64s-38.833 -15 -73.5 -15h-10c-35.333 0 -60.166 5.16699 -74.499 15.5s-27.166 31.833 -38.499 64.5l-511 1459c-6.66699 19.333 -10 35.666 -10 48.999c0 33.333 26.667 50 80 50h102
c43.333 0 73.833 -6.5 91.5 -19.5s33.167 -39.833 46.5 -80.5l355 -1090l407 1112c11.333 32 24.166 53 38.499 63s38.833 15 73.5 15h10c34.667 0 59 -4.83301 73 -14.5s27 -30.834 39 -63.501l416 -1114l358 1092c13.333 40.667 28.833 67.5 46.5 80.5
s48.167 19.5 91.5 19.5h49c53.333 0 80 -16.667 80 -50c0 -13.333 -3.33301 -29.666 -10 -48.999l-511 -1458c-11.333 -33.333 -24.166 -55.166 -38.499 -65.499s-39.166 -15.5 -74.499 -15.5h-10c-35.333 0 -60.333 5 -75 15s-28.667 31.667 -42 65z" />
    <glyph glyph-name="x" unicode="x" horiz-adv-x="1726" 
d="M231 0l-82 0.00195312c-44 0 -66 10.333 -66 31c0 13.333 8.33301 30.666 25 51.999l588 765l-522 706c-16 21.333 -24 38.666 -24 51.999c0 21.333 22.333 32 67 32h151c45.333 0 77.666 -5 96.999 -15s42.333 -33.333 69 -70l356 -495l359 495
c26.667 36.667 49.834 60 69.501 70s52.167 15 97.5 15h76c44.667 0 67 -10.667 67 -32c0 -12 -8.33301 -29.333 -25 -52l-501 -661l595 -808c16 -22 24 -39.667 24 -53c0 -21.333 -22.333 -32 -67 -32h-153c-45.333 0 -77.666 5 -96.999 15s-42.333 33.333 -69 70l-428 597
l-440 -597c-26.667 -36.667 -49.834 -60 -69.501 -70s-52.167 -15 -97.5 -15z" />
    <glyph glyph-name="y" unicode="y" horiz-adv-x="1634" 
d="M93 -698l0.00195312 10c0 31.333 5.66699 52.833 17 64.5s33 20.5 65 26.5c38.667 8 75.667 22.167 111 42.5s71.833 50 109.5 89s75.167 91.667 112.5 158s73.333 145.166 108 236.499l60 158l-600 1454c-8.66699 20 -13 37.333 -13 52c0 30 26 45 78 45h120
c43.333 0 74.166 -6.16699 92.499 -18.5s35.166 -38.833 50.499 -79.5l425 -1098l446 1099c16.667 40.667 34.167 67 52.5 79s49.166 18 92.499 18h74c52 0 78 -15.333 78 -46c0 -14 -4.33301 -31 -13 -51l-675 -1617c-22 -52.667 -40.667 -96.5 -56 -131.5
s-33.666 -74.333 -54.999 -118s-40.666 -79.834 -57.999 -108.501s-37.833 -59.5 -61.5 -92.5s-47.167 -60.167 -70.5 -81.5s-49.833 -43 -79.5 -65s-60.667 -39.5 -93 -52.5s-68.333 -24.167 -108 -33.5s-81.834 -15.666 -126.501 -18.999
c-31.333 -2.66699 -53 1.83301 -65 13.5s-18 33.834 -18 66.501z" />
    <glyph glyph-name="z" unicode="z" horiz-adv-x="1610" 
d="M271 1638l1130 -0.000976562c23.333 0 39 -4 47 -12s12 -23.667 12 -47v-10c0 -27.333 -1.83301 -46.666 -5.5 -57.999s-13.5 -28 -29.5 -50l-921 -1265h876c36 0 60.5 -6.5 73.5 -19.5s19.5 -37.5 19.5 -73.5v-10c0 -36 -6.5 -60.5 -19.5 -73.5s-37.5 -19.5 -73.5 -19.5
h-1213c-23.333 0 -39 4 -47 12s-12 23.667 -12 47v10c0 26.667 1.83301 45.667 5.5 57s13.5 28 29.5 50l922 1267h-794c-36 0 -60.5 6.5 -73.5 19.5s-19.5 37.5 -19.5 73.5v10c0 35.333 6.5 59.5 19.5 72.5s37.5 19.5 73.5 19.5z" />
    <glyph glyph-name="braceleft" unicode="{" horiz-adv-x="1040" 
d="M968 -471l-0.00292969 -10.0049c0 -30 -5.33301 -50.167 -16 -60.5s-30.667 -15.166 -60 -14.499c-95.333 3.33301 -175 14.333 -239 33s-118.167 48.5 -162.5 89.5s-76.333 94.5 -96 160.5s-29.5 148.333 -29.5 247v390c0 46.667 -1.16699 88.5 -3.5 125.5
s-7.5 76.833 -15.5 119.5s-18.833 79.334 -32.5 110.001s-32.667 58.167 -57 82.5s-52.833 41.5 -85.5 51.5c-30 9.33301 -50 19 -60 29s-15 29 -15 57v10c0 28 5 47.167 15 57.5s30 19.5 60 27.5c33.333 8.66699 61.833 24.334 85.5 47.001s42.334 48.5 56.001 77.5
s24.334 65 32.001 108s12.667 84.167 15 123.5s3.5 86 3.5 140v312c0 100.667 6.83301 185.667 20.5 255s33 126.166 58 170.499s60 79 105 104s93.833 42.333 146.5 52s118.667 15.5 198 17.5c30 0.666992 50.333 -4.33301 61 -15s16 -30.667 16 -60v-10
c0 -29.333 -5.16699 -49.166 -15.5 -59.499s-30.5 -17.166 -60.5 -20.499c-54 -5.33301 -98.333 -17.166 -133 -35.499s-61.667 -45.666 -81 -81.999s-32.666 -78.666 -39.999 -126.999s-11 -109.833 -11 -184.5v-392c0 -149.333 -20.333 -263.5 -61 -342.5
s-116 -135.833 -226 -170.5v-2c87.333 -20.667 156.666 -66.834 207.999 -138.501s77 -155.834 77 -252.501v-503c0 -54 2.33301 -101.167 7 -141.5s12.834 -78.333 24.501 -114s27.5 -65.5 47.5 -89.5s45.667 -44 77 -60s68.333 -26.667 111 -32
c30 -4 50.167 -11.167 60.5 -21.5s15.5 -29.833 15.5 -58.5z" />
    <glyph glyph-name="bar" unicode="|" horiz-adv-x="817" 
d="M457 -744h-97c-30.667 0 -51.334 5.33301 -62.001 16s-16 31.334 -16 62.001v3026c0 30.667 5.33301 51.334 16 62.001s31.334 16 62.001 16h97c30.667 0 51.334 -5.33301 62.001 -16s16 -31.334 16 -62.001v-3026c0 -30.667 -5.33301 -51.334 -16 -62.001
s-31.334 -16 -62.001 -16z" />
    <glyph glyph-name="braceright" unicode="}" horiz-adv-x="1039" 
d="M675 364v-389.997c0 -98.667 -9.83301 -181 -29.5 -247s-51.667 -119.5 -96 -160.5s-98.5 -70.833 -162.5 -89.5s-143.667 -29.667 -239 -33c-29.333 -0.666992 -49.333 4.16602 -60 14.499s-16 30.5 -16 60.5v10c0 28.667 5.16699 48.167 15.5 58.5s30.5 17.5 60.5 21.5
c42.667 5.33301 79.667 16 111 32s57 36 77 60s35.833 53.833 47.5 89.5s19.834 73.667 24.501 114s7 87.5 7 141.5v503c0 96.667 25.667 180.834 77 252.501s120.666 117.834 207.999 138.501v2c-110 34.667 -185.333 91.5 -226 170.5s-61 193.167 -61 342.5v392
c0 74.667 -3.66699 136.167 -11 184.5s-20.666 90.666 -39.999 126.999s-46.333 63.666 -81 81.999s-79 30.166 -133 35.499c-30 3.33301 -50.167 10.166 -60.5 20.499s-15.5 30.166 -15.5 59.499v10c0 29.333 5.33301 49.333 16 60s31 15.667 61 15
c79.333 -2 145.333 -7.83301 198 -17.5s101.5 -27 146.5 -52s80 -59.667 105 -104s44.333 -101.166 58 -170.499s20.5 -154.333 20.5 -255v-312c0 -44 0.833008 -83 2.5 -117s4.66699 -69.5 9 -106.5s11 -69.333 20 -97s20.333 -53.834 34 -78.501
s31.167 -45.167 52.5 -61.5s45.666 -28.166 72.999 -35.499c30.667 -8.66699 51 -18 61 -28s15 -29 15 -57v-10c0 -28 -5 -47.167 -15 -57.5s-30.333 -20.166 -61 -29.499c-40.667 -12.667 -74.5 -35.167 -101.5 -67.5s-46.667 -72.833 -59 -121.5
s-20.833 -95.834 -25.5 -141.501s-7 -98.167 -7 -157.5z" />
    <glyph glyph-name="asciitilde" unicode="~" horiz-adv-x="2095" 
d="M269 797c-26 0 -43.333 4.83008 -52 14.4971s-11.334 26.834 -8.00098 51.501c23.333 164 76 289.167 158 375.5s180 129.5 294 129.5c74.667 0 144.5 -10.5 209.5 -31.5s120.167 -46.333 165.5 -76s87.833 -59.334 127.5 -89.001s80.5 -55 122.5 -76s83 -31.5 123 -31.5
c55.333 0 100.5 18.333 135.5 55s62.167 93.334 81.5 170.001c6.66699 26.667 15.167 44.334 25.5 53.001s28.833 13 55.5 13h145c25.333 0 42.333 -4.83301 51 -14.5s11.334 -27.167 8.00098 -52.5c-23.333 -164 -76 -289.167 -158 -375.5s-180 -129.5 -294 -129.5
c-74.667 0 -144.5 10.5 -209.5 31.5s-120.167 46.333 -165.5 76s-88 59.334 -128 89.001s-80.833 55 -122.5 76s-82.5 31.5 -122.5 31.5c-55.333 0 -100.5 -18.333 -135.5 -55s-62.167 -93.667 -81.5 -171c-6.66699 -25.333 -15 -42.333 -25 -51s-28.333 -13 -55 -13h-145z
" />
    <glyph glyph-name="uni00A0" unicode="&#xa0;" horiz-adv-x="835" 
 />
    <glyph glyph-name="exclamdown" unicode="&#xa1;" horiz-adv-x="853" 
d="M467 -576h-81.0049c-45.333 0 -76.166 8.16699 -92.499 24.5s-24.166 47.166 -23.499 92.499l2 173c2.66699 271.333 9.16699 506.333 19.5 705s25.166 417.667 44.499 657c2.66699 30.667 9.83398 51.5 21.501 62.5s33.167 16.5 64.5 16.5h10
c30.667 0 51.834 -5.33301 63.501 -16s18.834 -31.667 21.501 -63c37.333 -461.333 58.666 -915.333 63.999 -1362l2 -173c0.666992 -45.333 -7.16602 -76.166 -23.499 -92.499s-47.166 -24.5 -92.499 -24.5zM424.995 1806c52.667 0 97.667 -18.333 135 -55
s56 -81.334 56 -134.001c0 -52 -18.667 -95.833 -56 -131.5s-82.333 -53.5 -135 -53.5s-97 17.667 -133 53s-54 79.333 -54 132s18 97.334 54 134.001s80.333 55 133 55z" />
    <glyph glyph-name="cent" unicode="&#xa2;" horiz-adv-x="1748" 
d="M947 -10h-9.99902c-39.333 0 -66.166 7.16699 -80.499 21.5s-21.5 41.166 -21.5 80.499v197c-218 22 -389.833 109 -515.5 261s-188.5 344.333 -188.5 577c0 152 27.667 289.833 83 413.5s136.666 225.167 243.999 304.5s233 127.666 377 144.999v201
c0 39.333 7.16699 66 21.5 80s41.166 21 80.499 21h10c39.333 0 66 -7 80 -21s21 -40.667 21 -80v-200c117.333 -12.667 219.333 -48.834 306 -108.501s156.334 -139.167 209.001 -238.5c11.333 -20.667 17 -38.667 17 -54c0 -23.333 -19.333 -44.666 -58 -63.999l-8 -4
c-22.667 -11.333 -40.334 -17 -53.001 -17c-21.333 0 -43.333 17.333 -66 52c-98.667 151.333 -237.667 227 -417 227c-161.333 0 -291.333 -57.167 -390 -171.5s-148 -270.5 -148 -468.5c0 -85.333 11.5 -166.166 34.5 -242.499s56.167 -144.333 99.5 -204
s99.5 -107 168.5 -142s146.5 -52.5 232.5 -52.5c92 0 175.667 20.167 251 60.5s139 97.5 191 171.5c20 28 38.667 42 56 42c12.667 0 28.667 -6 48 -18l8 -5c32.667 -20.667 49 -40.667 49 -60c0 -13.333 -5 -29.333 -15 -48c-50 -100 -118.667 -180.333 -206 -241
s-190.333 -98.667 -309 -114v-199c0 -39.333 -7 -66.166 -21 -80.499s-40.667 -21.5 -80 -21.5z" />
    <glyph glyph-name="sterling" unicode="&#xa3;" horiz-adv-x="1913" 
d="M748 1244l430.002 0.000976562c35.333 0 59.5 -6.5 72.5 -19.5s19.5 -37.167 19.5 -72.5v-10c0 -35.333 -6.5 -59.5 -19.5 -72.5s-37.167 -19.5 -72.5 -19.5h-398c14.667 -108.667 22 -207.334 22 -296.001c0 -101.333 -16 -192 -48 -272s-82.333 -162 -151 -246h1011
c42.667 0 71.167 -7.83301 85.5 -23.5s21.5 -45.5 21.5 -89.5v-10c-2 -44 -11.167 -73.833 -27.5 -89.5s-46.5 -23.5 -90.5 -23.5h-1362c-27.333 0 -46 5 -56 15s-15 28.667 -15 56v10c0 28 4 47.833 12 59.5s25 25.167 51 40.5c176.667 100.667 265 298.667 265 594
c0 87.333 -8 179 -24 275h-234c-35.333 0 -59.5 6.5 -72.5 19.5s-19.5 37.167 -19.5 72.5v10c0 35.333 6.5 59.5 19.5 72.5s37.167 19.5 72.5 19.5h199c-24.667 128 -37 235.667 -37 323c0 149.333 30.667 281.333 92 396s147.833 203.5 259.5 266.5
s240.167 94.5 385.5 94.5c289.333 0 490.666 -135.667 603.999 -407c8 -20 12 -36.333 12 -49c0 -24 -19 -46.667 -57 -68l-9 -5c-22 -12 -39.667 -18 -53 -18c-20.667 0 -41.334 17.333 -62.001 52c-24.667 42 -48.667 77.667 -72 107s-51.333 58 -84 86
s-70.167 49.167 -112.5 63.5s-88.833 21.5 -139.5 21.5c-66.667 0 -126.5 -9.66699 -179.5 -29s-100.333 -49.666 -142 -90.999s-73.667 -97.333 -96 -168s-33.5 -154.334 -33.5 -251.001c0 -85.333 11 -193.333 33 -324z" />
    <glyph glyph-name="currency" unicode="&#xa4;" horiz-adv-x="2152" 
d="M470 1565l-194.999 191.002c-21.333 21.333 -32 39.333 -32 54c0 15.333 10.667 33.666 32 54.999l66 66c21.333 21.333 39.666 32 54.999 32c14 0 32.333 -10.667 55 -32l192 -193c130 94 274.333 141 433 141c160 0 304.333 -45.667 433 -137l189 189
c21.333 21.333 39.666 32 54.999 32c16 0 34.333 -10.333 55 -31l69 -68c20.667 -20.667 31 -38.667 31 -54s-10.667 -33.333 -32 -54l-192 -187c94.667 -130.667 142 -277 142 -439c0 -156.667 -47.333 -299.667 -142 -429l192 -184c22 -20.667 33 -39 33 -55
c0 -14.667 -10.667 -32.667 -32 -54l-69 -69c-21.333 -21.333 -39.666 -32 -54.999 -32c-16 0 -34.333 10.667 -55 32l-188 191c-133.333 -93.333 -278 -140 -434 -140c-161.333 0 -307 47 -437 141l-189 -192c-21.333 -21.333 -39.333 -32 -54 -32s-32.667 10.667 -54 32
l-68 69c-20.667 20.667 -31 38.667 -31 54s11 33.666 33 54.999l192 187c-90.667 127.333 -136 269.333 -136 426c0 160.667 46 305.667 138 435zM586.001 1131c0 -86 21.333 -166.004 64 -240.004s101.667 -133.333 177 -178s158.333 -67 249 -67
c63.333 0 125 12.5 185 37.5s112.667 58.833 158 101.5s81.666 94.334 108.999 155.001s41 124.334 41 191.001c0 88 -21.5 169.833 -64.5 245.5s-102.5 135.834 -178.5 180.501s-159.333 67 -250 67c-65.333 0 -128 -12.833 -188 -38.5s-112.167 -60.167 -156.5 -103.5
s-79.666 -95.666 -105.999 -156.999s-39.5 -126 -39.5 -194z" />
    <glyph glyph-name="yen" unicode="&#xa5;" horiz-adv-x="2059" 
d="M853 540h-402.002c-33.333 0 -56 6 -68 18s-18 34.667 -18 68v10c0 33.333 6 55.833 18 67.5s34.667 17.5 68 17.5h402v197l-30 55h-372c-33.333 0 -56 6 -68 18s-18 34.667 -18 68v10c0 33.333 6 55.833 18 67.5s34.667 17.5 68 17.5h273l-562 1025
c-13.333 24.667 -20 44.334 -20 59.001c0 28.667 27 43 81 43h102c49.333 0 84.5 -6.33301 105.5 -19s43.167 -40.667 66.5 -84l540 -1008l571 1009c24.667 43.333 47.5 71.166 68.5 83.499s56.5 18.5 106.5 18.5h57c52.667 0 79 -14 79 -42c0 -14 -7 -33.667 -21 -59
l-595 -1026h296c32.667 0 55 -6 67 -18s18 -34.333 18 -67v-10c0 -33.333 -5.83301 -56 -17.5 -68s-34.167 -18 -67.5 -18h-401l-31 -53v-199h432c32.667 0 55 -5.83301 67 -17.5s18 -34.167 18 -67.5v-10c0 -33.333 -5.83301 -56 -17.5 -68s-34.167 -18 -67.5 -18h-432
v-423c0 -45.333 -8.16699 -76.166 -24.5 -92.499s-47.166 -24.5 -92.499 -24.5h-80c-45.333 0 -76.166 8.16699 -92.499 24.5s-24.5 47.166 -24.5 92.499v423z" />
    <glyph glyph-name="brokenbar" unicode="&#xa6;" horiz-adv-x="747" 
d="M422 -562h-97c-30.667 0 -51.334 5.33301 -62.001 16s-16 31.334 -16 62.001v944c0 30.667 5.33301 51.334 16 62.001s31.334 16 62.001 16h97c30.667 0 51.334 -5.33301 62.001 -16s16 -31.334 16 -62.001v-944c0 -30.667 -5.33301 -51.334 -16 -62.001
s-31.334 -16 -62.001 -16zM247 1233v944c0 30.667 5.33301 51.334 16 62.001s31.334 16 62.001 16h97c30.667 0 51.334 -5.33301 62.001 -16s16 -31.334 16 -62.001v-944c0 -30.667 -5.33301 -51.334 -16 -62.001s-31.334 -16 -62.001 -16h-97
c-30.667 0 -51.334 5.33301 -62.001 16s-16 31.334 -16 62.001z" />
    <glyph glyph-name="section" unicode="&#xa7;" horiz-adv-x="1704" 
d="M1556 932c0 -104.667 -31.3281 -197.499 -93.9951 -278.499s-144.667 -146.833 -246 -197.5c86 -47.333 151.167 -111.166 195.5 -191.499s66.5 -165.833 66.5 -256.5s-18.333 -173.667 -55 -249s-86.167 -137.5 -148.5 -186.5s-134 -86.833 -215 -113.5
s-166.833 -40 -257.5 -40c-137.333 0 -258.5 33.667 -363.5 101s-182.833 156.333 -233.5 267c-10 22 -15 40 -15 54c0 14.667 5.5 27.5 16.5 38.5s28.833 21.833 53.5 32.5l9 4c22 9.33301 39.667 14 53 14c15.333 0 28.666 -5.16699 39.999 -15.5
s23.666 -26.833 36.999 -49.5c40 -68.667 93 -123.167 159 -163.5s142.667 -60.5 230 -60.5c106 0 194.667 29.167 266 87.5s107 138.5 107 240.5c0 23.333 -2.83301 45.833 -8.5 67.5s-12.334 41.334 -20.001 59.001s-19.334 35.5 -35.001 53.5s-29.667 33.167 -42 45.5
s-29.833 26 -52.5 41s-41.167 27 -55.5 36s-35 20 -62 33s-47.167 22.5 -60.5 28.5s-34.333 15.167 -63 27.5s-48 20.833 -58 25.5c-132.667 58.667 -227.334 106 -284.001 142c-141.333 88 -226 194 -254 318c-7.33301 33.333 -11 68 -11 104c0 62 9.33301 118.5 28 169.5
s45.834 95.167 81.501 132.5s73.167 69.166 112.5 95.499s86 52.166 140 77.499c-188 106.667 -282 251.334 -282 434.001c0 76.667 12.167 146.667 36.5 210s57.333 116.666 99 159.999s90.834 80.166 147.501 110.499s117 52.333 181 66s131 20.5 201 20.5
c118 0 224.667 -31.5 320 -94.5s167.333 -140.833 216 -233.5c11.333 -22.667 17 -40.667 17 -54c0 -25.333 -22.667 -48 -68 -68l-9 -4c-24 -9.33301 -42.667 -14 -56 -14c-14.667 0 -27.834 4.66699 -39.501 14s-24.834 25 -39.501 47
c-39.333 58.667 -87.666 105.167 -144.999 139.5s-120.333 51.5 -189 51.5c-46 0 -90.333 -6.5 -133 -19.5s-81.334 -31.667 -116.001 -56s-62.334 -56.666 -83.001 -96.999s-31 -85.5 -31 -135.5c0 -33.333 4.16699 -64 12.5 -92s21.333 -53 39 -75
s35.834 -41.333 54.501 -58s43 -33.167 73 -49.5s56.5 -29.833 79.5 -40.5s52.5 -23.667 88.5 -39c7.33301 -2.66699 12.833 -4.83398 16.5 -6.50098s8.5 -3.83398 14.5 -6.50098s11.333 -5 16 -7c168 -73.333 286.333 -131.666 355 -174.999c122 -76.667 201 -164 237 -262
c17.333 -48.667 26 -101.667 26 -159zM1002 1184l-312.999 141.002c-74.667 -43.333 -124 -75.333 -148 -96c-66.667 -54.667 -100 -118.334 -100 -191.001c0 -38 3.66699 -71 11 -99s20.5 -56.167 39.5 -84.5s46.667 -55.166 83 -80.499s82.166 -50.333 137.499 -75
l328 -147c150.667 85.333 226 184.666 226 297.999c0 143.333 -88 254.666 -264 333.999z" />
    <glyph glyph-name="dieresis" unicode="&#xa8;" horiz-adv-x="1423" 
d="M215 2151c0 49.333 17.5 90.834 52.5 124.501s77.167 50.5 126.5 50.5s89.833 -16.667 121.5 -50s47.5 -75 47.5 -125s-15.833 -91.5 -47.5 -124.5s-72.167 -49.5 -121.5 -49.5s-91.5 16.667 -126.5 50s-52.5 74.666 -52.5 123.999zM857 2151
c0 49.333 17 90.833 51 124.5s75.667 50.5 125 50.5s90.5 -16.833 123.5 -50.5s49.5 -75.167 49.5 -124.5s-16.5 -90.666 -49.5 -123.999s-74.167 -50 -123.5 -50s-91 16.667 -125 50s-51 74.666 -51 123.999z" />
    <glyph glyph-name="copyright" unicode="&#xa9;" horiz-adv-x="2752" 
d="M1975 858c-28 -128 -96.334 -230.166 -205.001 -306.499s-234.334 -114.5 -377.001 -114.5c-105.333 0 -199.333 19 -282 57s-150 91 -202 159s-91.5 147 -118.5 237s-40.5 188.333 -40.5 295c0 96 14 188 42 276s68.167 166.833 120.5 236.5s120 125.334 203 167.001
s175.5 62.5 277.5 62.5c61.333 0 122 -7.83301 182 -23.5s116.833 -38.667 170.5 -69s100.667 -70.5 141 -120.5s68.833 -106.333 85.5 -169c6.66699 -23.333 5.83398 -39.833 -2.49902 -49.5s-25.5 -14.5 -51.5 -14.5h-101c-26 0 -44.167 4.16699 -54.5 12.5
s-20.166 25.5 -29.499 51.5c-24 63.333 -65.833 112.166 -125.5 146.499s-131.167 51.5 -214.5 51.5c-117.333 0 -211.833 -49.833 -283.5 -149.5s-107.5 -235.834 -107.5 -408.501c0 -173.333 34.5 -308.5 103.5 -405.5s164.833 -145.5 287.5 -145.5
c79.333 0 149.5 20 210.5 60s104.167 95 129.5 165c9.33301 26.667 19.166 44.167 29.499 52.5s28.5 12.5 54.5 12.5h101c26 0 43.333 -5 52 -15s10.334 -27 5.00098 -51zM2601 1185c0 -166 -32.335 -324.833 -97.002 -476.5s-151.667 -282.334 -261 -392.001
s-239.666 -197 -390.999 -262s-310 -97.5 -476 -97.5s-324.667 32.5 -476 97.5s-281.666 152.333 -390.999 262s-196.333 240.334 -261 392.001s-97 310.5 -97 476.5c0 166.667 32.333 325.5 97 476.5s151.667 280.833 261 389.5s239.5 195.167 390.5 259.5
s309.833 96.5 476.5 96.5s325.5 -32.167 476.5 -96.5s281.167 -150.833 390.5 -259.5s196.333 -238.5 261 -389.5s97 -309.833 97 -476.5zM347.997 1185c0 -145.333 26.667 -282.666 80 -411.999s125.5 -240.166 216.5 -332.499s200 -165.333 327 -219
s261.833 -80.5 404.5 -80.5c142 0 276.5 26.833 403.5 80.5s236.167 126.667 327.5 219s163.666 203.166 216.999 332.499s80 266.666 80 411.999c0 144 -26.667 280.167 -80 408.5s-125.666 238.5 -216.999 330.5s-200.5 164.833 -327.5 218.5s-261.5 80.5 -403.5 80.5
c-142.667 0 -277.5 -26.833 -404.5 -80.5s-236 -126.5 -327 -218.5s-163.167 -202.167 -216.5 -330.5s-80 -264.5 -80 -408.5z" />
    <glyph glyph-name="ordfeminine" unicode="&#xaa;" horiz-adv-x="1282" 
d="M870 1293l0.000976562 82.998c-86 -116 -195.667 -174 -329 -174c-72 0 -137.333 12.333 -196 37s-106 62.334 -142 113.001s-54 110.667 -54 180c0 56 10.833 105.667 32.5 149s50 78.5 85 105.5s76.667 49.333 125 67s97 29.834 146 36.501s100.5 10 154.5 10
c57.333 0 116.666 -4 177.999 -12v37c0 76.667 -21.167 138.334 -63.5 185.001s-104.833 70 -187.5 70c-48.667 0 -96.834 -11.5 -144.501 -34.5s-90.5 -54.5 -128.5 -94.5c-20 -20 -36 -30 -48 -30c-9.33301 0 -21.666 4.66699 -36.999 14l-8 5
c-23.333 13.333 -35 26.666 -35 39.999c0 9.33301 4.33301 21.333 13 36c42 67.333 99.333 120.5 172 159.5s152 58.5 238 58.5c158 0 270 -38 336 -114s99 -189.333 99 -340v-587c0 -26 -4.66699 -43.667 -14 -53s-27 -14 -53 -14h-72c-26 0 -43.667 4.66699 -53 14
s-14 27 -14 53zM870.001 1751c-64 9.33301 -127.331 13.999 -189.998 13.999c-30.667 0 -59.834 -2 -87.501 -6s-55.5 -11.167 -83.5 -21.5s-52.167 -23.5 -72.5 -39.5s-36.833 -37 -49.5 -63s-19 -55.667 -19 -89c0 -64.667 21.167 -114.667 63.5 -150s95.5 -53 159.5 -53
c28.667 0 59 6.66699 91 20s62.167 31.833 90.5 55.5s51.666 54.834 69.999 93.501s27.5 80.667 27.5 126v113z" />
    <glyph glyph-name="guillemotleft" unicode="&#xab;" horiz-adv-x="1694" 
d="M766 166l-110 0.00195312c-38.667 0 -66.167 4.16699 -82.5 12.5s-35.5 28.166 -57.5 59.499l-383 542c-21.333 29.333 -32 53.333 -32 72c0 17.333 10.667 41.333 32 72l383 541c22 31.333 41.167 51.166 57.5 59.499s43.833 12.5 82.5 12.5h110c39.333 0 59 -10 59 -30
c0 -11.333 -6 -26.333 -18 -45l-393 -610l393 -611c12 -19.333 18 -34.333 18 -45c0 -20 -19.667 -30 -59 -30zM1445 166.002l-110 0.00195312c-38.667 0 -66.167 4.16699 -82.5 12.5s-35.5 28.166 -57.5 59.499l-384 542c-21.333 29.333 -32 53.333 -32 72
c0 17.333 10.667 41.333 32 72l384 541c22 31.333 41.167 51.166 57.5 59.499s43.833 12.5 82.5 12.5h110c39.333 0 59 -10 59 -30c0 -11.333 -6 -26.333 -18 -45l-393 -610l393 -611c12 -19.333 18 -34.333 18 -45c0 -20 -19.667 -30 -59 -30z" />
    <glyph glyph-name="logicalnot" unicode="&#xac;" horiz-adv-x="2147" 
d="M1810 321l-144.999 -0.000976562c-30.667 0 -51.334 5.33301 -62.001 16s-16 31.334 -16 62.001v654h-1299c-30.667 0 -51.334 5.33301 -62.001 16s-16 31.334 -16 62.001v124c0 30.667 5.33301 51.334 16 62.001s31.334 16 62.001 16h1522
c30.667 0 51.334 -5.33301 62.001 -16s16 -31.334 16 -62.001v-856c0 -30.667 -5.33301 -51.334 -16 -62.001s-31.334 -16 -62.001 -16z" />
    <glyph glyph-name="uni00AD" unicode="&#xad;" horiz-adv-x="1298" 
d="M1002 769h-706c-26 0 -43.667 4.66699 -53 14s-14 27 -14 53v125c0 26 4.66699 43.667 14 53s27 14 53 14h706c26 0 43.667 -4.66699 53 -14s14 -27 14 -53v-125c0 -26 -4.66699 -43.667 -14 -53s-27 -14 -53 -14z" />
    <glyph glyph-name="registered" unicode="&#xae;" horiz-adv-x="1798" 
d="M609 1313v720.997c0 26 4.66699 43.667 14 53s27 14 53 14h241c117.333 0 202.833 -21.167 256.5 -63.5s80.5 -104.833 80.5 -187.5c0 -127.333 -58.667 -205.666 -176 -234.999l157 -318c6.66699 -13.333 10 -24.666 10 -33.999c0 -17.333 -16 -26 -48 -26h-46
c-28 0 -48 3.83301 -60 11.5s-24 23.834 -36 48.501l-141 296h-143v-280c0 -29.333 -5.33301 -49.333 -16 -60s-30.667 -16 -60 -16h-10c-29.333 0 -49.333 5.33301 -60 16s-16 30.667 -16 60zM1651 1657c0 -136.667 -33.499 -262.831 -100.499 -378.498
s-158.167 -207.334 -273.5 -275.001s-241.333 -101.5 -378 -101.5c-102 0 -199.5 20 -292.5 60s-173.167 93.667 -240.5 161s-120.833 147.666 -160.5 240.999s-59.5 191 -59.5 293c0 136.667 33.667 262.5 101 377.5s158.666 205.833 273.999 272.5s241.333 100 378 100
c102 0 199.5 -19.667 292.5 -59s173 -92.5 240 -159.5s120.333 -146.833 160 -239.5s59.5 -190 59.5 -292zM290.001 1657c0 -86 15.832 -167.5 47.499 -244.5s74.5 -142.833 128.5 -197.5s118.5 -98 193.5 -130s154.833 -48 239.5 -48c84 0 163.667 16 239 48
s140 75.333 194 130s96.833 120.5 128.5 197.5s47.5 158.5 47.5 244.5c0 114 -26.833 218 -80.5 312s-127 168 -220 222s-195.833 81 -308.5 81s-215.667 -27 -309 -81s-166.666 -128 -219.999 -222s-80 -198 -80 -312zM771 1720h121.001
c71.333 0 123.166 10.667 155.499 32s48.5 54 48.5 98c0 45.333 -16.333 77.333 -49 96s-85.667 28 -159 28h-117v-254z" />
    <glyph glyph-name="macron" unicode="&#xaf;" horiz-adv-x="1461" 
d="M1148 2038h-837c-26 0 -43.667 4.66699 -53 14s-14 27 -14 53v78c0 26 4.66699 43.667 14 53s27 14 53 14h837c26 0 43.667 -4.66699 53 -14s14 -27 14 -53v-78c0 -26 -4.66699 -43.667 -14 -53s-27 -14 -53 -14z" />
    <glyph glyph-name="degree" unicode="&#xb0;" horiz-adv-x="1265" 
d="M136 1905c0 89.333 22.168 172.165 66.501 248.498s104.666 136.666 180.999 180.999s159.5 66.5 249.5 66.5c89.333 0 172.166 -22.167 248.499 -66.5s136.666 -104.666 180.999 -180.999s66.5 -159.166 66.5 -248.499c0 -90 -22.167 -173.167 -66.5 -249.5
s-104.666 -136.666 -180.999 -180.999s-159.166 -66.5 -248.499 -66.5c-136.667 0 -253.667 48.667 -351 146s-146 214.333 -146 351zM941.001 1905c0 85.333 -30 158 -90 218s-132.667 90 -218 90c-86 0 -159 -30 -219 -90s-90 -132.667 -90 -218
c0 -86 30 -158.833 90 -218.5s133 -89.5 219 -89.5c85.333 0 158 29.833 218 89.5s90 132.5 90 218.5z" />
    <glyph glyph-name="plusminus" unicode="&#xb1;" horiz-adv-x="2116" 
d="M910 1375v518c0 30.667 5.33301 51.334 16 62.001s31.334 16 62.001 16h141c30.667 0 51.334 -5.33301 62.001 -16s16 -31.334 16 -62.001v-518h612c30.667 0 51.334 -5.33301 62.001 -16s16 -31.334 16 -62.001v-121c0 -30.667 -5.33301 -51.334 -16 -62.001
s-31.334 -16 -62.001 -16h-612v-526c0 -30.667 -5.33301 -51.334 -16 -62.001s-31.334 -16 -62.001 -16h-141c-30.667 0 -51.334 5.33301 -62.001 16s-16 31.334 -16 62.001v526h-613c-30.667 0 -51.334 5.33301 -62.001 16s-16 31.334 -16 62.001v121
c0 30.667 5.33301 51.334 16 62.001s31.334 16 62.001 16h613zM219 93v124c0 30.667 5.33301 51.334 16 62.001s31.334 16 62.001 16h1522c30.667 0 51.334 -5.33301 62.001 -16s16 -31.334 16 -62.001v-124c0 -30.667 -5.33301 -51.334 -16 -62.001
s-31.334 -16 -62.001 -16h-1522c-30.667 0 -51.334 5.33301 -62.001 16s-16 31.334 -16 62.001z" />
    <glyph glyph-name="twosuperior" unicode="&#xb2;" horiz-adv-x="1212" 
d="M214 2353c-41.333 4.66699 -62 20.333 -62 47c0 11.333 1.66699 22 5 32c30.667 110.667 85 193.334 163 248.001s172 82 282 82c125.333 0 229.833 -34.5 313.5 -103.5s125.5 -163.167 125.5 -282.5c0 -93.333 -30.667 -179 -92 -257
c-17.333 -22.667 -56.333 -65.334 -117 -128.001l-411 -423h595c26 0 43.667 -4.66699 53 -14s14 -27 14 -53v-42c0 -26 -4.66699 -43.667 -14 -53s-27 -14 -53 -14h-819c-27.333 0 -45.666 4.66699 -54.999 14s-14 27.666 -14 54.999v10c0 30.667 2.5 52.5 7.5 65.5
s18.167 30.5 39.5 52.5l491 513c31.333 33.333 55.166 60 71.499 80s32 47 47 81s22.5 69 22.5 105c0 66.667 -21.167 122 -63.5 166s-96.5 66 -162.5 66c-54.667 0 -105.167 -17.667 -151.5 -53s-82.833 -81 -109.5 -137c-12.667 -26.667 -25 -43.667 -37 -51
s-32 -9.66602 -60 -6.99902z" />
    <glyph glyph-name="threesuperior" unicode="&#xb3;" horiz-adv-x="1236" 
d="M545 2185h9.99805c77.333 0 140.666 18 189.999 54s74 89 74 159c0 60.667 -20.5 110.167 -61.5 148.5s-91.5 57.5 -151.5 57.5c-119.333 0 -210.666 -56 -273.999 -168c-10.667 -18.667 -20.5 -32 -29.5 -40s-20.167 -12 -33.5 -12c-10 0 -22 2 -36 6l-10 3
c-20 5.33301 -34.5 11.666 -43.5 18.999s-13.5 17.333 -13.5 30c0 8.66699 2.66699 21 8 37c34 90 88.667 160.333 164 211s168 76 278 76c76 0 146 -12.833 210 -38.5s116.833 -65.834 158.5 -120.501s62.5 -119.667 62.5 -195c0 -68.667 -19.333 -128.667 -58 -180
s-89.667 -90.666 -153 -117.999c79.333 -23.333 142.833 -67.833 190.5 -133.5s71.5 -140.5 71.5 -224.5c0 -67.333 -14 -126.5 -42 -177.5s-66 -91.167 -114 -120.5s-100.5 -51.166 -157.5 -65.499s-117.5 -21.5 -181.5 -21.5c-108.667 0 -204.167 26.833 -286.5 80.5
s-141.5 126.5 -177.5 218.5c-6 14.667 -9 27 -9 37c0 23.333 19.333 40.333 58 51l10 3c14 4 26.333 6 37 6c13.333 0 24.833 -4 34.5 -12s19.834 -21.667 30.501 -41c32.667 -56 74.334 -99.5 125.001 -130.5s106.667 -46.5 168 -46.5c78 0 142.833 19 194.5 57
s77.5 94 77.5 168c0 81.333 -28.833 146 -86.5 194s-133.167 72 -226.5 72h-7c-28.667 0 -48.167 5 -58.5 15s-15.5 29.667 -15.5 59v10c0 28.667 5.16699 48 15.5 58s29.833 15 58.5 15z" />
    <glyph glyph-name="acute" unicode="&#xb4;" horiz-adv-x="809" 
d="M255 1914l-100.999 0.000976562c-30 0 -45 7.66699 -45 23c0 7.33301 4.33301 18.666 13 33.999l250 408c14.667 24.667 28.167 40.334 40.5 47.001s32.833 10 61.5 10h224c27.333 0 41 -6 41 -18c0 -7.33301 -5.66699 -18.333 -17 -33l-357 -420
c-18.667 -22.667 -34.334 -36.834 -47.001 -42.501s-33.667 -8.5 -63 -8.5z" />
    <glyph glyph-name="mu" unicode="&#xb5;" horiz-adv-x="2068" 
d="M315 -666l-0.00195312 2226c0 30.667 5.33301 51.334 16 62.001s31.334 16 62.001 16h97c30.667 0 51.334 -5.33301 62.001 -16s16 -31.334 16 -62.001v-908c0 -132.667 33.167 -239.167 99.5 -319.5s161.833 -120.5 286.5 -120.5c105.333 0 195.166 31.833 269.499 95.5
s129.833 151.167 166.5 262.5s55 241.333 55 390v600c0 30.667 5.33301 51.334 16 62.001s31.334 16 62.001 16h100c30.667 0 51.334 -5.33301 62.001 -16s16 -31.334 16 -62.001v-924c0 -45.333 0.166992 -78.166 0.5 -98.499s1.16602 -48.5 2.49902 -84.5s4 -63.333 8 -82
s9.33301 -40.167 16 -64.5s15.334 -44.5 26.001 -60.5s23.667 -30.333 39 -43c2.66699 -2 6.33398 -5 11.001 -9c16.667 -13.333 28.167 -23.5 34.5 -30.5s11.833 -16.5 16.5 -28.5s7 -27.667 7 -47v-47c0 -31.333 -5.5 -52.333 -16.5 -63s-31.5 -13.667 -61.5 -9
c-52.667 8 -98.667 24.333 -138 49s-71.166 56 -95.499 94s-43.333 77.333 -57 118s-24.5 86.667 -32.5 138h-2c-48.667 -130.667 -116.667 -230.834 -204 -300.501s-187 -104.5 -299 -104.5c-79.333 0 -149.833 14.833 -211.5 44.5s-120.834 76.834 -177.501 141.501v-815
c0 -30.667 -5.33301 -51.334 -16 -62.001s-31.334 -16 -62.001 -16h-96c-30.667 0 -51.334 5.33301 -62.001 16s-16 31.334 -16 62.001z" />
    <glyph glyph-name="paragraph" unicode="&#xb6;" horiz-adv-x="2174" 
d="M888 -453l0.000976562 1436c-112 0 -216.667 17.833 -314 53.5s-179.833 84 -247.5 145s-120.834 133.167 -159.501 216.5s-58 171.666 -58 264.999c0 230.667 74.5 405.167 223.5 523.5s356.5 177.5 622.5 177.5h816c26 0 43.667 -4.66699 53 -14s14 -27 14 -53v-2750
c0 -26 -4.66699 -43.667 -14 -53s-27 -14 -53 -14h-125c-26 0 -43.667 4.66699 -53 14s-14 27 -14 53v2603h-433v-2603c0 -26 -4.66699 -43.667 -14 -53s-27 -14 -53 -14h-124c-26 0 -43.667 4.66699 -53 14s-14 27 -14 53z" />
    <glyph glyph-name="periodcentered" unicode="&#xb7;" horiz-adv-x="829" 
d="M224 970c0 52 18.667 96.001 56 132.001s82.333 54 135 54s97 -17.833 133 -53.5s54 -79.834 54 -132.501s-18 -97.167 -54 -133.5s-80.333 -54.5 -133 -54.5s-97.667 18.333 -135 55s-56 81 -56 133z" />
    <glyph glyph-name="cedilla" unicode="&#xb8;" horiz-adv-x="859" 
d="M165 -515c7.33301 0 17.9951 -2.66309 31.9951 -7.99609c49.333 -18.667 99.333 -28 150 -28c42.667 0 78.834 8.5 108.501 25.5s44.5 43.833 44.5 80.5c0 30 -13 56.167 -39 78.5s-55.167 38.666 -87.5 48.999s-67.5 17.833 -105.5 22.5
c-25.333 2.66699 -38 10.667 -38 24c0 7.33301 3.33301 16.333 10 27l146 244h187l-122 -190c44.667 -0.666992 87.334 -9.83398 128.001 -27.501s74.834 -44.834 102.501 -81.501s41.5 -78.667 41.5 -126c0 -50 -10.167 -93.833 -30.5 -131.5s-48.333 -67.334 -84 -89.001
s-75 -37.834 -118 -48.501s-89.5 -16 -139.5 -16c-75.333 0 -144.666 13.333 -207.999 40c-26 10.667 -39 24.667 -39 42c0 8.66699 2.66699 20.334 8 35.001l15 40c8.66699 25.333 21.334 38 38.001 38z" />
    <glyph glyph-name="onesuperior" unicode="&#xb9;" horiz-adv-x="832" 
d="M376 1463l0.000976562 1005l-186 -113c-18.667 -11.333 -33.667 -17 -45 -17c-16.667 0 -33.334 13.333 -50.001 40l-5 8c-12 18.667 -18 34 -18 46c0 16.667 12.667 33.667 38 51l319 224c22 15.333 38.5 24.666 49.5 27.999s29.833 5 56.5 5h10c22.667 0 38 -4 46 -12
s12 -23.333 12 -46v-1219c0 -26 -4.66699 -43.667 -14 -53s-27 -14 -53 -14h-93c-26 0 -43.667 4.66699 -53 14s-14 27 -14 53z" />
    <glyph glyph-name="ordmasculine" unicode="&#xba;" horiz-adv-x="1381" 
d="M143 1758c0 112 21.166 211.167 63.499 297.5s105.833 154.333 190.5 204s185 74.5 301 74.5c82.667 0 158.334 -14.167 227.001 -42.5s125.667 -67.5 171 -117.5s80.5 -109 105.5 -177s37.5 -141.333 37.5 -220c0 -112.667 -21 -212 -63 -298s-105 -153.667 -189 -203
s-184 -74 -300 -74c-169.333 0 -302.333 51 -399 153s-145 236.333 -145 403zM1019 1769c0 57.333 -6.49805 110.998 -19.498 160.998s-32.333 95 -58 135s-59.834 71.667 -102.501 95s-91.667 35 -147 35c-56 0 -105.5 -11.667 -148.5 -35s-77.167 -55.166 -102.5 -95.499
s-44.5 -85.166 -57.5 -134.499s-19.5 -102.333 -19.5 -159c0 -58.667 6.16699 -113.167 18.5 -163.5s31.166 -96 56.499 -137s59.5 -73.167 102.5 -96.5s92.833 -35 149.5 -35c98 0 177.167 36.5 237.5 109.5s90.5 179.833 90.5 320.5z" />
    <glyph glyph-name="guillemotright" unicode="&#xbb;" horiz-adv-x="1694" 
d="M601 852l-393 609.998c-12 18.667 -18 33.667 -18 45c0 20 19.667 30 59 30h110c38.667 0 66.167 -4.16699 82.5 -12.5s35.5 -28.166 57.5 -59.499l383 -541c20.667 -29.333 31 -53.333 31 -72c0 -19.333 -10.333 -43.333 -31 -72l-383 -542
c-22 -31.333 -41.167 -51.166 -57.5 -59.499s-43.833 -12.5 -82.5 -12.5h-110c-39.333 0 -59 10 -59 30c0 10.667 6 25.667 18 45zM927 1537l111 -0.00195312c38.667 0 66.167 -4.16699 82.5 -12.5s35.5 -28.166 57.5 -59.499l383 -541c20.667 -29.333 31 -53.333 31 -72
c0 -19.333 -10.333 -43.333 -31 -72l-383 -542c-22 -31.333 -41.167 -51.166 -57.5 -59.499s-43.833 -12.5 -82.5 -12.5h-111c-39.333 0 -59 10 -59 30c0 10.667 6 25.667 18 45l393 611l-393 610c-12 18.667 -18 33.667 -18 45c0 20 19.667 30 59 30z" />
    <glyph glyph-name="onequarter" unicode="&#xbc;" horiz-adv-x="2452" 
d="M2066 7l-88.001 0.00195312c-26 0 -43.667 4.66699 -53 14s-14 27 -14 53v255h-558c-23.333 0 -39.166 4.16699 -47.499 12.5s-12.5 24.166 -12.5 47.499v10c0 27.333 1.83301 46.666 5.5 57.999s13.167 28.333 28.5 51l541 788c16.667 23.333 31.167 38.333 43.5 45
s32.833 10 61.5 10h93c26 0 43.667 -4.66699 53 -14s14 -27 14 -53v-785h124c26 0 43.667 -4.66699 53 -14s14 -27 14 -53v-36c0 -26 -4.66699 -43.667 -14 -53s-27 -14 -53 -14h-124v-255c0 -26 -4.66699 -43.667 -14 -53s-27 -14 -53 -14zM425.999 1079l0.000976562 1005
l-185 -112c-19.333 -11.333 -34.333 -17 -45 -17c-16.667 0 -33.334 13 -50.001 39l-6 9c-12 19.333 -18 34.666 -18 45.999c0 16.667 12.667 33.667 38 51l319 223c22 15.333 38.5 24.666 49.5 27.999s29.833 5 56.5 5h10c22.667 0 38 -4 46 -12s12 -23.333 12 -46v-1219
c0 -26 -4.66699 -43.667 -14 -53s-27 -14 -53 -14h-93c-26 0 -43.667 4.66699 -53 14s-14 27 -14 53zM374 -28.9961l1365 2421c14 24.667 27 40.5 39 47.5s32.333 10.5 61 10.5h103c30.667 0 46 -8 46 -24c0 -8.66699 -4 -20 -12 -34l-1365 -2421
c-14 -24.667 -27 -40.5 -39 -47.5s-32.333 -10.5 -61 -10.5h-103c-30.667 0 -46 8 -46 24c0 8.66699 4 20 12 34zM1533 499.004h378l1 560z" />
    <glyph glyph-name="onehalf" unicode="&#xbd;" horiz-adv-x="2601" 
d="M2392 3l-818.999 -0.00292969c-26.667 0 -44.667 4.66699 -54 14s-14 27.333 -14 54v10c0 30.667 2.5 52.334 7.5 65.001s18.167 30 39.5 52l490 515c22.667 24 40.667 43.667 54 59s27.666 34.5 42.999 57.5s26.5 46.667 33.5 71s10.5 50.166 10.5 77.499
c0 67.333 -21.167 122.833 -63.5 166.5s-96.5 65.5 -162.5 65.5c-54.667 0 -105.167 -17.667 -151.5 -53s-82.5 -80.666 -108.5 -135.999c-12.667 -26.667 -25 -43.667 -37 -51s-31.667 -9.66602 -59 -6.99902l-10 1c-22 3.33301 -37.833 8.5 -47.5 15.5
s-14.5 17.833 -14.5 32.5c0 10.667 1.66699 21.334 5 32.001c30.667 110 84.834 192.167 162.501 246.5s171.5 81.5 281.5 81.5c81.333 0 154.833 -14.667 220.5 -44s118.5 -73.666 158.5 -132.999s60 -128.666 60 -207.999c0 -40.667 -4.83301 -78.334 -14.5 -113.001
s-24.334 -66.834 -44.001 -96.501s-39 -55.667 -58 -78s-43.167 -48.5 -72.5 -78.5l-20 -20l-411 -423h595c26 0 43.667 -4.66699 53 -14s14 -27 14 -53v-41c0 -26 -4.66699 -43.667 -14 -53s-27 -14 -53 -14zM145.001 1994l-5.99902 9.00195
c-12 19.333 -18 34.666 -18 45.999c0 16.667 12.667 33.667 38 51l319 223c22 15.333 38.5 24.666 49.5 27.999s29.833 5 56.5 5h10c22.667 0 38 -4 46 -12s12 -23.333 12 -46v-1219c0 -26 -4.66699 -43.667 -14 -53s-27 -14 -53 -14h-93c-26 0 -43.667 4.66699 -53 14
s-14 27 -14 53v1005l-185 -112c-19.333 -11.333 -34.333 -17 -45 -17c-16.667 0 -33.334 13 -50.001 39zM1837 2450h103c30.667 0 46 -8 46 -24c0 -8.66699 -4 -20 -12 -34l-1364 -2421c-14 -24.667 -27 -40.5 -39 -47.5s-32.333 -10.5 -61 -10.5h-103
c-30.667 0 -46 8 -46 24c0 8.66699 4 20 12 34l1364 2421c14 24.667 27 40.5 39 47.5s32.333 10.5 61 10.5z" />
    <glyph glyph-name="threequarters" unicode="&#xbe;" horiz-adv-x="2722" 
d="M206 1376c14 4 26.001 5.99902 36.001 5.99902c14 0 25.833 -4 35.5 -12s19.834 -21.667 30.501 -41c32.667 -55.333 74.334 -98.666 125.001 -129.999s106.667 -47 168 -47c78 0 142.833 19 194.5 57s77.5 94.333 77.5 169c0 81.333 -28.667 145.833 -86 193.5
s-133 71.5 -227 71.5h-7c-28.667 0 -48.167 5.16699 -58.5 15.5s-15.5 29.833 -15.5 58.5v10c0 28.667 5.16699 48.167 15.5 58.5s29.833 15.5 58.5 15.5h10c77.333 0 140.666 17.833 189.999 53.5s74 88.834 74 159.501c0 60.667 -20.5 110.167 -61.5 148.5
s-91.5 57.5 -151.5 57.5c-118.667 0 -209.667 -55.667 -273 -167c-11.333 -19.333 -21.5 -32.666 -30.5 -39.999s-20.5 -11 -34.5 -11c-10.667 0 -22.334 1.33301 -35.001 4l-10 2c-20 5.33301 -34.5 11.666 -43.5 18.999s-13.5 17.333 -13.5 30c0 10 3 22.667 9 38
c33.333 89.333 87.833 159.5 163.5 210.5s168.167 76.5 277.5 76.5c56.667 0 110.5 -7.66699 161.5 -23s96.667 -37.166 137 -65.499s72.5 -65.5 96.5 -111.5s36 -97.667 36 -155c0 -68 -19.333 -127.667 -58 -179s-89.667 -91 -153 -119
c79.333 -22.667 142.833 -66.834 190.5 -132.501s71.5 -140.5 71.5 -224.5c0 -54.667 -9.33301 -104 -28 -148s-43.667 -80.5 -75 -109.5s-68.5 -53.167 -111.5 -72.5s-87.833 -33.333 -134.5 -42s-95.334 -13 -146.001 -13c-108.667 0 -204.167 26.833 -286.5 80.5
s-141.5 126.167 -177.5 217.5c-6 15.333 -9 27.666 -9 36.999c0 23.333 19.333 40.333 58 51zM2194 73.999l-0.000976562 255.002h-559c-23.333 0 -39.166 4.16699 -47.499 12.5s-12.5 24.166 -12.5 47.499v10c0 27.333 1.83301 46.666 5.5 57.999s13.167 28.333 28.5 51
l542 788c16.667 23.333 31.167 38.333 43.5 45s32.833 10 61.5 10h92c26 0 43.667 -4.66699 53 -14s14 -27 14 -53v-785h125c26 0 43.667 -4.66699 53 -14s14 -27 14 -53v-36c0 -26 -4.66699 -43.667 -14 -53s-27 -14 -53 -14h-125v-255c0 -26 -4.66699 -43.667 -14 -53
s-27 -14 -53 -14h-87c-26 0 -43.667 4.66699 -53 14s-14 27 -14 53zM794 -86.999h-103c-30.667 0 -46 8 -46 24c0 8.66699 4 20 12 34l1364 2421c14 24.667 27 40.5 39 47.5s32.333 10.5 61 10.5h104c30.667 0 46 -8 46 -24c0 -8.66699 -4 -20 -12 -34l-1365 -2421
c-14 -24.667 -27 -40.5 -39 -47.5s-32.333 -10.5 -61 -10.5zM1816 499.001h378l1 560z" />
    <glyph glyph-name="questiondown" unicode="&#xbf;" horiz-adv-x="1601" 
d="M973 884c0 -42 -2.66895 -80.6631 -8.00195 -115.996s-14.666 -68.833 -27.999 -100.5s-26.5 -59 -39.5 -82s-32.5 -49.167 -58.5 -78.5s-48.5 -53.5 -67.5 -72.5s-46.833 -45.5 -83.5 -79.5c-30.667 -28.667 -53.834 -50.667 -69.501 -66s-35.167 -37 -58.5 -65
s-40.833 -53.333 -52.5 -76s-22 -50.167 -31 -82.5s-13.5 -65.833 -13.5 -100.5c0 -106 35.333 -191.833 106 -257.5s160.667 -98.5 270 -98.5c202 0 351 103.667 447 311c12.667 27.333 25 46.833 37 58.5s27.333 17.5 46 17.5c14 0 30.333 -3 49 -9l10 -3
c28.667 -8 49.334 -17.333 62.001 -28s19 -25.334 19 -44.001c0 -14 -3 -30.333 -9 -49c-46.667 -152 -128.5 -270.5 -245.5 -355.5s-264.167 -127.5 -441.5 -127.5c-70.667 0 -138.667 7.33301 -204 22s-126.5 37.667 -183.5 69s-106.5 69.166 -148.5 113.499
s-75.167 98 -99.5 161s-36.5 131.833 -36.5 206.5c0 39.333 3.5 76.833 10.5 112.5s15.167 67.334 24.5 95.001s23.833 56.5 43.5 86.5s37.167 55.167 52.5 75.5s37.833 44.666 67.5 72.999s53.667 50.666 72 66.999s45.5 39.833 81.5 70.5c56 47.333 96.667 83.5 122 108.5
s49.833 58.167 73.5 99.5s41 86.166 52 134.499s22.5 115.5 34.5 201.5c4.66699 31.333 13 52.333 25 63s34 16 66 16h10c31.333 0 52.833 -5.5 64.5 -16.5s18.834 -31.833 21.501 -62.5c7.33301 -83.333 11 -147.333 11 -192zM1062 1617c0 -52 -18.667 -95.833 -56 -131.5
s-82.333 -53.5 -135 -53.5s-97 17.667 -133 53s-54 79.333 -54 132s18 97.167 54 133.5s80.333 54.5 133 54.5s97.667 -18.333 135 -55s56 -81 56 -133z" />
    <glyph glyph-name="Agrave" unicode="&#xc0;" horiz-adv-x="2280" 
d="M170 0h-61c-56.667 0 -85 16 -85 48c0 15.333 5.33301 34.666 16 57.999l989 2186c13.333 30 27.166 49.5 41.499 58.5s38.166 13.5 71.499 13.5h10c32.667 0 56 -4.5 70 -13.5s27.667 -28.833 41 -59.5l969 -2184c10.667 -25.333 16 -44.666 16 -57.999
c0 -32.667 -28.667 -49 -86 -49h-112c-48.667 0 -83.167 6.66699 -103.5 20s-40.166 42.333 -59.499 87l-234 545h-1087l-233 -545c-19.333 -44.667 -39.166 -73.667 -59.499 -87s-54.833 -20 -103.5 -20zM908 2637l-297.999 265c-24 22 -36 39.333 -36 52
c0 17.333 22 26 66 26h150c50.667 0 87 -5.33301 109 -16s49 -35.667 81 -75l193 -239c20 -24 30 -43.333 30 -58c0 -23.333 -25 -35 -75 -35h-10c-54 0 -92.333 4.33301 -115 13s-54.334 31 -95.001 67zM1559 869l-441 1073l-457 -1073h898z" />
    <glyph glyph-name="Aacute" unicode="&#xc1;" horiz-adv-x="2280" 
d="M169 0h-61c-56.667 0 -85 16 -85 48c0 15.333 5.33301 34.666 16 57.999l989 2186c13.333 30 27.166 49.5 41.499 58.5s38.166 13.5 71.499 13.5h10c32.667 0 56 -4.5 70 -13.5s27.667 -28.833 41 -59.5l969 -2184c10.667 -25.333 16 -44.666 16 -57.999
c0 -32.667 -28.667 -49 -86 -49h-112c-48.667 0 -83.167 6.66699 -103.5 20s-40.166 42.333 -59.499 87l-234 545h-1087l-233 -545c-19.333 -44.667 -39.166 -73.667 -59.499 -87s-54.833 -20 -103.5 -20zM1114 2644l193.001 238c32 39.333 59 64.333 81 75
s58.333 16 109 16h149c44 0 66 -8.66699 66 -26c0 -12.667 -12 -30 -36 -52l-297 -265c-40.667 -36 -72.334 -58.333 -95.001 -67s-61 -13 -115 -13h-10c-50 0 -75 11.667 -75 35c0 14 10 33.667 30 59zM1558 869l-441 1072l-457 -1072h898z" />
    <glyph glyph-name="Acircumflex" unicode="&#xc2;" horiz-adv-x="2277" 
d="M2160 0h-112c-48.667 0 -83.167 6.66699 -103.5 20s-40.166 42.333 -59.499 87l-234 545h-1087l-233 -545c-19.333 -44.667 -39.166 -73.667 -59.499 -87s-54.833 -20 -103.5 -20h-61c-56.667 0 -85 16 -85 48c0 15.333 5.33301 34.666 16 57.999l989 2186
c13.333 30 27.166 49.5 41.499 58.5s38.166 13.5 71.499 13.5h10c32.667 0 56 -4.5 70 -13.5s27.667 -28.833 41 -59.5l969 -2184c10.667 -25.333 16 -44.666 16 -57.999c0 -32.667 -28.667 -49 -86 -49zM790 2550l-10.001 0.000976562c-51.333 0 -77 11.333 -77 34
c0 16 11.333 36.667 34 62l210 240c33.333 38 61 62 83 72s58 15 108 15h10c50.667 0 86.834 -4.83301 108.501 -14.5s49.5 -33.5 83.5 -71.5l215 -241c23.333 -26.667 35 -47.334 35 -62.001c0 -22.667 -26 -34 -78 -34h-10c-56 0 -96.167 5.83301 -120.5 17.5
s-54.5 39.167 -90.5 82.5l-143 174l-149 -177c-36 -42.667 -66 -69.5 -90 -80.5s-63.667 -16.5 -119 -16.5zM658.999 869.001h898l-441 1073z" />
    <glyph glyph-name="Atilde" unicode="&#xc3;" horiz-adv-x="2279" 
d="M720 2627c0 4.66699 1.33203 14.998 3.99902 30.998c18 85.333 49.667 151 95 197s95.666 69 150.999 69c37.333 0 70.833 -5.66699 100.5 -17s53.667 -25.333 72 -42s35 -33.167 50 -49.5s30.833 -30.166 47.5 -41.499s34 -17 52 -17c39.333 0 68 25.333 86 76
c12 34 24.167 56.333 36.5 67s34.833 16 67.5 16h10c27.333 0 47 -4.16699 59 -12.5s18 -22.166 18 -41.499c0 -4.66699 -1.33301 -15 -4 -31c-18 -85.333 -49.667 -150.666 -95 -195.999s-95.666 -68 -150.999 -68c-37.333 0 -70.833 5.66699 -100.5 17
s-53.5 25.166 -71.5 41.499s-34.667 32.833 -50 49.5s-31.166 30.667 -47.499 42s-33.833 17 -52.5 17c-39.333 0 -68 -25.333 -86 -76c-12 -34 -24.167 -56.5 -36.5 -67.5s-34.833 -16.5 -67.5 -16.5h-10c-26.667 0 -46.167 4 -58.5 12s-18.5 21.667 -18.5 41zM1141 2364
h10c32.667 0 56 -4.5 70 -13.5s27.667 -28.833 41 -59.5l969 -2184c10.667 -25.333 16 -44.666 16 -57.999c0 -32.667 -28.667 -49 -86 -49h-112c-48.667 0 -83.167 6.66699 -103.5 20s-40.166 42.333 -59.499 87l-234 545h-1087l-233 -545
c-19.333 -44.667 -39.166 -73.667 -59.499 -87s-54.833 -20 -103.5 -20h-61c-56.667 0 -85 16 -85 48c0 15.333 5.33301 34.666 16 57.999l989 2186c13.333 30 27.166 49.5 41.499 58.5s38.166 13.5 71.499 13.5zM1117 1941l-457 -1072h898z" />
    <glyph glyph-name="Adieresis" unicode="&#xc4;" horiz-adv-x="2278" 
d="M168 0h-61c-56.667 0 -85 16 -85 48c0 15.333 5.33301 34.666 16 57.999l989 2186c13.333 30 27.166 49.5 41.499 58.5s38.166 13.5 71.499 13.5h10c32.667 0 56 -4.5 70 -13.5s27.667 -28.833 41 -59.5l969 -2184c10.667 -25.333 16 -44.666 16 -57.999
c0 -32.667 -28.667 -49 -86 -49h-112c-48.667 0 -83.167 6.66699 -103.5 20s-40.166 42.333 -59.499 87l-234 545h-1087l-233 -545c-19.333 -44.667 -39.166 -73.667 -59.499 -87s-54.833 -20 -103.5 -20zM831 2909c49.333 0 89.833 -16.6689 121.5 -50.002
s47.5 -74.666 47.5 -123.999c0 -50 -15.833 -91.667 -47.5 -125s-72.167 -50 -121.5 -50s-91.666 16.833 -126.999 50.5s-53 75.167 -53 124.5c0 48.667 17.667 89.834 53 123.501s77.666 50.5 126.999 50.5zM1470 2909c49.333 0 90.333 -16.6689 123 -50.002
s49 -74.666 49 -123.999c0 -50 -16.333 -91.667 -49 -125s-73.667 -50 -123 -50s-91 16.833 -125 50.5s-51 75.167 -51 124.5c0 48.667 17 89.834 51 123.501s75.667 50.5 125 50.5zM659 868.996h898l-441 1072z" />
    <glyph glyph-name="Aring" unicode="&#xc5;" horiz-adv-x="2278" 
d="M168 0h-61c-56.667 0 -85 16 -85 48c0 15.333 5.33301 34.666 16 57.999l989 2186c13.333 30 27.166 49.5 41.499 58.5s38.166 13.5 71.499 13.5h10c32.667 0 56 -4.5 70 -13.5s27.667 -28.833 41 -59.5l969 -2184c10.667 -25.333 16 -44.666 16 -57.999
c0 -32.667 -28.667 -49 -86 -49h-112c-48.667 0 -83.167 6.66699 -103.5 20s-40.166 42.333 -59.499 87l-234 545h-1087l-233 -545c-19.333 -44.667 -39.166 -73.667 -59.499 -87s-54.833 -20 -103.5 -20zM1143 3208c95.333 0 176.5 -33.667 243.5 -101
s100.5 -148.333 100.5 -243s-33.667 -175.667 -101 -243s-148.333 -101 -243 -101s-175.5 33.667 -242.5 101s-100.5 148.333 -100.5 243s33.5 175.667 100.5 243s147.833 101 242.5 101zM1143 3060c-54 0 -100 -19.167 -138 -57.5s-57 -84.5 -57 -138.5
s19 -100.167 57 -138.5s84 -57.5 138 -57.5s100.167 19.167 138.5 57.5s57.5 84.5 57.5 138.5s-19.167 100.167 -57.5 138.5s-84.5 57.5 -138.5 57.5zM659 869h898l-441 1072z" />
    <glyph glyph-name="AE" unicode="&#xc6;" horiz-adv-x="3200" 
d="M1891 1123l114.001 -905.999h934c40 0 67.167 -7.16699 81.5 -21.5s21.5 -41.5 21.5 -81.5v-10c0 -40.667 -7.16699 -68.167 -21.5 -82.5s-41.5 -21.5 -81.5 -21.5h-1099c-46.667 0 -78.834 7.83301 -96.501 23.5s-29.5 46.5 -35.5 92.5l-68 536h-963l-375 -555
c-28.667 -42 -53.5 -68.667 -74.5 -80s-56.833 -17 -107.5 -17h-62c-50.667 0 -76 12.333 -76 37c0 16 8.33301 35.667 25 59l1490 2172c28.667 41.333 53.667 67.666 75 78.999s57.333 17 108 17h1200c40.667 0 68.167 -7.16699 82.5 -21.5s21.5 -41.833 21.5 -82.5v-10
c0 -40.667 -7.16699 -68.334 -21.5 -83.001s-41.833 -22 -82.5 -22h-1118l102 -807h932c39.333 0 66.166 -7.16699 80.499 -21.5s21.5 -41.166 21.5 -80.499v-10c0 -40 -7.16699 -67.167 -21.5 -81.5s-41.166 -21.5 -80.499 -21.5h-905zM1613 869.001l-115 998l-674 -998
h789z" />
    <glyph glyph-name="Ccedilla" unicode="&#xc7;" horiz-adv-x="2358" 
d="M1968 1858c-75.333 98.667 -165.836 176.5 -271.503 233.5s-220.5 85.5 -344.5 85.5c-112 0 -215 -18 -309 -54s-174 -85.167 -240 -147.5s-122.167 -135.666 -168.5 -219.999s-80.333 -174.833 -102 -271.5s-32.5 -197.334 -32.5 -302.001
c0 -104 11.333 -204.5 34 -301.5s57.334 -187.667 104.001 -272s103.334 -157.666 170.001 -219.999s146.667 -111.5 240 -147.5s195 -54 305 -54c134.667 0 258.5 30.167 371.5 90.5s209.833 144.5 290.5 252.5c26 34.667 50 52 72 52c14 0 33 -6.33301 57 -19l9 -5
c38 -20.667 57 -42 57 -64c0 -14.667 -6.33301 -33.334 -19 -56.001c-78.667 -139.333 -181.834 -250.166 -309.501 -332.499s-277.167 -130.5 -448.5 -144.5l-86 -134c70 -0.666992 132.667 -22.5 188 -65.5s83 -99.833 83 -170.5c0 -50 -10.167 -93.833 -30.5 -131.5
s-48.166 -67.5 -83.499 -89.5s-74.666 -38.167 -117.999 -48.5s-90 -15.5 -140 -15.5c-66.667 0 -131.334 11.667 -194.001 35c-33.333 12.667 -50 30 -50 52c0 11.333 3.66699 26.333 11 45l4 10c12 31.333 28.333 47 49 47c9.33301 0 23 -2.66699 41 -8
c48 -14.667 93 -22 135 -22c42.667 0 78.834 8.5 108.501 25.5s44.5 44.167 44.5 81.5c0 36 -16.333 65.5 -49 88.5s-73.667 40.167 -123 51.5c-52 12 -78 30.333 -78 55c0 15.333 7.33301 34.666 22 57.999l80 134c-132 7.33301 -255.333 33.333 -370 78
s-215 104.167 -301 178.5s-159.667 160.833 -221 259.5s-107.666 207.5 -138.999 326.5s-47 243.833 -47 374.5c0 136.667 17 266.834 51 390.501s84.333 236.5 151 338.5s146.5 190.5 239.5 265.5s201.833 133.167 326.5 174.5s259 62 403 62
c185.333 0 348.333 -40 489 -120s250 -191.333 328 -334c12.667 -22.667 19 -42.334 19 -59.001c0 -26 -20.667 -48.333 -62 -67l-9 -4c-28.667 -12 -49.334 -18 -62.001 -18c-22.667 0 -47.667 17.667 -75 53z" />
    <glyph glyph-name="Egrave" unicode="&#xc8;" horiz-adv-x="1967" 
d="M1669 2145l-1044 0.00195312v-807h936c39.333 0 66.166 -7.16699 80.499 -21.5s21.5 -41.166 21.5 -80.499v-10c0 -40 -7.16699 -67.167 -21.5 -81.5s-41.166 -21.5 -80.499 -21.5h-936v-906h1063c40 0 67.167 -7.16699 81.5 -21.5s21.5 -41.5 21.5 -81.5v-10
c0 -40.667 -7.16699 -68.167 -21.5 -82.5s-41.5 -21.5 -81.5 -21.5h-1256c-45.333 0 -76.166 8.16699 -92.499 24.5s-24.5 47.166 -24.5 92.499v2130c0 45.333 8.16699 76.166 24.5 92.499s47.166 24.5 92.499 24.5h1237c40.667 0 68.167 -7.16699 82.5 -21.5
s21.5 -41.833 21.5 -82.5v-10c0 -40.667 -7.16699 -68.334 -21.5 -83.001s-41.833 -22 -82.5 -22zM1118 2557h-9.99805c-54.667 0 -93.334 4.33301 -116.001 13s-54.334 31 -95.001 67l-297 265c-24 22 -36 39.333 -36 52c0 17.333 22 26 66 26h149
c50.667 0 87 -5.33301 109 -16s49 -35.667 81 -75l193 -238c20 -24.667 30 -44.667 30 -60c0 -22.667 -24.667 -34 -74 -34z" />
    <glyph glyph-name="Eacute" unicode="&#xc9;" horiz-adv-x="1965" 
d="M1669 2145l-1044 0.00195312v-807h936c39.333 0 66.166 -7.16699 80.499 -21.5s21.5 -41.166 21.5 -80.499v-10c0 -40 -7.16699 -67.167 -21.5 -81.5s-41.166 -21.5 -80.499 -21.5h-936v-906h1063c40 0 67.167 -7.16699 81.5 -21.5s21.5 -41.5 21.5 -81.5v-10
c0 -40.667 -7.16699 -68.167 -21.5 -82.5s-41.5 -21.5 -81.5 -21.5h-1256c-45.333 0 -76.166 8.16699 -92.499 24.5s-24.5 47.166 -24.5 92.499v2130c0 45.333 8.16699 76.166 24.5 92.499s47.166 24.5 92.499 24.5h1237c40.667 0 68.167 -7.16699 82.5 -21.5
s21.5 -41.833 21.5 -82.5v-10c0 -40.667 -7.16699 -68.334 -21.5 -83.001s-41.833 -22 -82.5 -22zM983 2550h-9.99902c-50 0 -75 11.667 -75 35c0 14 10 33.667 30 59l193 238c32 39.333 59 64.333 81 75s58.333 16 109 16h150c44 0 66 -8.66699 66 -26
c0 -12.667 -12 -30 -36 -52l-298 -265c-40.667 -36 -72.334 -58.333 -95.001 -67s-61 -13 -115 -13z" />
    <glyph glyph-name="Ecircumflex" unicode="&#xca;" horiz-adv-x="1966" 
d="M1688 0l-1256 0.000976562c-45.333 0 -76.166 8.16699 -92.499 24.5s-24.5 47.166 -24.5 92.499v2130c0 45.333 8.16699 76.166 24.5 92.499s47.166 24.5 92.499 24.5h1237c40.667 0 68.167 -7.16699 82.5 -21.5s21.5 -41.833 21.5 -82.5v-10
c0 -40.667 -7.16699 -68.167 -21.5 -82.5s-41.833 -21.5 -82.5 -21.5h-1044v-808h936c39.333 0 66.166 -7.16699 80.499 -21.5s21.5 -41.166 21.5 -80.499v-10c0 -40 -7.16699 -67.167 -21.5 -81.5s-41.166 -21.5 -80.499 -21.5h-936v-906h1063
c40 0 67.167 -7.16699 81.5 -21.5s21.5 -41.5 21.5 -81.5v-10c0 -40.667 -7.16699 -68.167 -21.5 -82.5s-41.5 -21.5 -81.5 -21.5zM642 2646l210.998 241.001c33.333 38 60.833 61.833 82.5 71.5s57.834 14.5 108.501 14.5h10c50.667 0 86.834 -4.83301 108.501 -14.5
s49.5 -33.5 83.5 -71.5l215 -241c23.333 -26.667 35 -47.334 35 -62.001c0 -22.667 -26 -34 -78 -34h-10c-56 0 -96.167 5.83301 -120.5 17.5s-54.5 39.167 -90.5 82.5l-143 174l-150 -177c-36 -42.667 -66 -69.5 -90 -80.5s-63.667 -16.5 -119 -16.5h-10
c-51.333 0 -77 11.333 -77 34c0 16 11.333 36.667 34 62z" />
    <glyph glyph-name="Edieresis" unicode="&#xcb;" horiz-adv-x="1967" 
d="M1688 0l-1256 0.000976562c-45.333 0 -76.166 8.16699 -92.499 24.5s-24.5 47.166 -24.5 92.499v2130c0 45.333 8.16699 76.166 24.5 92.499s47.166 24.5 92.499 24.5h1237c40.667 0 68.167 -7.16699 82.5 -21.5s21.5 -41.833 21.5 -82.5v-10
c0 -40.667 -7.16699 -68.167 -21.5 -82.5s-41.833 -21.5 -82.5 -21.5h-1044v-808h936c39.333 0 66.166 -7.16699 80.499 -21.5s21.5 -41.166 21.5 -80.499v-10c0 -40 -7.16699 -67.167 -21.5 -81.5s-41.166 -21.5 -80.499 -21.5h-936v-906h1063
c40 0 67.167 -7.16699 81.5 -21.5s21.5 -41.5 21.5 -81.5v-10c0 -40.667 -7.16699 -68.167 -21.5 -82.5s-41.5 -21.5 -81.5 -21.5zM556 2738c0 48.667 17.5 89.832 52.5 123.499s77.5 50.5 127.5 50.5c48.667 0 88.834 -16.667 120.501 -50s47.5 -74.666 47.5 -123.999
c0 -50 -15.833 -91.667 -47.5 -125s-71.834 -50 -120.501 -50c-50 0 -92.5 16.833 -127.5 50.5s-52.5 75.167 -52.5 124.5zM1198 2738c0 48.667 17.167 89.832 51.5 123.499s76.166 50.5 125.499 50.5c48.667 0 89.5 -16.667 122.5 -50s49.5 -74.666 49.5 -123.999
s-16.5 -90.833 -49.5 -124.5s-73.833 -50.5 -122.5 -50.5c-49.333 0 -91.166 16.833 -125.499 50.5s-51.5 75.167 -51.5 124.5z" />
    <glyph glyph-name="Igrave" unicode="&#xcc;" horiz-adv-x="939" 
d="M515 2557h-9.99805c-54.667 0 -93.334 4.33301 -116.001 13s-54.334 31 -95.001 67l-297 265c-24 22 -36 39.333 -36 52c0 17.333 22 26 66 26h149c50.667 0 87 -5.33301 109 -16s49 -35.667 81 -75l193 -238c20 -24.667 30 -44.667 30 -60
c0 -22.667 -24.667 -34 -74 -34zM314.002 117v2130c0 45.333 8.16699 76.166 24.5 92.499s47.166 24.5 92.499 24.5h76c45.333 0 76.166 -8.16699 92.499 -24.5s24.5 -47.166 24.5 -92.499v-2130c0 -45.333 -8.16699 -76.166 -24.5 -92.499s-47.166 -24.5 -92.499 -24.5h-76
c-45.333 0 -76.166 8.16699 -92.499 24.5s-24.5 47.166 -24.5 92.499z" />
    <glyph glyph-name="Iacute" unicode="&#xcd;" horiz-adv-x="940" 
d="M397 2644l193.001 238c32 39.333 59 64.333 81 75s58.333 16 109 16h149c44 0 66 -8.66699 66 -26c0 -12.667 -12 -30 -36 -52l-297 -265c-40.667 -36 -72.334 -58.333 -95.001 -67s-61 -13 -115 -13h-10c-50 0 -75 11.667 -75 35c0 14 10 33.667 30 59zM508.001 0h-76
c-45.333 0 -76.166 8.16699 -92.499 24.5s-24.5 47.166 -24.5 92.499v2130c0 45.333 8.16699 76.166 24.5 92.499s47.166 24.5 92.499 24.5h76c45.333 0 76.166 -8.16699 92.499 -24.5s24.5 -47.166 24.5 -92.499v-2130c0 -45.333 -8.16699 -76.166 -24.5 -92.499
s-47.166 -24.5 -92.499 -24.5z" />
    <glyph glyph-name="Icircumflex" unicode="&#xce;" horiz-adv-x="940" 
d="M113 2550l-10.002 0.000976562c-51.333 0 -77 11.333 -77 34c0 16 11.333 36.667 34 62l210 240c33.333 38 61 62 83 72s58 15 108 15h10c50.667 0 86.834 -4.83301 108.501 -14.5s49.5 -33.5 83.5 -71.5l215 -241c23.333 -26.667 35 -47.334 35 -62.001
c0 -22.667 -26 -34 -78 -34h-10c-56.667 0 -97.167 5.83301 -121.5 17.5s-54.166 39.167 -89.499 82.5l-142 174l-150 -177c-36 -42.667 -66 -69.5 -90 -80.5s-63.667 -16.5 -119 -16.5zM314.998 117.001v2130c0 45.333 8.16699 76.166 24.5 92.499s47.166 24.5 92.499 24.5
h76c45.333 0 76.166 -8.16699 92.499 -24.5s24.5 -47.166 24.5 -92.499v-2130c0 -45.333 -8.16699 -76.166 -24.5 -92.499s-47.166 -24.5 -92.499 -24.5h-76c-45.333 0 -76.166 8.16699 -92.499 24.5s-24.5 47.166 -24.5 92.499z" />
    <glyph glyph-name="Idieresis" unicode="&#xcf;" horiz-adv-x="938" 
d="M507 0h-76c-45.333 0 -76.166 8.16699 -92.499 24.5s-24.5 47.166 -24.5 92.499v2130c0 45.333 8.16699 76.166 24.5 92.499s47.166 24.5 92.499 24.5h76c45.333 0 76.166 -8.16699 92.499 -24.5s24.5 -47.166 24.5 -92.499v-2130
c0 -45.333 -8.16699 -76.166 -24.5 -92.499s-47.166 -24.5 -92.499 -24.5zM153 2912c49.333 0 89.833 -16.6689 121.5 -50.002s47.5 -74.666 47.5 -123.999c0 -50 -15.833 -91.667 -47.5 -125s-72.167 -50 -121.5 -50s-91.666 16.833 -126.999 50.5s-53 75.167 -53 124.5
c0 48.667 17.667 89.834 53 123.501s77.666 50.5 126.999 50.5zM792 2912c49.333 0 90.333 -16.6689 123 -50.002s49 -74.666 49 -123.999c0 -50 -16.333 -91.667 -49 -125s-73.667 -50 -123 -50s-91 16.833 -125 50.5s-51 75.167 -51 124.5c0 48.667 17 89.834 51 123.501
s75.667 50.5 125 50.5z" />
    <glyph glyph-name="Ntilde" unicode="&#xd1;" horiz-adv-x="2604" 
d="M898 2658c18 85.333 49.668 150.998 95.001 196.998s95.666 69 150.999 69c37.333 0 70.833 -5.66699 100.5 -17s53.667 -25.333 72 -42s35 -33.167 50 -49.5s30.833 -30.166 47.5 -41.499s34 -17 52 -17c39.333 0 68 25.333 86 76c12 34 24.167 56.333 36.5 67
s34.833 16 67.5 16h10c27.333 0 47 -4.16699 59 -12.5s18 -22.166 18 -41.499c0 -4.66699 -1.33301 -15 -4 -31c-18 -85.333 -49.667 -150.666 -95 -195.999s-95.666 -68 -150.999 -68c-37.333 0 -70.833 5.66699 -100.5 17s-53.667 25.166 -72 41.499s-35 32.833 -50 49.5
s-30.833 30.667 -47.5 42s-34.334 17 -53.001 17c-39.333 0 -67.666 -25.667 -84.999 -77c-11.333 -33.333 -23.333 -55.5 -36 -66.5s-35.334 -16.5 -68.001 -16.5h-10c-26.667 0 -46.167 4 -58.5 12s-18.5 21.667 -18.5 41c0 4.66699 1.33301 15 4 31zM2183 -0.00195312
l-10.001 0.000976562c-46 0 -78.833 4.83301 -98.5 14.5s-43.5 32.834 -71.5 69.501l-1422 1861v-1817c0 -49.333 -9 -83 -27 -101s-51.667 -27 -101 -27h-10c-49.333 0 -83 9 -101 27s-27 51.667 -27 101v2119c0 45.333 8.16699 76.166 24.5 92.499
s47.166 24.5 92.499 24.5h85c50.667 0 86.834 -5.33301 108.501 -16s47.834 -36.334 78.501 -77.001l1319 -1741v1706c0 49.333 9 83 27 101s51.667 27 101 27h10c49.333 0 83 -9 101 -27s27 -51.667 27 -101v-2130c0 -41.333 -7.5 -69.333 -22.5 -84s-42.833 -22 -83.5 -22
z" />
    <glyph glyph-name="Ograve" unicode="&#xd2;" horiz-adv-x="2682" 
d="M1419 2570h-9.99805c-54.667 0 -93.334 4.33301 -116.001 13s-54.334 31 -95.001 67l-298 265c-24 22 -36 39.333 -36 52c0 17.333 22 26 66 26h150c50.667 0 87 -5.33301 109 -16s49 -35.667 81 -75l193 -238c20 -25.333 30 -45.333 30 -60
c0 -22.667 -24.667 -34 -74 -34zM1345 2407c170.667 0 329.001 -30.501 475.001 -91.501s269.833 -145 371.5 -252s181.334 -236 239.001 -387s86.5 -314.167 86.5 -489.5c0 -177.333 -27.833 -341.666 -83.5 -492.999s-133.667 -281.333 -234 -390
s-223.833 -193.667 -370.5 -255s-308 -92 -484 -92s-337.833 30.5 -485.5 91.5s-272.334 145.167 -374.001 252.5s-180.667 236.5 -237 387.5s-84.5 314.5 -84.5 490.5c0 180 28.667 346.167 86 498.5s137.166 282 239.499 389s227 190.5 374 250.5s307.5 90 481.5 90z
M1342 2188c-128 0 -245.496 -26.1709 -352.496 -78.5039s-196.333 -123.666 -268 -213.999s-127.334 -196.666 -167.001 -318.999s-59.5 -253.166 -59.5 -392.499c0 -137.333 18.833 -266.666 56.5 -387.999s91.5 -228.333 161.5 -321s159.333 -166 268 -220
s229.667 -81 363 -81c108 0 208 18 300 54s170.833 85.5 236.5 148.5s121.667 137.167 168 222.5s80.833 177.833 103.5 277.5s34 203.5 34 311.5c0 108.667 -11.833 212.667 -35.5 312s-59.334 190.666 -107.001 273.999s-104.834 155.833 -171.501 217.5
s-145.334 109.834 -236.001 144.501s-188.667 52 -294 52z" />
    <glyph glyph-name="Oacute" unicode="&#xd3;" horiz-adv-x="2683" 
d="M1298 2564l-10.001 0.000976562c-50 0 -75 11.667 -75 35c0 14 10 33.667 30 59l193 238c32.667 40 59.834 65.167 81.501 75.5s58.167 15.5 109.5 15.5h149c44 0 66 -8.66699 66 -26c0 -12.667 -12 -30 -36 -52l-297 -264c-40.667 -36.667 -72.5 -59.334 -95.5 -68.001
s-61.5 -13 -115.5 -13zM1346 2407c170.667 0 329.001 -30.501 475.001 -91.501s269.833 -145 371.5 -252s181.334 -236 239.001 -387s86.5 -314.167 86.5 -489.5c0 -177.333 -27.833 -341.666 -83.5 -492.999s-133.667 -281.333 -234 -390s-223.833 -193.667 -370.5 -255
s-308 -92 -484 -92s-337.833 30.5 -485.5 91.5s-272.334 145.167 -374.001 252.5s-180.667 236.5 -237 387.5s-84.5 314.5 -84.5 490.5c0 180 28.667 346.167 86 498.5s137.166 282 239.499 389s227 190.5 374 250.5s307.5 90 481.5 90zM1343 2189
c-128 0 -245.496 -26.1719 -352.496 -78.5049s-196.333 -123.666 -268 -213.999s-127.334 -196.666 -167.001 -318.999s-59.5 -253.5 -59.5 -393.5c0 -137.333 18.833 -266.666 56.5 -387.999s91.5 -228.333 161.5 -321s159.333 -166 268 -220s229.667 -81 363 -81
c108 0 208 18 300 54s170.833 85.5 236.5 148.5s121.667 137.167 168 222.5s80.833 177.833 103.5 277.5s34 203.5 34 311.5c0 108.667 -11.833 212.667 -35.5 312s-59.334 190.833 -107.001 274.5s-104.834 156.334 -171.501 218.001s-145.334 109.834 -236.001 144.501
s-188.667 52 -294 52z" />
    <glyph glyph-name="Ocircumflex" unicode="&#xd4;" horiz-adv-x="2683" 
d="M931 2660l210.999 241.001c33.333 38 60.833 61.833 82.5 71.5s57.834 14.5 108.501 14.5h10c50.667 0 86.834 -4.83301 108.501 -14.5s49.5 -33.5 83.5 -71.5l215 -241c23.333 -26.667 35 -47.334 35 -62.001c0 -22.667 -26 -34 -78 -34h-10
c-56 0 -96.167 5.83301 -120.5 17.5s-54.5 39.167 -90.5 82.5l-142 173l-151 -176c-36.667 -42.667 -66.834 -69.5 -90.501 -80.5s-63.167 -16.5 -118.5 -16.5h-10c-51.333 0 -77 11.333 -77 34c0 16 11.333 36.667 34 62zM1346 2407
c170.667 0 329.001 -30.501 475.001 -91.501s269.833 -145 371.5 -252s181.334 -236 239.001 -387s86.5 -314.167 86.5 -489.5c0 -177.333 -27.833 -341.666 -83.5 -492.999s-133.667 -281.333 -234 -390s-223.833 -193.667 -370.5 -255s-308 -92 -484 -92
s-337.833 30.5 -485.5 91.5s-272.334 145.167 -374.001 252.5s-180.667 236.5 -237 387.5s-84.5 314.5 -84.5 490.5c0 180 28.667 346.167 86 498.5s137.166 282 239.499 389s227 190.5 374 250.5s307.5 90 481.5 90zM1343 2189c-128 0 -245.496 -26.1709 -352.496 -78.5039
s-196.333 -123.833 -268 -214.5s-127.334 -197.167 -167.001 -319.5s-59.5 -253.166 -59.5 -392.499c0 -137.333 18.833 -266.666 56.5 -387.999s91.5 -228.333 161.5 -321s159.333 -166 268 -220s229.667 -81 363 -81c108 0 208 18 300 54s170.833 85.5 236.5 148.5
s121.667 137.167 168 222.5s80.833 177.833 103.5 277.5s34 203.5 34 311.5c0 108.667 -11.833 212.667 -35.5 312s-59.334 190.833 -107.001 274.5s-104.834 156.334 -171.501 218.001s-145.334 109.834 -236.001 144.501s-188.667 52 -294 52z" />
    <glyph glyph-name="Otilde" unicode="&#xd5;" horiz-adv-x="2681" 
d="M916 2638c0 4.66699 1.33105 15 3.99805 31c18 85.333 49.667 151 95 197s95.666 69 150.999 69c37.333 0 70.833 -5.83301 100.5 -17.5s53.667 -25.667 72 -42s35 -32.666 50 -48.999s30.833 -30.333 47.5 -42s34.334 -17.5 53.001 -17.5
c38.667 0 67.334 25.333 86.001 76c12 34 24.167 56.333 36.5 67s34.833 16 67.5 16h10c27.333 0 47 -4.16699 59 -12.5s18 -22.166 18 -41.499c0 -4.66699 -1.33301 -15 -4 -31c-18 -84.667 -49.833 -149.834 -95.5 -195.501s-96.167 -68.5 -151.5 -68.5
c-37.333 0 -70.666 5.66699 -99.999 17s-53.166 25.166 -71.499 41.499s-35 32.833 -50 49.5s-30.833 30.667 -47.5 42s-34.334 17 -53.001 17c-39.333 0 -68 -25.333 -86 -76c-12 -34 -24.167 -56.333 -36.5 -67s-34.833 -16 -67.5 -16h-10c-26.667 0 -46.167 4 -58.5 12
s-18.5 21.667 -18.5 41zM2517 1187c0 -177.333 -27.832 -341.667 -83.499 -493s-133.667 -281.333 -234 -390s-223.833 -193.667 -370.5 -255s-308 -92 -484 -92s-337.833 30.5 -485.5 91.5s-272.334 145.167 -374.001 252.5s-180.667 236.5 -237 387.5
s-84.5 314.5 -84.5 490.5c0 180 28.667 346.167 86 498.5s137.166 282 239.499 389s227 190.5 374 250.5s307.5 90 481.5 90c170.667 0 329 -30.5 475 -91.5s269.833 -145 371.5 -252s181.334 -236 239.001 -387s86.5 -314.167 86.5 -489.5zM494.999 1184
c0 -137.333 18.8369 -266.671 56.5039 -388.004s91.5 -228.333 161.5 -321s159.333 -166 268 -220s229.667 -81 363 -81c108 0 208 18 300 54s170.833 85.5 236.5 148.5s121.667 137.167 168 222.5s80.833 177.833 103.5 277.5s34 203.5 34 311.5
c0 108.667 -11.833 212.667 -35.5 312s-59.334 190.833 -107.001 274.5s-104.834 156.334 -171.501 218.001s-145.334 109.834 -236.001 144.501s-188.667 52 -294 52c-128 0 -245.5 -26.167 -352.5 -78.5s-196.333 -123.666 -268 -213.999
s-127.334 -196.666 -167.001 -318.999s-59.5 -253.5 -59.5 -393.5z" />
    <glyph glyph-name="Odieresis" unicode="&#xd6;" horiz-adv-x="2683" 
d="M846 2748c0 49.333 17.5 90.8311 52.5 124.498s77.5 50.5 127.5 50.5c48.667 0 89 -16.667 121 -50s48 -75 48 -125c0 -49.333 -16 -90.666 -48 -123.999s-72.333 -50 -121 -50c-50 0 -92.5 16.833 -127.5 50.5s-52.5 74.834 -52.5 123.501zM165 1179
c0 180 28.668 346.166 86.001 498.499s137.166 282 239.499 389s227 190.5 374 250.5s307.5 90 481.5 90c170.667 0 329 -30.5 475 -91.5s269.833 -145 371.5 -252s181.334 -236 239.001 -387s86.5 -314.167 86.5 -489.5c0 -177.333 -27.833 -341.666 -83.5 -492.999
s-133.667 -281.333 -234 -390s-223.833 -193.667 -370.5 -255s-308 -92 -484 -92s-337.833 30.5 -485.5 91.5s-272.334 145.167 -374.001 252.5s-180.667 236.5 -237 387.5s-84.5 314.5 -84.5 490.5zM2187 1188c0 108.667 -11.8291 212.662 -35.4961 311.995
s-59.334 190.833 -107.001 274.5s-104.834 156.334 -171.501 218.001s-145.334 109.834 -236.001 144.501s-188.667 52 -294 52c-128 0 -245.5 -26.167 -352.5 -78.5s-196.333 -123.666 -268 -213.999s-127.334 -196.666 -167.001 -318.999s-59.5 -253.5 -59.5 -393.5
c0 -137.333 18.833 -266.666 56.5 -387.999s91.5 -228.333 161.5 -321s159.333 -166 268 -220s229.667 -81 363 -81c108 0 208 18 300 54s170.833 85.5 236.5 148.5s121.667 137.167 168 222.5s80.833 177.833 103.5 277.5s34 203.5 34 311.5zM1489 2747.99
c0 49.333 17 90.8311 51 124.498s75.667 50.5 125 50.5s90.5 -16.833 123.5 -50.5s49.5 -75.167 49.5 -124.5s-16.5 -90.666 -49.5 -123.999s-74.167 -50 -123.5 -50s-91 16.833 -125 50.5s-51 74.834 -51 123.501z" />
    <glyph glyph-name="multiply" unicode="&#xd7;" horiz-adv-x="1870" 
d="M328 292l-92 92.999c-21.333 20.667 -32 39 -32 55c0 15.333 10.667 33.666 32 54.999l497 498l-497 498c-21.333 20.667 -32 39 -32 55c0 15.333 10.667 33.333 32 54l96 94c20.667 20.667 39 31 55 31c15.333 0 33.666 -10.667 54.999 -32l496 -495l496 495
c21.333 21.333 39.666 32 54.999 32c14 0 32.333 -10.667 55 -32l90 -92c20.667 -20.667 31 -39 31 -55c0 -15.333 -10.667 -33.666 -32 -54.999l-493 -495l497 -497c21.333 -21.333 32 -39.666 32 -54.999c0 -16 -10.333 -34.333 -31 -55l-95 -97
c-21.333 -21.333 -39.333 -32 -54 -32c-15.333 0 -33.666 10.667 -54.999 32l-499 499l-497 -499c-21.333 -21.333 -39.666 -32 -54.999 -32c-16 0 -34.333 10.667 -55 32z" />
    <glyph glyph-name="Oslash" unicode="&#xd8;" horiz-adv-x="2684" 
d="M664 153l-171.999 -217c-26 -32 -49 -48 -69 -48c-18 0 -42 11.333 -72 34l-8 6c-33.333 24.667 -50 48.667 -50 72c0 20 12 45 36 75l171 215c-107.333 109.333 -189.833 240 -247.5 392s-86.5 317.667 -86.5 497c0 180 28.667 346.167 86 498.5
s137.166 282 239.499 389s227 190.5 374 250.5s307.5 90 481.5 90c254.667 0 479 -66 673 -198l174 218c26 33.333 49.667 50 71 50c18.667 0 42 -12 70 -36l7 -6c32.667 -28 49 -53 49 -75c0 -18.667 -11.333 -42.334 -34 -71.001l-173 -217
c107.333 -110 190 -240.5 248 -391.5s87 -315.5 87 -493.5c0 -177.333 -27.833 -341.666 -83.5 -492.999s-133.667 -281.333 -234 -390s-223.833 -193.667 -370.5 -255s-308 -92 -484 -92c-263.333 0 -491 65.333 -683 196zM497.001 1184
c0 -259.333 61.668 -480.336 185.001 -663.003l1177 1484c-143.333 122 -315 183 -515 183c-128 0 -245.5 -26.167 -352.5 -78.5s-196.333 -123.666 -268 -213.999s-127.334 -196.666 -167.001 -318.999s-59.5 -253.166 -59.5 -392.499zM2003 1843l-1176 -1485
c142.667 -122.667 315.667 -184 519 -184c108 0 208 18 300 54s170.833 85.5 236.5 148.5s121.667 137.167 168 222.5s80.833 177.833 103.5 277.5s34 203.5 34 311.5c0 256 -61.667 474.333 -185 655z" />
    <glyph glyph-name="Ugrave" unicode="&#xd9;" horiz-adv-x="2433" 
d="M1868 868l0.00390625 1363c0 51.333 9.33301 86.333 28 105s53.667 28 105 28h10c51.333 0 86.333 -9.33301 105 -28s28 -53.667 28 -105v-1411c0 -144 -21.5 -271 -64.5 -381s-104.833 -200.167 -185.5 -270.5s-177.334 -123.166 -290.001 -158.499
s-240.334 -53 -383.001 -53c-190 0 -354.333 31.5 -493 94.5s-246.667 158.5 -324 286.5s-116 283.333 -116 466v1443c0 45.333 8.16699 76.166 24.5 92.499s47.166 24.5 92.499 24.5h76c45.333 0 76.166 -8.16699 92.499 -24.5s24.5 -47.166 24.5 -92.499v-1366
c0 -224 51.167 -397.5 153.5 -520.5s260.833 -184.5 475.5 -184.5c211.333 0 371 60.833 479 182.5s162 291.5 162 509.5zM822.004 2980h150.002c50.667 0 87 -5.33301 109 -16s49 -35.667 81 -75l193 -238c20 -24.667 30 -44.667 30 -60c0 -22.667 -24.667 -34 -74 -34h-10
c-54.667 0 -93.334 4.33301 -116.001 13s-54.334 31 -95.001 67l-298 265c-24 22 -36 39.333 -36 52c0 17.333 22 26 66 26z" />
    <glyph glyph-name="Uacute" unicode="&#xda;" horiz-adv-x="2432" 
d="M1868 868l0.00390625 1363c0 51.333 9.33301 86.333 28 105s53.667 28 105 28h10c51.333 0 86.333 -9.33301 105 -28s28 -53.667 28 -105v-1411c0 -144 -21.5 -271 -64.5 -381s-104.833 -200.167 -185.5 -270.5s-177.334 -123.166 -290.001 -158.499
s-240.334 -53 -383.001 -53c-190 0 -354.333 31.5 -493 94.5s-246.667 158.5 -324 286.5s-116 283.333 -116 466v1443c0 45.333 8.16699 76.166 24.5 92.499s47.166 24.5 92.499 24.5h76c45.333 0 76.166 -8.16699 92.499 -24.5s24.5 -47.166 24.5 -92.499v-1366
c0 -224 51.167 -397.5 153.5 -520.5s260.833 -184.5 475.5 -184.5c211.333 0 371 60.833 479 182.5s162 291.5 162 509.5zM1480 2973h149.001c44 0 66 -8.66699 66 -26c0 -12.667 -12 -30 -36 -52l-297 -265c-40.667 -36 -72.334 -58.333 -95.001 -67s-61 -13 -115 -13h-10
c-50 0 -75 11.667 -75 35c0 14 10 33.667 30 59l193 238c32 39.333 59 64.333 81 75s58.333 16 109 16z" />
    <glyph glyph-name="Ucircumflex" unicode="&#xdb;" horiz-adv-x="2433" 
d="M1380 2651l-142.002 173.001l-149 -176c-36 -42.667 -66 -69.5 -90 -80.5s-64 -16.5 -120 -16.5h-10c-52 0 -78 11.333 -78 34c0 16 11.333 36.667 34 62l211 241c33.333 38 60.833 61.833 82.5 71.5s57.834 14.5 108.501 14.5h10
c50.667 0 86.834 -4.83301 108.501 -14.5s49.5 -33.5 83.5 -71.5l215 -241c23.333 -26.667 35 -47.334 35 -62.001c0 -22.667 -26 -34 -78 -34h-10c-56 0 -96.167 5.83301 -120.5 17.5s-54.5 39.167 -90.5 82.5zM288.998 804.001l0.00390625 1443
c0 45.333 8.16699 76.166 24.5 92.499s47.166 24.5 92.499 24.5h76c45.333 0 76.166 -8.16699 92.499 -24.5s24.5 -47.166 24.5 -92.499v-1366c0 -224 51.167 -397.5 153.5 -520.5s260.833 -184.5 475.5 -184.5c211.333 0 371 60.833 479 182.5s162 291.5 162 509.5v1363
c0 51.333 9.33301 86.333 28 105s53.667 28 105 28h10c51.333 0 86.333 -9.33301 105 -28s28 -53.667 28 -105v-1411c0 -144 -21.5 -271 -64.5 -381s-104.833 -200.167 -185.5 -270.5s-177.334 -123.166 -290.001 -158.499s-240.334 -53 -383.001 -53
c-190 0 -354.333 31.5 -493 94.5s-246.667 158.5 -324 286.5s-116 283.333 -116 466z" />
    <glyph glyph-name="Udieresis" unicode="&#xdc;" horiz-adv-x="2433" 
d="M289 804l0.00390625 1443c0 45.333 8.16699 76.166 24.5 92.499s47.166 24.5 92.499 24.5h76c45.333 0 76.166 -8.16699 92.499 -24.5s24.5 -47.166 24.5 -92.499v-1366c0 -224 51.167 -397.5 153.5 -520.5s260.833 -184.5 475.5 -184.5c211.333 0 371 60.833 479 182.5
s162 291.5 162 509.5v1363c0 51.333 9.33301 86.333 28 105s53.667 28 105 28h10c51.333 0 86.333 -9.33301 105 -28s28 -53.667 28 -105v-1411c0 -144 -21.5 -271 -64.5 -381s-104.833 -200.167 -185.5 -270.5s-177.334 -123.166 -290.001 -158.499
s-240.334 -53 -383.001 -53c-190 0 -354.333 31.5 -493 94.5s-246.667 158.5 -324 286.5s-116 283.333 -116 466zM1070 2738c0 -49.333 -15.833 -90.668 -47.5 -124.001s-72.167 -50 -121.5 -50s-91.666 16.833 -126.999 50.5s-53 74.834 -53 123.501
c0 49.333 17.667 90.833 53 124.5s77.666 50.5 126.999 50.5s89.833 -16.667 121.5 -50s47.5 -75 47.5 -125zM1713 2738c0 -49.333 -16.5 -90.668 -49.5 -124.001s-73.833 -50 -122.5 -50c-49.333 0 -91.166 16.833 -125.499 50.5s-51.5 74.834 -51.5 123.501
c0 49.333 17.167 90.833 51.5 124.5s76.166 50.5 125.499 50.5c48.667 0 89.5 -16.833 122.5 -50.5s49.5 -75.167 49.5 -124.5z" />
    <glyph glyph-name="Yacute" unicode="&#xdd;" horiz-adv-x="2031" 
d="M1891 2364l65.9971 -0.000976562c52 0 78 -13 78 -39c0 -15.333 -8 -35 -24 -59l-842 -1305v-844c0 -45.333 -8.16699 -76.166 -24.5 -92.499s-47.166 -24.5 -92.499 -24.5h-79c-45.333 0 -76.166 8.16699 -92.499 24.5s-24.5 47.166 -24.5 92.499v843l-814 1305
c-15.333 24.667 -23 44.334 -23 59.001c0 26.667 26 40 78 40h126c50 0 85.667 -6 107 -18s45 -39.333 71 -82l638 -1052l672 1054c26.667 42 50.834 68.833 72.501 80.5s57.5 17.5 107.5 17.5zM928.997 2634l193.001 238c32 39.333 59 64.333 81 75s58.333 16 109 16h149
c44 0 66 -8.66699 66 -26c0 -12.667 -12 -30 -36 -52l-297 -265c-40.667 -36 -72.334 -58.333 -95.001 -67s-61 -13 -115 -13h-10c-50 0 -75 11.667 -75 35c0 14 10 33.667 30 59z" />
    <glyph glyph-name="germandbls" unicode="&#xdf;" horiz-adv-x="1988" 
d="M1350 173c45.333 0 86.6709 9.50195 124.004 28.502s68.5 50.5 93.5 94.5s37.5 97.667 37.5 161c0 42.667 -8.33301 80.334 -25 113.001s-39.334 59.667 -68.001 81s-61.334 40.666 -98.001 57.999s-75.5 34 -116.5 50s-81.833 32.833 -122.5 50.5
s-79.334 39.667 -116.001 66s-69.334 56.666 -98.001 90.999s-51.334 77.833 -68.001 130.5s-25 112.334 -25 179.001c0 46.667 8.66699 90.167 26 130.5s39.833 75.333 67.5 105s58.167 58 91.5 85s66.666 53.333 99.999 79s63.833 51.834 91.5 78.501
s50.167 57.167 67.5 91.5s26 71.166 26 110.499c0 102 -33.333 179.5 -100 232.5s-154 79.5 -262 79.5c-61.333 0 -116.333 -10 -165 -30s-89.167 -47 -121.5 -81s-59.166 -74.833 -80.499 -122.5s-36.666 -97.667 -45.999 -150s-14 -107.833 -14 -166.5v-1613
c0 -40.667 -7.33301 -68.334 -22 -83.001s-42.334 -22 -83.001 -22h-82c-40.667 0 -68.334 7.33301 -83.001 22s-22 42.334 -22 83.001v1621c0 232 67.667 414.667 203 548s319.333 200 552 200c65.333 0 127.5 -5.5 186.5 -16.5s115.167 -28.833 168.5 -53.5
s99.5 -55.167 138.5 -91.5s69.833 -81.5 92.5 -135.5s34 -114.333 34 -181c0 -53.333 -8.83301 -103 -26.5 -149s-40.667 -85.167 -69 -117.5s-59.5 -62.833 -93.5 -91.5s-68.167 -55.5 -102.5 -80.5s-65.666 -49.667 -93.999 -74s-51.333 -51.5 -69 -81.5
s-26.5 -62 -26.5 -96c0 -43.333 8.33301 -81.833 25 -115.5s39.167 -61.834 67.5 -84.501s61 -43.334 98 -62.001s75.833 -36.5 116.5 -53.5s81.167 -34.667 121.5 -53s79 -40.333 116 -66s69.667 -54.667 98 -87s50.833 -73 67.5 -122s25 -104.167 25 -165.5
c0 -92 -15.167 -173.333 -45.5 -244s-71.166 -126.5 -122.499 -167.5s-107.833 -71.667 -169.5 -92s-127.167 -30.5 -196.5 -30.5c-211.333 0 -377 91 -497 273c-14 20.667 -21 38 -21 52c0 20 17.667 39 53 57l8 4c24 11.333 42.333 17 55 17c20 0 43 -15 69 -45
c86.667 -98.667 197 -148 331 -148z" />
    <glyph glyph-name="agrave" unicode="&#xe0;" horiz-adv-x="1758" 
d="M1230 105l0.00292969 151.001h-2c-130.667 -195.333 -301 -293 -511 -293c-80 0 -155.167 11 -225.5 33s-132.333 53.5 -186 94.5s-96 93.333 -127 157s-46.5 134.5 -46.5 212.5c0 84 16.333 158.833 49 224.5s75.167 118.667 127.5 159s114.833 73.666 187.5 99.999
s145.667 44.666 219 54.999s150.666 15.5 231.999 15.5c91.333 0 185.666 -7 282.999 -21v65c0 118 -33 213.167 -99 285.5s-164.333 108.5 -295 108.5c-77.333 0 -153.5 -17.667 -228.5 -53s-141.167 -83.333 -198.5 -144c-24.667 -26 -46 -39 -64 -39
c-14.667 0 -32 5.66699 -52 17l-9 5c-32.667 18 -49 37 -49 57c0 12.667 6 29 18 49c62 102 147.833 182.667 257.5 242s229.5 89 359.5 89c96.667 0 181.834 -10.167 255.501 -30.5s135.334 -49 185.001 -86s90.167 -84.167 121.5 -141.5s53.666 -120.666 66.999 -189.999
s20 -148.333 20 -237v-885c0 -40.667 -7.33301 -68.334 -22 -83.001s-42.334 -22 -83.001 -22h-79c-40.667 0 -68.334 7.33301 -83.001 22s-22 42.334 -22 83.001zM984.003 1948c14.667 -23.333 22 -42.332 22 -56.999c0 -26 -25 -39 -75 -39h-10
c-49.333 0 -84.666 5 -105.999 15s-48 33.667 -80 71l-303 355c-18 20.667 -27 37.667 -27 51c0 19.333 21.333 29 64 29h149c44.667 0 76.667 -5.33301 96 -16s40.666 -35.334 63.999 -74.001zM1230 798.002c-110 15.333 -210.667 23.001 -302 23.001
c-47.333 0 -92.666 -3.16699 -135.999 -9.5s-87 -17.5 -131 -33.5s-82 -36.333 -114 -61s-58 -57.334 -78 -98.001s-30 -86.667 -30 -138c0 -100 33.5 -177.333 100.5 -232s151.5 -82 253.5 -82c36 0 73.667 6.16699 113 18.5s78.166 31.5 116.499 57.5s73 56.5 104 91.5
s56 77.5 75 127.5s28.5 103.333 28.5 160v176z" />
    <glyph glyph-name="aacute" unicode="&#xe1;" horiz-adv-x="1759" 
d="M1231 105l0.00195312 151.001h-2c-130.667 -195.333 -301 -293 -511 -293c-80 0 -155.167 11 -225.5 33s-132.333 53.5 -186 94.5s-96 93.333 -127 157s-46.5 134.5 -46.5 212.5c0 84 16.333 158.833 49 224.5s75.167 118.667 127.5 159s114.833 73.666 187.5 99.999
s145.667 44.666 219 54.999s150.666 15.5 231.999 15.5c92 0 186.333 -7 283 -21v65c0 118 -33 213.167 -99 285.5s-164.333 108.5 -295 108.5c-77.333 0 -153.5 -17.667 -228.5 -53s-141.167 -83.333 -198.5 -144c-24.667 -26 -46 -39 -64 -39
c-14.667 0 -32 5.66699 -52 17l-9 5c-32.667 18 -49 37 -49 57c0 12.667 6 29 18 49c62 102 147.833 182.667 257.5 242s229.5 89 359.5 89c96.667 0 181.834 -10.167 255.501 -30.5s135.334 -49 185.001 -86s90.167 -84.167 121.5 -141.5s53.666 -120.666 66.999 -189.999
s20 -148.333 20 -237v-885c0 -40.667 -7.33301 -68.334 -22 -83.001s-42.334 -22 -83.001 -22h-79c-40.667 0 -68.334 7.33301 -83.001 22s-22 42.334 -22 83.001zM1318 2293l-301.999 -355.001c-32 -37.333 -58.667 -61 -80 -71s-56.333 -15 -105 -15h-10
c-50.667 0 -76 13 -76 39c0 12.667 7.33301 31.667 22 57l206 335c23.333 38.667 44.666 63.334 63.999 74.001s51.333 16 96 16h148c42.667 0 64 -9.66699 64 -29c0 -13.333 -9 -30.333 -27 -51zM1231 798c-110 15.333 -210.667 23.001 -302 23.001
c-47.333 0 -92.666 -3.16699 -135.999 -9.5s-87 -17.5 -131 -33.5s-82 -36.333 -114 -61s-58 -57.334 -78 -98.001s-30 -86.667 -30 -138c0 -100 33.5 -177.333 100.5 -232s151.5 -82 253.5 -82c36 0 73.667 6.16699 113 18.5s78.166 31.5 116.499 57.5s73 56.5 104 91.5
s56 77.5 75 127.5s28.5 103.333 28.5 160v176z" />
    <glyph glyph-name="acircumflex" unicode="&#xe2;" horiz-adv-x="1758" 
d="M1230 993l0.00292969 65.001c0 118 -33 213.167 -99 285.5s-164.333 108.5 -295 108.5c-77.333 0 -153.5 -17.667 -228.5 -53s-141.167 -83.333 -198.5 -144c-24.667 -26 -46 -39 -64 -39c-14.667 0 -32 5.66699 -52 17l-9 5c-32.667 18 -49 37 -49 57
c0 12.667 6 29 18 49c62 102 147.833 182.667 257.5 242s229.5 89 359.5 89c96.667 0 181.834 -10.167 255.501 -30.5s135.334 -49 185.001 -86s90.167 -84.167 121.5 -141.5s53.666 -120.666 66.999 -189.999s20 -148.333 20 -237v-885
c0 -40.667 -7.33301 -68.334 -22 -83.001s-42.334 -22 -83.001 -22h-79c-40.667 0 -68.334 7.33301 -83.001 22s-22 42.334 -22 83.001v151h-2c-130.667 -195.333 -301 -293 -511 -293c-80 0 -155.167 11 -225.5 33s-132.333 53.5 -186 94.5s-96 93.333 -127 157
s-46.5 134.5 -46.5 212.5c0 84 16.333 158.833 49 224.5s75.167 118.667 127.5 159s114.833 73.666 187.5 99.999s145.667 44.666 219 54.999s150.666 15.5 231.999 15.5c91.333 0 185.666 -7 282.999 -21zM1229 1851h-10c-51.333 0 -87.833 6.16699 -109.5 18.5
s-46.167 40.166 -73.5 83.499l-147 236l-153 -238c-27.333 -42.667 -51.833 -70 -73.5 -82s-57.834 -18 -108.501 -18h-10c-52 0 -78 13 -78 39c0 15.333 8.33301 35.333 25 60l221 333c25.333 38.667 47.833 63.334 67.5 74.001s52.834 16 99.501 16h10
c46 0 78.833 -5.16699 98.5 -15.5s42.5 -34.833 68.5 -73.5l226 -334c16.667 -24.667 25 -44.667 25 -60c0 -26 -26 -39 -78 -39zM439.003 481.001c0 -100 33.5 -177.332 100.5 -231.999s151.5 -82 253.5 -82c36 0 73.667 6.16699 113 18.5s78.166 31.5 116.499 57.5
s73 56.5 104 91.5s56 77.5 75 127.5s28.5 103.333 28.5 160v176c-110 15.333 -210.667 23 -302 23c-47.333 0 -92.666 -3.16699 -135.999 -9.5s-87 -17.5 -131 -33.5s-82 -36.333 -114 -61s-58 -57.334 -78 -98.001s-30 -86.667 -30 -138z" />
    <glyph glyph-name="atilde" unicode="&#xe3;" horiz-adv-x="1757" 
d="M1229 105l0.000976562 151.001h-2c-130.667 -195.333 -301 -293 -511 -293c-80 0 -155.167 11 -225.5 33s-132.333 53.5 -186 94.5s-96 93.333 -127 157s-46.5 134.5 -46.5 212.5c0 84 16.333 158.833 49 224.5s75.167 118.667 127.5 159s114.833 73.666 187.5 99.999
s145.667 44.666 219 54.999s150.666 15.5 231.999 15.5c92 0 186.333 -7 283 -21v65c0 118.667 -33 214.167 -99 286.5s-164.333 108.5 -295 108.5c-77.333 0 -153.5 -17.667 -228.5 -53s-141.167 -83.333 -198.5 -144c-25.333 -26 -46.666 -39 -63.999 -39
c-14.667 0 -32 5.66699 -52 17l-9 5c-32.667 18 -49 37 -49 57c0 12.667 6 29 18 49c62.667 102 148.667 182.5 258 241.5s229 88.5 359 88.5c120.667 0 223.334 -15.167 308.001 -45.5s151.667 -75.666 201 -135.999s85 -131.333 107 -213s33 -178.5 33 -290.5v-885
c0 -40.667 -7.33301 -68.334 -22 -83.001s-42.334 -22 -83.001 -22h-79c-40.667 0 -68.334 7.33301 -83.001 22s-22 42.334 -22 83.001zM1298 2202c0 -4.66699 -1.3291 -15 -3.99609 -31c-18 -90 -49.833 -159 -95.5 -207s-96.167 -72 -151.5 -72
c-37.333 0 -70.833 6 -100.5 18s-53.667 26.5 -72 43.5s-35 34 -50 51s-30.833 31.5 -47.5 43.5s-34.334 18 -53.001 18c-40 0 -68.667 -27.333 -86 -82c-10.667 -34 -22.334 -56.5 -35.001 -67.5s-35.334 -16.5 -68.001 -16.5h-10c-27.333 0 -47.333 4.16699 -60 12.5
s-19 22.166 -19 41.499c0 4.66699 1.33301 15 4 31c17.333 90 49.166 159 95.499 207s97.166 72 152.499 72c37.333 0 70.833 -6 100.5 -18s53.667 -26.5 72 -43.5s35 -34 50 -51s30.833 -31.5 47.5 -43.5s34 -18 52 -18c40.667 0 69.667 27.667 87 83
c10.667 33.333 22.334 55.5 35.001 66.5s35.334 16.5 68.001 16.5h10c27.333 0 47.166 -4.16699 59.499 -12.5s18.5 -22.166 18.5 -41.499zM438.005 481.001c0 -100 33.5 -177.332 100.5 -231.999s151.5 -82 253.5 -82c36 0 73.667 6.16699 113 18.5
s78.166 31.5 116.499 57.5s73 56.5 104 91.5s56 77.5 75 127.5s28.5 103.333 28.5 160v176c-110 15.333 -210.667 23 -302 23c-47.333 0 -92.666 -3.16699 -135.999 -9.5s-87 -17.5 -131 -33.5s-82 -36.333 -114 -61s-58 -57.334 -78 -98.001s-30 -86.667 -30 -138z" />
    <glyph glyph-name="adieresis" unicode="&#xe4;" horiz-adv-x="1758" 
d="M1230 105l0.00292969 151.001h-2c-130.667 -195.333 -301 -293 -511 -293c-80 0 -155.167 11 -225.5 33s-132.333 53.5 -186 94.5s-96 93.333 -127 157s-46.5 134.5 -46.5 212.5c0 84 16.333 158.833 49 224.5s75.167 118.667 127.5 159s114.833 73.666 187.5 99.999
s145.667 44.666 219 54.999s150.666 15.5 231.999 15.5c91.333 0 185.666 -7 282.999 -21v65c0 118 -33 213.167 -99 285.5s-164.333 108.5 -295 108.5c-77.333 0 -153.5 -17.667 -228.5 -53s-141.167 -83.333 -198.5 -144c-24.667 -26 -46 -39 -64 -39
c-14.667 0 -32 5.66699 -52 17l-9 5c-32.667 18 -49 37 -49 57c0 12.667 6 29 18 49c62 102 147.833 182.667 257.5 242s229.5 89 359.5 89c96.667 0 181.834 -10.167 255.501 -30.5s135.334 -49 185.001 -86s90.167 -84.167 121.5 -141.5s53.666 -120.666 66.999 -189.999
s20 -148.333 20 -237v-885c0 -40.667 -7.33301 -68.334 -22 -83.001s-42.334 -22 -83.001 -22h-79c-40.667 0 -68.334 7.33301 -83.001 22s-22 42.334 -22 83.001zM1230 798.001c-110 15.333 -210.667 23.001 -302 23.001c-47.333 0 -92.666 -3.16699 -135.999 -9.5
s-87 -17.5 -131 -33.5s-82 -36.333 -114 -61s-58 -57.334 -78 -98.001s-30 -86.667 -30 -138c0 -100 33.5 -177.333 100.5 -232s151.5 -82 253.5 -82c36 0 73.667 6.16699 113 18.5s78.166 31.5 116.499 57.5s73 56.5 104 91.5s56 77.5 75 127.5s28.5 103.333 28.5 160v176z
M740.003 2056c0 -50 -15.833 -91.498 -47.5 -124.498s-72.167 -49.5 -121.5 -49.5s-91.666 16.667 -126.999 50s-53 74.666 -53 123.999s17.667 90.666 53 123.999s77.666 50 126.999 50s89.833 -16.5 121.5 -49.5s47.5 -74.5 47.5 -124.5zM1383 2056
c0 -49.333 -16.5 -90.666 -49.5 -123.999s-73.833 -50 -122.5 -50c-50 0 -92 16.667 -126 50s-51 74.666 -51 123.999s17 90.666 51 123.999s76 50 126 50c48.667 0 89.5 -16.667 122.5 -50s49.5 -74.666 49.5 -123.999z" />
    <glyph glyph-name="aring" unicode="&#xe5;" horiz-adv-x="1758" 
d="M1230 105l0.00292969 151.001h-2c-130.667 -195.333 -301 -293 -511 -293c-80 0 -155.167 11 -225.5 33s-132.333 53.5 -186 94.5s-96 93.333 -127 157s-46.5 134.5 -46.5 212.5c0 84 16.333 158.833 49 224.5s75.167 118.667 127.5 159s114.833 73.666 187.5 99.999
s145.667 44.666 219 54.999s150.666 15.5 231.999 15.5c91.333 0 185.666 -7 282.999 -21v65c0 118 -33 213.167 -99 285.5s-164.333 108.5 -295 108.5c-77.333 0 -153.5 -17.667 -228.5 -53s-141.167 -83.333 -198.5 -144c-24.667 -26 -46 -39 -64 -39
c-14.667 0 -32 5.66699 -52 17l-9 5c-32.667 18 -49 37 -49 57c0 12.667 6 29 18 49c62 102 147.833 182.667 257.5 242s229.5 89 359.5 89c96.667 0 181.834 -10.167 255.501 -30.5s135.334 -49 185.001 -86s90.167 -84.167 121.5 -141.5s53.666 -120.666 66.999 -189.999
s20 -148.333 20 -237v-885c0 -40.667 -7.33301 -68.334 -22 -83.001s-42.334 -22 -83.001 -22h-79c-40.667 0 -68.334 7.33301 -83.001 22s-22 42.334 -22 83.001zM1230 798.001c-110 15.333 -210.667 23.001 -302 23.001c-47.333 0 -92.666 -3.16699 -135.999 -9.5
s-87 -17.5 -131 -33.5s-82 -36.333 -114 -61s-58 -57.334 -78 -98.001s-30 -86.667 -30 -138c0 -100 33.5 -177.333 100.5 -232s151.5 -82 253.5 -82c36 0 73.667 6.16699 113 18.5s78.166 31.5 116.499 57.5s73 56.5 104 91.5s56 77.5 75 127.5s28.5 103.333 28.5 160v176z
M1227 2178c0 -94.667 -33.667 -175.5 -101 -242.5s-148.333 -100.5 -243 -100.5s-175.667 33.5 -243 100.5s-101 147.833 -101 242.5s33.5 175.667 100.5 243s148.167 101 243.5 101s176.5 -33.667 243.5 -101s100.5 -148.333 100.5 -243zM687.003 2178
c0 -54 19.167 -100 57.5 -138s84.5 -57 138.5 -57s100.167 19 138.5 57s57.5 84 57.5 138s-19.167 100.167 -57.5 138.5s-84.5 57.5 -138.5 57.5s-100.167 -19.167 -138.5 -57.5s-57.5 -84.5 -57.5 -138.5z" />
    <glyph glyph-name="ae" unicode="&#xe6;" horiz-adv-x="2925" 
d="M2674 457l8.00293 -4.99414c32.667 -18 49 -36.667 49 -56c0 -12 -5.66699 -28.333 -17 -49c-144.667 -256 -372.667 -384 -684 -384c-145.333 0 -274.666 28 -387.999 84s-205.666 135 -276.999 237c-42 -59.333 -89.667 -110.5 -143 -153.5
s-108.833 -76.333 -166.5 -100s-114.334 -40.834 -170.001 -51.501s-112.167 -16 -169.5 -16c-80 0 -155.167 11 -225.5 33s-132.333 53.5 -186 94.5s-96 93.333 -127 157s-46.5 134.5 -46.5 212.5c0 84 16.333 158.833 49 224.5s75.167 118.667 127.5 159
s114.833 73.666 187.5 99.999s145.667 44.666 219 54.999s150.666 15.5 231.999 15.5c89.333 0 183.666 -6.66699 282.999 -20v64c0 118.667 -33 214.167 -99 286.5s-164.333 108.5 -295 108.5c-77.333 0 -153.5 -17.667 -228.5 -53s-141.167 -83.333 -198.5 -144
c-25.333 -26 -46.666 -39 -63.999 -39c-12.667 0 -30 6 -52 18l-9 5c-32.667 18 -49 36.667 -49 56c0 11.333 6.33301 27.666 19 48.999c62 102 147.667 182.5 257 241.5s228.666 88.5 357.999 88.5c276 0 462 -83.333 558 -250c73.333 80 161.333 141.667 264 185
s215.667 65 339 65c35.333 0 70.666 -1.83301 105.999 -5.5s77.666 -12.167 126.999 -25.5s95.666 -31 138.999 -53s87.833 -53 133.5 -93s85.334 -86.667 119.001 -140s62.667 -120.166 87 -200.499s39.5 -169.5 45.5 -267.5c2.66699 -40 -3.5 -67.333 -18.5 -82
s-42.833 -22 -83.5 -22h-1166c0 -47.333 5.66699 -96.833 17 -148.5s31 -104.834 59 -159.501s62.5 -103.334 103.5 -146.001s93.833 -77.834 158.5 -105.501s136.667 -41.5 216 -41.5c198 0 361.667 82 491 246c23.333 29.333 44 44 62 44c12.667 0 29 -6 49 -18z
M438.003 481.006c0 -100 33.502 -177.332 100.502 -231.999s151.5 -82 253.5 -82c36 0 73.667 6.16699 113 18.5s78.166 31.5 116.499 57.5s73 56.5 104 91.5s56 77.5 75 127.5s28.5 103.333 28.5 160v176c-110 15.333 -210.667 23 -302 23
c-47.333 0 -92.833 -3.16699 -136.5 -9.5s-87.334 -17.5 -131.001 -33.5s-81.5 -36.333 -113.5 -61s-58 -57.334 -78 -98.001s-30 -86.667 -30 -138zM1519 977.007l972.001 -0.000976562c0 40 -4.66699 80.833 -14 122.5s-25.5 84.667 -48.5 129s-51.667 83.666 -86 117.999
s-79.333 62.666 -135 84.999s-117.834 33.5 -186.501 33.5c-55.333 0 -107 -7.5 -155 -22.5s-88.667 -34.5 -122 -58.5s-63.5 -51.667 -90.5 -83s-48.667 -62.666 -65 -93.999s-30 -62.666 -41 -93.999s-18.5 -58.166 -22.5 -80.499s-6 -40.833 -6 -55.5z" />
    <glyph glyph-name="ccedilla" unicode="&#xe7;" horiz-adv-x="1754" 
d="M1420 1235c-98.667 152 -237.667 228.003 -417 228.003c-160.667 0 -290.5 -57.167 -389.5 -171.5s-148.5 -270.5 -148.5 -468.5c0 -86 11.5 -167 34.5 -243s56.167 -143.833 99.5 -203.5s99.5 -107 168.5 -142s146.5 -52.5 232.5 -52.5c92 0 175.667 20.167 251 60.5
s139 97.5 191 171.5c20 28 38.667 42 56 42c13.333 0 29.333 -6 48 -18l8 -5c32.667 -20.667 49 -40.667 49 -60c0 -12.667 -5 -28.667 -15 -48c-98 -196.667 -260.333 -313.667 -487 -351l-94 -147c70 -0.666992 132.667 -22.5 188 -65.5s83 -99.833 83 -170.5
c0 -50 -10.167 -93.833 -30.5 -131.5s-48.166 -67.5 -83.499 -89.5s-74.666 -38.167 -117.999 -48.5s-90 -15.5 -140 -15.5c-66.667 0 -131.334 11.667 -194.001 35c-33.333 12.667 -50 30 -50 52c0 11.333 3.66699 26.333 11 45l4 10c12 31.333 28.333 47 49 47
c9.33301 0 23 -2.66699 41 -8c48 -14.667 93 -22 135 -22c42.667 0 78.834 8.5 108.501 25.5s44.5 44.167 44.5 81.5s-17.667 67.666 -53 90.999s-79 40.333 -131 51c-46.667 8.66699 -70 24.667 -70 48c0 12.667 6.66699 30.334 20 53.001l89 150
c-154 7.33301 -288.333 47.666 -403 120.999s-201.834 171.833 -261.501 295.5s-89.5 264.834 -89.5 423.501c0 123.333 19 238.166 57 344.499s91.667 198.333 161 276s155.666 138.667 258.999 183s217.666 66.5 342.999 66.5c141.333 0 263.5 -30.333 366.5 -91
s184.5 -147.334 244.5 -260.001c12 -22 18 -40 18 -54c0 -22.667 -19.333 -44.334 -58 -65.001l-9 -5c-21.333 -12 -38.666 -18 -51.999 -18c-20.667 0 -42.667 17.667 -66 53z" />
    <glyph glyph-name="egrave" unicode="&#xe8;" horiz-adv-x="1868" 
d="M1658 347c-144.667 -256 -372.666 -383.997 -683.999 -383.997c-125.333 0 -239.666 21.5 -342.999 64.5s-189.833 102.333 -259.5 178s-123.5 165.667 -161.5 270s-57 217.5 -57 339.5c0 166.667 34 315.167 102 445.5s164.333 232 289 305s267.667 109.5 429 109.5
c35.333 0 70.666 -1.83301 105.999 -5.5s77.666 -12.334 126.999 -26.001s95.666 -31.334 138.999 -53.001s87.833 -52.667 133.5 -93s85.334 -87 119.001 -140s62.667 -119.667 87 -200s39.5 -169.5 45.5 -267.5c2.66699 -40 -3.5 -67.333 -18.5 -82s-42.833 -22 -83.5 -22
h-1167c0 -33.333 3 -67.833 9 -103.5s15.667 -73.334 29 -113.001s30 -77.667 50 -114s45 -71 75 -104s63.5 -61.833 100.5 -86.5s80.5 -44.167 130.5 -58.5s103.667 -21.5 161 -21.5c198 0 361.667 82 491 246c23.333 29.333 44 44 62 44c12.667 0 29 -6 49 -18l8 -5
c32.667 -18 49 -36.667 49 -56c0 -12 -5.66699 -28.333 -17 -49zM923.001 2283l206 -334.999c14.667 -23.333 22 -42.333 22 -57c0 -26 -25 -39 -75 -39h-10c-49.333 0 -84.666 5 -105.999 15s-48 33.667 -80 71l-303 355c-18 20.667 -27 37.667 -27 51
c0 19.333 21.333 29 64 29h149c44.667 0 76.667 -5.33301 96 -16s40.666 -35.334 63.999 -74.001zM463.001 977.004l972.001 0.00195312c0 40 -4.66699 80.667 -14 122s-25.5 84.333 -48.5 129s-51.667 84.167 -86 118.5s-79.333 62.5 -135 84.5s-117.834 33 -186.501 33
c-64.667 0 -124 -9.83301 -178 -29.5s-98.5 -45.334 -133.5 -77.001s-65.5 -65.834 -91.5 -102.501s-45.833 -74 -59.5 -112s-23.667 -70.833 -30 -98.5s-9.5 -50.167 -9.5 -67.5z" />
    <glyph glyph-name="eacute" unicode="&#xe9;" horiz-adv-x="1870" 
d="M1658 347c-144.667 -256 -372.666 -383.997 -683.999 -383.997c-125.333 0 -239.666 21.5 -342.999 64.5s-189.833 102.333 -259.5 178s-123.5 165.667 -161.5 270s-57 217.5 -57 339.5c0 166.667 34 315.167 102 445.5s164.333 232 289 305s267.667 109.5 429 109.5
c35.333 0 70.666 -1.83301 105.999 -5.5s77.666 -12.334 126.999 -26.001s95.666 -31.334 138.999 -53.001s87.833 -52.667 133.5 -93s85.334 -87 119.001 -140s62.667 -119.667 87 -200s39.5 -169.5 45.5 -267.5c2.66699 -40 -3.5 -67.333 -18.5 -82s-42.833 -22 -83.5 -22
h-1167c0 -33.333 3 -67.833 9 -103.5s15.667 -73.334 29 -113.001s30 -77.667 50 -114s45 -71 75 -104s63.5 -61.833 100.5 -86.5s80.5 -44.167 130.5 -58.5s103.667 -21.5 161 -21.5c198 0 361.667 82 491 246c23.333 29.333 44 44 62 44c12.667 0 29 -6 49 -18l8 -5
c32.667 -18 49 -36.667 49 -56c0 -12 -5.66699 -28.333 -17 -49zM1420 2293l-302.999 -356.001c-32 -37.333 -58.5 -60.833 -79.5 -70.5s-56.167 -14.5 -105.5 -14.5h-10c-50 0 -75 13 -75 39c0 14.667 7.33301 33.667 22 57l205 335
c23.333 38.667 44.666 63.334 63.999 74.001s51.333 16 96 16h149c42.667 0 64 -9.66699 64 -29c0 -13.333 -9 -30.333 -27 -51zM463.002 977.002l972.001 0.00195312c0 40 -4.66699 80.667 -14 122s-25.5 84.333 -48.5 129s-51.667 84.167 -86 118.5
s-79.333 62.5 -135 84.5s-117.834 33 -186.501 33c-64.667 0 -124 -9.83301 -178 -29.5s-98.5 -45.334 -133.5 -77.001s-65.5 -65.834 -91.5 -102.501s-45.833 -74 -59.5 -112s-23.667 -70.833 -30 -98.5s-9.5 -50.167 -9.5 -67.5z" />
    <glyph glyph-name="ecircumflex" unicode="&#xea;" horiz-adv-x="1867" 
d="M1657 347c-144.667 -256 -372.666 -383.997 -683.999 -383.997c-125.333 0 -239.666 21.5 -342.999 64.5s-189.833 102.333 -259.5 178s-123.5 165.667 -161.5 270s-57 217.5 -57 339.5c0 166.667 34 315.167 102 445.5s164.333 232 289 305s267.667 109.5 429 109.5
c35.333 0 70.666 -1.83301 105.999 -5.5s77.666 -12.334 126.999 -26.001s95.666 -31.334 138.999 -53.001s87.833 -52.667 133.5 -93s85.334 -87 119.001 -140s62.667 -119.667 87 -200s39.5 -169.5 45.5 -267.5c2.66699 -40 -3.5 -67.333 -18.5 -82s-42.833 -22 -83.5 -22
h-1167c0 -33.333 3 -67.833 9 -103.5s15.667 -73.334 29 -113.001s30 -77.667 50 -114s45 -71 75 -104s63.5 -61.833 100.5 -86.5s80.5 -44.167 130.5 -58.5s103.667 -21.5 161 -21.5c198 0 361.667 82 491 246c23.333 29.333 44 44 62 44c12.667 0 29 -6 49 -18l8 -5
c32.667 -18 49 -36.667 49 -56c0 -12 -5.66699 -28.333 -17 -49zM577.001 1949l222.001 335.001c25.333 38 47.833 62.333 67.5 73s52.5 16 98.5 16h10c46 0 78.833 -5.16699 98.5 -15.5s42.5 -34.833 68.5 -73.5l226 -333c17.333 -25.333 26 -45.666 26 -60.999
c0 -26 -26 -39 -78 -39h-10c-52 0 -88.833 6.16699 -110.5 18.5s-46.167 40.166 -73.5 83.499l-146 236l-154 -239c-27.333 -42.667 -51.833 -69.834 -73.5 -81.501s-57.834 -17.5 -108.501 -17.5h-10c-52 0 -78 13 -78 39c0 13.333 8.33301 33 25 59zM462.002 977.004
l972.001 0.00195312c0 40 -4.66699 80.667 -14 122s-25.5 84.333 -48.5 129s-51.667 84.167 -86 118.5s-79.333 62.5 -135 84.5s-117.834 33 -186.501 33c-64.667 0 -124 -9.83301 -178 -29.5s-98.5 -45.334 -133.5 -77.001s-65.5 -65.834 -91.5 -102.501
s-45.833 -74 -59.5 -112s-23.667 -70.833 -30 -98.5s-9.5 -50.167 -9.5 -67.5z" />
    <glyph glyph-name="edieresis" unicode="&#xeb;" horiz-adv-x="1868" 
d="M1657 347c-144.667 -256 -372.666 -383.997 -683.999 -383.997c-125.333 0 -239.666 21.5 -342.999 64.5s-189.833 102.333 -259.5 178s-123.5 165.667 -161.5 270s-57 217.5 -57 339.5c0 166.667 34 315.167 102 445.5s164.333 232 289 305s267.667 109.5 429 109.5
c35.333 0 70.666 -1.83301 105.999 -5.5s77.666 -12.334 126.999 -26.001s95.666 -31.334 138.999 -53.001s87.833 -52.667 133.5 -93s85.334 -87 119.001 -140s62.667 -119.667 87 -200s39.5 -169.5 45.5 -267.5c2.66699 -40 -3.5 -67.333 -18.5 -82s-42.833 -22 -83.5 -22
h-1167c0 -33.333 3 -67.833 9 -103.5s15.667 -73.334 29 -113.001s30 -77.667 50 -114s45 -71 75 -104s63.5 -61.833 100.5 -86.5s80.5 -44.167 130.5 -58.5s103.667 -21.5 161 -21.5c198 0 361.667 82 491 246c23.333 29.333 44 44 62 44c12.667 0 29 -6 49 -18l8 -5
c32.667 -18 49 -36.667 49 -56c0 -12 -5.66699 -28.333 -17 -49zM494.001 2056c0 49.333 17.5 90.668 52.5 124.001s77.5 50 127.5 50c48.667 0 89 -16.5 121 -49.5s48 -74.5 48 -124.5s-16 -91.5 -48 -124.5s-72.333 -49.5 -121 -49.5c-50 0 -92.5 16.667 -127.5 50
s-52.5 74.666 -52.5 123.999zM1137 2056c0 49.333 17 90.666 51 123.999s75.667 50 125 50s90.333 -16.667 123 -50s49 -74.666 49 -123.999s-16.333 -90.666 -49 -123.999s-73.667 -50 -123 -50s-91 16.667 -125 50s-51 74.666 -51 123.999zM462.001 977.005
l972.001 0.00195312c0 40 -4.66699 80.667 -14 122s-25.5 84.333 -48.5 129s-51.667 84.167 -86 118.5s-79.333 62.5 -135 84.5s-117.834 33 -186.501 33c-64.667 0 -124 -9.83301 -178 -29.5s-98.5 -45.334 -133.5 -77.001s-65.5 -65.834 -91.5 -102.501
s-45.833 -74 -59.5 -112s-23.667 -70.833 -30 -98.5s-9.5 -50.167 -9.5 -67.5z" />
    <glyph glyph-name="igrave" unicode="&#xec;" horiz-adv-x="805" 
d="M446 1851l-10.001 0.000976562c-49.333 0 -84.666 4.83301 -105.999 14.5s-47.666 33.167 -78.999 70.5l-303 357c-18 20.667 -27 37.667 -27 51c0 19.333 21.333 29 64 29h149c44.667 0 76.667 -5.33301 96 -16s40.666 -35.334 63.999 -74.001l206 -336
c14.667 -24 22 -43 22 -57c0 -26 -25.333 -39 -76 -39zM256.999 105.001v1428c0 40.667 7.33301 68.334 22 83.001s42.334 22 83.001 22h81c40.667 0 68.334 -7.33301 83.001 -22s22 -42.334 22 -83.001v-1428c0 -40.667 -7.33301 -68.334 -22 -83.001
s-42.334 -22 -83.001 -22h-81c-40.667 -0 -68.334 7.33301 -83.001 22s-22 42.334 -22 83.001z" />
    <glyph glyph-name="iacute" unicode="&#xed;" horiz-adv-x="805" 
d="M312 1947l205.999 335.999c23.333 38.667 44.666 63.334 63.999 74.001s51.333 16 96 16h149c42.667 0 64 -9.66699 64 -29c0 -13.333 -9 -30.333 -27 -51l-303 -357c-31.333 -37.333 -57.666 -60.833 -78.999 -70.5s-56.666 -14.5 -105.999 -14.5h-10
c-50.667 0 -76 13 -76 39c0 14 7.33301 33 22 57zM442.999 -0.000976562h-81c-40.667 0 -68.334 7.33301 -83.001 22s-22 42.334 -22 83.001v1428c0 40.667 7.33301 68.334 22 83.001s42.334 22 83.001 22h81c40.667 0 68.334 -7.33301 83.001 -22s22 -42.334 22 -83.001
v-1428c0 -40.667 -7.33301 -68.334 -22 -83.001s-42.334 -22 -83.001 -22z" />
    <glyph glyph-name="icircumflex" unicode="&#xee;" horiz-adv-x="805" 
d="M69 1852h-9.99902c-52 0 -78 13 -78 39c0 13.333 8.33301 33 25 59l222 335c25.333 38 47.833 62.333 67.5 73s52.5 16 98.5 16h10c46 0 78.833 -5.16699 98.5 -15.5s42.5 -34.833 68.5 -73.5l226 -333c17.333 -25.333 26 -45.666 26 -60.999c0 -26 -26 -39 -78 -39h-10
c-52 0 -89.167 6 -111.5 18s-46.833 40 -73.5 84l-146 236l-153 -239c-27.333 -42.667 -51.833 -69.834 -73.5 -81.501s-57.834 -17.5 -108.501 -17.5zM257.001 105v1428c0 40.667 7.33301 68.334 22 83.001s42.334 22 83.001 22h81c40.667 0 68.334 -7.33301 83.001 -22
s22 -42.334 22 -83.001v-1428c0 -40.667 -7.33301 -68.334 -22 -83.001s-42.334 -22 -83.001 -22h-81c-40.667 0 -68.334 7.33301 -83.001 22s-22 42.334 -22 83.001z" />
    <glyph glyph-name="idieresis" unicode="&#xef;" horiz-adv-x="804" 
d="M442 0h-80c-40.667 -0 -68.334 7.33301 -83.001 22s-22 42.334 -22 83.001v1428c0 40.667 7.33301 68.334 22 83.001s42.334 22 83.001 22h80c40.667 0 68.334 -7.33301 83.001 -22s22 -42.334 22 -83.001v-1428c0 -40.667 -7.33301 -68.334 -22 -83.001
s-42.334 -22 -83.001 -22zM87 2227c48.667 0 89 -16.6689 121 -50.002s48 -74.666 48 -123.999c0 -50 -16 -91.667 -48 -125s-72.333 -50 -121 -50c-50 0 -92.5 16.833 -127.5 50.5s-52.5 75.167 -52.5 124.5c0 48.667 17.5 89.834 52.5 123.501s77.5 50.5 127.5 50.5z
M726 2227c48.667 0 89.5 -16.6689 122.5 -50.002s49.5 -74.666 49.5 -123.999s-16.5 -90.833 -49.5 -124.5s-73.833 -50.5 -122.5 -50.5c-49.333 0 -91.166 16.833 -125.499 50.5s-51.5 75.167 -51.5 124.5c0 48.667 17.167 89.834 51.5 123.501s76.166 50.5 125.499 50.5z
" />
    <glyph glyph-name="ntilde" unicode="&#xf1;" horiz-adv-x="1887" 
d="M546 1987c17.333 90 49.002 159.166 95.002 207.499s96.667 72.5 152 72.5c37.333 0 70.666 -6 99.999 -18s53.166 -26.5 71.499 -43.5s35 -34 50 -51s30.833 -31.5 47.5 -43.5s34.334 -18 53.001 -18c40 0 69 27 87 81c11.333 34 23.166 56.5 35.499 67.5
s34.833 16.5 67.5 16.5h10c27.333 0 47.166 -4.16699 59.499 -12.5s18.5 -22.166 18.5 -41.499c0 -4.66699 -1.33301 -15 -4 -31c-18 -89.333 -50 -158 -96 -206s-96.667 -72 -152 -72c-37.333 0 -70.666 6 -99.999 18s-53.166 26.5 -71.499 43.5s-35 34 -50 51
s-30.833 31.5 -47.5 43.5s-34.334 18 -53.001 18c-40 0 -69 -27.667 -87 -83c-11.333 -34 -23 -56.333 -35 -67s-34.333 -16 -67 -16h-10c-27.333 0 -47 4 -59 12s-18 22 -18 42c0 8.66699 1 18.667 3 30zM257.002 104.999v1428c0 40.667 7.33301 68.334 22 83.001
s42.334 22 83.001 22h80c40.667 0 68.334 -7.33301 83.001 -22s22 -42.334 22 -83.001v-162l2 -1c60 94 138.5 168.333 235.5 223s203.167 82 318.5 82c65.333 0 124.333 -6.83301 177 -20.5s97.834 -32.167 135.501 -55.5s70.5 -53.166 98.5 -89.499
s50.5 -74.5 67.5 -114.5s30.667 -86.333 41 -139s17.333 -104.5 21 -155.5s5.5 -107.833 5.5 -170.5v-825c0 -40.667 -7.33301 -68.334 -22 -83.001s-42.334 -22 -83.001 -22h-80c-40.667 0 -68.334 7.33301 -83.001 22s-22 42.334 -22 83.001v911
c0 71.333 -5.66699 132.166 -17 182.499s-30.166 94.166 -56.499 131.499s-62.333 65.166 -108 83.499s-102.167 27.5 -169.5 27.5c-78.667 0 -153.5 -20.667 -224.5 -62s-128.167 -97.166 -171.5 -167.499s-65 -145.166 -65 -224.499v-882
c0 -40.667 -7.33301 -68.334 -22 -83.001s-42.334 -22 -83.001 -22h-80c-40.667 0 -68.334 7.33301 -83.001 22s-22 42.334 -22 83.001z" />
    <glyph glyph-name="ograve" unicode="&#xf2;" horiz-adv-x="1951" 
d="M1071 1852l-9.99902 0.000976562c-49.333 0 -84.5 4.83301 -105.5 14.5s-47.5 33.167 -79.5 70.5l-303 356c-18 20.667 -27 37.667 -27 51c0 19.333 21.333 29 64 29h149c44.667 0 76.667 -5.33301 96 -16s40.666 -35.334 63.999 -74.001l206 -335
c14.667 -24 22 -42.667 22 -56c0 -26.667 -25.333 -40 -76 -40zM986.001 1675c124.667 0 238.334 -21.498 341.001 -64.498s188.167 -102.167 256.5 -177.5s121.166 -164.333 158.499 -267s56 -213.667 56 -333c0 -127.333 -18.5 -244.166 -55.5 -350.499
s-90 -198 -159 -275s-156 -137 -261 -180s-222.833 -64.5 -353.5 -64.5c-126.667 0 -241.5 20.667 -344.5 62s-188.667 99.166 -257 173.499s-121 163.166 -158 266.499s-55.5 216.666 -55.5 339.999c0 126 18.5 242 55.5 348s90 197.833 159 275.5
s156.333 138.167 262 181.5s224.167 65 355.5 65zM977.001 1476c-87.333 0 -164.667 -17.999 -232 -53.999s-121 -84.833 -161 -146.5s-70 -130.667 -90 -207s-30 -157.833 -30 -244.5c0 -71.333 6 -139 18 -203s31.167 -124.333 57.5 -181s59 -105.667 98 -147
s87.333 -73.833 145 -97.5s122.167 -35.5 193.5 -35.5c74 0 141.833 13.5 203.5 40.5s115.667 67 162 120s82.333 122 108 207s38.5 182.5 38.5 292.5c0 69.333 -6.16699 135.666 -18.5 198.999s-32 123 -59 179s-60.167 104.5 -99.5 145.5s-87.5 73.333 -144.5 97
s-120.167 35.5 -189.5 35.5z" />
    <glyph glyph-name="oacute" unicode="&#xf3;" horiz-adv-x="1952" 
d="M908 1852l-9.99902 -0.000976562c-50.667 0 -76 13 -76 39c0 12.667 7.33301 31.667 22 57l206 335c23.333 38.667 44.666 63.334 63.999 74.001s51.333 16 96 16h148c42.667 0 64 -9.66699 64 -29c0 -13.333 -9 -30.333 -27 -51l-302 -355
c-32 -37.333 -58.667 -61 -80 -71s-56.333 -15 -105 -15zM986.001 1675c124.667 0 238.334 -21.498 341.001 -64.498s188.167 -102.167 256.5 -177.5s121.166 -164.333 158.499 -267s56 -213.667 56 -333c0 -127.333 -18.5 -244.166 -55.5 -350.499s-90 -198 -159 -275
s-156 -137 -261 -180s-222.833 -64.5 -353.5 -64.5c-126.667 0 -241.5 20.667 -344.5 62s-188.667 99.166 -257 173.499s-121 163.166 -158 266.499s-55.5 216.666 -55.5 339.999c0 126 18.5 242 55.5 348s90 197.833 159 275.5s156.333 138.167 262 181.5
s224.167 65 355.5 65zM977.001 1476c-87.333 0 -164.667 -17.999 -232 -53.999s-121 -84.833 -161 -146.5s-70 -130.667 -90 -207s-30 -157.833 -30 -244.5c0 -71.333 6 -139 18 -203s31.167 -124.333 57.5 -181s59 -105.667 98 -147s87.333 -73.833 145 -97.5
s122.167 -35.5 193.5 -35.5c74 0 141.833 13.5 203.5 40.5s115.667 67 162 120s82.333 122 108 207s38.5 182.5 38.5 292.5c0 69.333 -6.16699 135.666 -18.5 198.999s-32 123 -59 179s-60.167 104.5 -99.5 145.5s-87.5 73.333 -144.5 97s-120.167 35.5 -189.5 35.5z" />
    <glyph glyph-name="ocircumflex" unicode="&#xf4;" horiz-adv-x="1952" 
d="M579 1950l222.001 334c25.333 38 47.833 62.333 67.5 73s52.5 16 98.5 16h10c46 0 78.833 -5.16699 98.5 -15.5s42.5 -34.833 68.5 -73.5l226 -333c17.333 -25.333 26 -45.666 26 -60.999c0 -26 -26 -39 -78 -39h-10c-52 0 -88.833 6.16699 -110.5 18.5
s-46.167 40.166 -73.5 83.499l-146 236l-153 -238c-27.333 -42.667 -51.833 -70 -73.5 -82s-57.834 -18 -108.501 -18h-10c-52.667 0 -79 13 -79 39c0 15.333 8.33301 35.333 25 60zM986.001 1675c124.667 0 238.334 -21.498 341.001 -64.498s188.167 -102.167 256.5 -177.5
s121.166 -164.333 158.499 -267s56 -213.667 56 -333c0 -127.333 -18.5 -244.166 -55.5 -350.499s-90 -198 -159 -275s-156 -137 -261 -180s-222.833 -64.5 -353.5 -64.5c-126.667 0 -241.5 20.667 -344.5 62s-188.667 99.166 -257 173.499s-121 163.166 -158 266.499
s-55.5 216.666 -55.5 339.999c0 126 18.5 242 55.5 348s90 197.833 159 275.5s156.333 138.167 262 181.5s224.167 65 355.5 65zM977.001 1475c-70.667 0 -134.833 -11.8291 -192.5 -35.4961s-106 -55.834 -145 -96.501s-72 -88.834 -99 -144.501
s-46.5 -114.834 -58.5 -177.501s-18 -128.334 -18 -197.001c0 -71.333 6 -139 18 -203s31.167 -124.333 57.5 -181s59 -105.667 98 -147s87.333 -73.833 145 -97.5s122.167 -35.5 193.5 -35.5c74 0 141.833 13.5 203.5 40.5s115.667 67 162 120s82.333 122 108 207
s38.5 182.5 38.5 292.5c0 69.333 -6.16699 135.666 -18.5 198.999s-32 123 -59 179s-60.167 104.333 -99.5 145s-87.5 72.834 -144.5 96.501s-120.167 35.5 -189.5 35.5z" />
    <glyph glyph-name="otilde" unicode="&#xf5;" horiz-adv-x="1952" 
d="M550 1954c0 4.66699 1.33887 15 4.00586 31c17.333 90 49.166 159 95.499 207s97.166 72 152.499 72c37.333 0 70.666 -6 99.999 -18s53.166 -26.5 71.499 -43.5s35 -34 50 -51s30.833 -31.5 47.5 -43.5s34.334 -18 53.001 -18c40 0 69 27.667 87 83
c11.333 33.333 23.166 55.5 35.499 66.5s34.833 16.5 67.5 16.5h10c27.333 0 47.166 -4.16699 59.499 -12.5s18.5 -22.166 18.5 -41.499c0 -4.66699 -1.33301 -15 -4 -31c-18 -90 -50 -159 -96 -207s-96.667 -72 -152 -72c-37.333 0 -70.666 6 -99.999 18
s-53.166 26.5 -71.499 43.5s-35 34 -50 51s-30.833 31.5 -47.5 43.5s-34.334 18 -53.001 18c-40 0 -68.667 -27.333 -86 -82c-10.667 -34 -22.334 -56.5 -35.001 -67.5s-35.334 -16.5 -68.001 -16.5h-10c-27.333 0 -47.333 4.16699 -60 12.5s-19 22.166 -19 41.499z
M1798.01 833c0 -127.333 -18.5 -244.163 -55.5 -350.496s-90 -198 -159 -275s-156 -137 -261 -180s-222.833 -64.5 -353.5 -64.5c-126.667 0 -241.5 20.667 -344.5 62s-188.667 99.166 -257 173.499s-121 163.166 -158 266.499s-55.5 216.666 -55.5 339.999
c0 126.667 18.5 243 55.5 349s90 197.667 159 275s156.333 137.666 262 180.999s224.167 65 355.5 65c124.667 0 238.334 -21.5 341.001 -64.5s188.167 -102.167 256.5 -177.5s121.166 -164.333 158.499 -267s56 -213.667 56 -333zM464.006 824.003
c0 -71.333 5.99902 -139 17.999 -203s31.167 -124.333 57.5 -181s59 -105.667 98 -147s87.333 -73.833 145 -97.5s122.167 -35.5 193.5 -35.5c74 0 141.833 13.5 203.5 40.5s115.667 67 162 120s82.333 122 108 207s38.5 182.5 38.5 292.5c0 70 -6.16699 136.667 -18.5 200
s-32 122.833 -59 178.5s-60.167 104 -99.5 145s-87.5 73.333 -144.5 97s-120.167 35.5 -189.5 35.5c-87.333 0 -164.666 -18 -231.999 -54s-121 -84.833 -161 -146.5s-70 -130.667 -90 -207s-30 -157.833 -30 -244.5z" />
    <glyph glyph-name="odieresis" unicode="&#xf6;" horiz-adv-x="1953" 
d="M481 2056c0 49.333 17.667 90.668 53 124.001s77.666 50 126.999 50s89.833 -16.5 121.5 -49.5s47.5 -74.5 47.5 -124.5s-15.833 -91.5 -47.5 -124.5s-72.167 -49.5 -121.5 -49.5s-91.666 16.667 -126.999 50s-53 74.666 -53 123.999zM155 805.002
c0 126 18.5 242.002 55.5 348.002s90 197.833 159 275.5s156.333 138.167 262 181.5s224.167 65 355.5 65c124.667 0 238.334 -21.5 341.001 -64.5s188.167 -102.167 256.5 -177.5s121.166 -164.333 158.499 -267s56 -213.667 56 -333
c0 -127.333 -18.5 -244.166 -55.5 -350.499s-90 -198 -159 -275s-156 -137 -261 -180s-222.833 -64.5 -353.5 -64.5c-126.667 0 -241.5 20.667 -344.5 62s-188.667 99.166 -257 173.499s-121 163.166 -158 266.499s-55.5 216.666 -55.5 339.999zM1489 820.004
c0 69.333 -6.16797 135.667 -18.501 199s-32 123 -59 179s-60.167 104.5 -99.5 145.5s-87.5 73.333 -144.5 97s-120.167 35.5 -189.5 35.5c-87.333 0 -164.666 -18 -231.999 -54s-121 -84.833 -161 -146.5s-70 -130.667 -90 -207s-30 -157.833 -30 -244.5
c0 -71.333 6 -139 18 -203s31.167 -124.333 57.5 -181s59 -105.667 98 -147s87.333 -73.833 145 -97.5s122.167 -35.5 193.5 -35.5c74 0 141.833 13.5 203.5 40.5s115.667 67 162 120s82.333 122 108 207s38.5 182.5 38.5 292.5zM1124 2056c0 49.333 17 90.666 51 123.999
s75.667 50 125 50s90.5 -16.667 123.5 -50s49.5 -74.666 49.5 -123.999s-16.5 -90.666 -49.5 -123.999s-74.167 -50 -123.5 -50s-91 16.667 -125 50s-51 74.666 -51 123.999z" />
    <glyph glyph-name="divide" unicode="&#xf7;" horiz-adv-x="2070" 
d="M1796 852h-1522c-30.667 0 -51.334 5.33301 -62.001 16s-16 31.334 -16 62.001v124c0 30.667 5.33301 51.334 16 62.001s31.334 16 62.001 16h1522c30.667 0 51.334 -5.33301 62.001 -16s16 -31.334 16 -62.001v-124c0 -30.667 -5.33301 -51.334 -16 -62.001
s-31.334 -16 -62.001 -16zM1035 500c58.667 0 108.5 -20.5 149.5 -61.5s61.5 -90.833 61.5 -149.5s-20.5 -108.5 -61.5 -149.5s-90.833 -61.5 -149.5 -61.5s-108.5 20.5 -149.5 61.5s-61.5 90.833 -61.5 149.5s20.5 108.5 61.5 149.5s90.833 61.5 149.5 61.5zM1035 1906
c58.667 0 108.5 -20.333 149.5 -61s61.5 -90.334 61.5 -149.001s-20.5 -108.5 -61.5 -149.5s-90.833 -61.5 -149.5 -61.5s-108.5 20.5 -149.5 61.5s-61.5 90.833 -61.5 149.5s20.5 108.334 61.5 149.001s90.833 61 149.5 61z" />
    <glyph glyph-name="oslash" unicode="&#xf8;" horiz-adv-x="1953" 
d="M521 76l-108 -143.998c-18.667 -25.333 -36 -38 -52 -38c-13.333 0 -30.333 7.66699 -51 23l-8 6c-24.667 18.667 -37 36 -37 52c0 13.333 7.66699 30.666 23 51.999l108 144c-78.667 74.667 -138.5 166.167 -179.5 274.5s-61.5 228.166 -61.5 359.499
c0 126 18.5 242 55.5 348s90 197.833 159 275.5s156.333 138.167 262 181.5s224.167 65 355.5 65c168 0 315.667 -39 443 -117l111 148c18.667 24.667 35.667 37 51 37c12.667 0 29.667 -7.66699 51 -23l8 -6c25.333 -20 38 -37.667 38 -53
c0 -12.667 -7.66699 -29.334 -23 -50.001l-111 -149c78.667 -76.667 139 -169 181 -277s63 -225.333 63 -352c0 -127.333 -18.5 -244.166 -55.5 -350.499s-90 -198 -159 -275s-156 -137 -261 -180s-222.833 -64.5 -353.5 -64.5c-172 0 -321.667 37.667 -449 113z
M465 824.002c0 -170.667 32.666 -313.667 97.999 -429l724 971c-83.333 72.667 -186.333 109 -309 109c-87.333 0 -164.666 -18 -231.999 -54s-121 -84.833 -161 -146.5s-70 -130.5 -90 -206.5s-30 -157.333 -30 -244zM1389 1240l-724.999 -971
c83.333 -72.667 187.666 -109 312.999 -109c74 0 141.833 13.5 203.5 40.5s115.667 67 162 120s82.333 122 108 207s38.5 182.5 38.5 292.5c0 165.333 -33.333 305.333 -100 420z" />
    <glyph glyph-name="ugrave" unicode="&#xf9;" horiz-adv-x="1886" 
d="M342 1638h79.998c40.667 0 68.334 -7.33301 83.001 -22s22 -42.334 22 -83.001v-911c0 -71.333 5.5 -132.166 16.5 -182.499s29.667 -94.166 56 -131.499s62.5 -65.166 108.5 -83.499s102.333 -27.5 169 -27.5c79.333 0 154.5 20.667 225.5 62s128 97.166 171 167.499
s64.5 145.166 64.5 224.499v882c0 40.667 7.33301 68.334 22 83.001s42.334 22 83.001 22h81c40.667 0 68.334 -7.33301 83.001 -22s22 -42.334 22 -83.001v-1428c0 -40.667 -7.33301 -68.334 -22 -83.001s-42.334 -22 -83.001 -22h-81
c-40.667 0 -68.334 7.33301 -83.001 22s-22 42.334 -22 83.001v162l-2 1c-60 -94 -138.5 -168.333 -235.5 -223s-203.167 -82 -318.5 -82c-65.333 0 -124.333 6.83301 -177 20.5s-97.667 32.167 -135 55.5s-70 53.166 -98 89.499s-50.5 74.5 -67.5 114.5
s-30.667 86.333 -41 139s-17.333 104.5 -21 155.5s-5.5 107.833 -5.5 170.5v825c0 40.667 7.33301 68.334 22 83.001s42.334 22 83.001 22zM824.998 1937l-302.001 356.001c-18 20.667 -27 37.667 -27 51c0 19.333 21.333 29 64 29h148c44.667 0 76.667 -5.33301 96 -16
s40.666 -35.334 63.999 -74.001l206 -335c14.667 -24 22 -42.667 22 -56c0 -26.667 -25.333 -40 -76 -40h-10c-49.333 0 -84.666 4.83301 -105.999 14.5s-47.666 33.167 -78.999 70.5z" />
    <glyph glyph-name="uacute" unicode="&#xfa;" horiz-adv-x="1887" 
d="M343 1638h79.998c40.667 0 68.334 -7.33301 83.001 -22s22 -42.334 22 -83.001v-911c0 -71.333 5.5 -132.166 16.5 -182.499s29.667 -94.166 56 -131.499s62.5 -65.166 108.5 -83.499s102.333 -27.5 169 -27.5c79.333 0 154.5 20.667 225.5 62s128 97.166 171 167.499
s64.5 145.166 64.5 224.499v882c0 40.667 7.33301 68.334 22 83.001s42.334 22 83.001 22h81c40.667 0 68.334 -7.33301 83.001 -22s22 -42.334 22 -83.001v-1428c0 -40.667 -7.33301 -68.334 -22 -83.001s-42.334 -22 -83.001 -22h-81
c-40.667 0 -68.334 7.33301 -83.001 22s-22 42.334 -22 83.001v162l-2 1c-60 -94 -138.5 -168.333 -235.5 -223s-203.167 -82 -318.5 -82c-65.333 0 -124.333 6.83301 -177 20.5s-97.667 32.167 -135 55.5s-70 53.166 -98 89.499s-50.5 74.5 -67.5 114.5
s-30.667 86.333 -41 139s-17.333 104.5 -21 155.5s-5.5 107.833 -5.5 170.5v825c0 40.667 7.33301 68.334 22 83.001s42.334 22 83.001 22zM806.998 1948l205.001 334.999c23.333 38.667 44.666 63.334 63.999 74.001s51.333 16 96 16h149c42.667 0 64 -9.66699 64 -29
c0 -13.333 -9 -30.333 -27 -51l-303 -356c-32 -37.333 -58.5 -60.833 -79.5 -70.5s-56.167 -14.5 -105.5 -14.5h-10c-50 0 -75 13 -75 39c0 14.667 7.33301 33.667 22 57z" />
    <glyph glyph-name="ucircumflex" unicode="&#xfb;" horiz-adv-x="1887" 
d="M1630 1533l-0.00195312 -1428c0 -40.667 -7.33301 -68.334 -22 -83.001s-42.334 -22 -83.001 -22h-81c-40.667 0 -68.334 7.33301 -83.001 22s-22 42.334 -22 83.001v162l-2 1c-60 -94 -138.5 -168.333 -235.5 -223s-203.167 -82 -318.5 -82
c-65.333 0 -124.333 6.83301 -177 20.5s-97.667 32.167 -135 55.5s-70 53.166 -98 89.499s-50.5 74.5 -67.5 114.5s-30.667 86.333 -41 139s-17.333 104.5 -21 155.5s-5.5 107.833 -5.5 170.5v825c0 40.667 7.33301 68.334 22 83.001s42.334 22 83.001 22h80
c40.667 0 68.334 -7.33301 83.001 -22s22 -42.334 22 -83.001v-911c0 -71.333 5.5 -132.166 16.5 -182.499s29.667 -94.166 56 -131.499s62.5 -65.166 108.5 -83.499s102.333 -27.5 169 -27.5c79.333 0 154.5 20.667 225.5 62s128 97.166 171 167.499
s64.5 145.166 64.5 224.499v882c0 40.667 7.33301 68.334 22 83.001s42.334 22 83.001 22h81c40.667 0 68.334 -7.33301 83.001 -22s22 -42.334 22 -83.001zM619.998 1851l-9.99902 0.00195312c-52 0 -78 13 -78 39c0 13.333 8.33301 33 25 59l222 335
c25.333 38 47.833 62.333 67.5 73s52.5 16 98.5 16h10c46 0 78.833 -5.16699 98.5 -15.5s42.5 -34.833 68.5 -73.5l226 -334c16.667 -24.667 25 -44.667 25 -60c0 -26 -26 -39 -78 -39h-10c-51.333 0 -87.833 6.16699 -109.5 18.5s-46.167 40.166 -73.5 83.499l-147 236
l-153 -239c-27.333 -42.667 -51.833 -69.834 -73.5 -81.501s-57.834 -17.5 -108.501 -17.5z" />
    <glyph glyph-name="udieresis" unicode="&#xfc;" horiz-adv-x="1886" 
d="M342 1638h79.998c40.667 0 68.334 -7.33301 83.001 -22s22 -42.334 22 -83.001v-911c0 -71.333 5.5 -132.166 16.5 -182.499s29.667 -94.166 56 -131.499s62.5 -65.166 108.5 -83.499s102.333 -27.5 169 -27.5c79.333 0 154.5 20.667 225.5 62s128 97.166 171 167.499
s64.5 145.166 64.5 224.499v882c0 40.667 7.33301 68.334 22 83.001s42.334 22 83.001 22h81c40.667 0 68.334 -7.33301 83.001 -22s22 -42.334 22 -83.001v-1428c0 -40.667 -7.33301 -68.334 -22 -83.001s-42.334 -22 -83.001 -22h-81
c-40.667 0 -68.334 7.33301 -83.001 22s-22 42.334 -22 83.001v162l-2 1c-60 -94 -138.5 -168.333 -235.5 -223s-203.167 -82 -318.5 -82c-65.333 0 -124.333 6.83301 -177 20.5s-97.667 32.167 -135 55.5s-70 53.166 -98 89.499s-50.5 74.5 -67.5 114.5
s-30.667 86.333 -41 139s-17.333 104.5 -21 155.5s-5.5 107.833 -5.5 170.5v825c0 40.667 7.33301 68.334 22 83.001s42.334 22 83.001 22zM616.998 2227c48.667 0 89 -16.498 121 -49.498s48 -74.5 48 -124.5s-16 -91.5 -48 -124.5s-72.333 -49.5 -121 -49.5
c-49.333 0 -91.666 16.667 -126.999 50s-53 74.666 -53 123.999s17.667 90.666 53 123.999s77.666 50 126.999 50zM1256 2227c49.333 0 90.333 -16.667 123 -50s49 -74.666 49 -123.999s-16.333 -90.666 -49 -123.999s-73.667 -50 -123 -50s-91 16.667 -125 50
s-51 74.666 -51 123.999s17 90.666 51 123.999s75.667 50 125 50z" />
    </font>
</defs>
</svg>
